<mxfile host="app.diagrams.net" modified="2023-12-25T16:38:08.243Z" agent="Mozilla/5.0 (Macintosh; Intel Mac OS X 10_15_7) AppleWebKit/537.36 (KHTML, like Gecko) Chrome/120.0.0.0 Safari/537.36" etag="diB7a5kKWMwlrlXXCeCK" version="22.1.11" type="github">
  <diagram name="페이지-1" id="b1ZvtBOx4kcXjLYoNIx_">
    <mxGraphModel dx="1242" dy="785" grid="1" gridSize="10" guides="1" tooltips="1" connect="1" arrows="1" fold="1" page="1" pageScale="1" pageWidth="1169" pageHeight="827" math="0" shadow="0">
      <root>
        <mxCell id="0" />
        <mxCell id="1" parent="0" />
        <mxCell id="JMNK8RQ1T5k1cOqS-6Ur-8" style="edgeStyle=orthogonalEdgeStyle;rounded=0;orthogonalLoop=1;jettySize=auto;html=1;" edge="1" parent="1" source="JMNK8RQ1T5k1cOqS-6Ur-1" target="JMNK8RQ1T5k1cOqS-6Ur-2">
          <mxGeometry relative="1" as="geometry" />
        </mxCell>
        <mxCell id="JMNK8RQ1T5k1cOqS-6Ur-9" value="Access Log" style="edgeLabel;html=1;align=center;verticalAlign=middle;resizable=0;points=[];" vertex="1" connectable="0" parent="JMNK8RQ1T5k1cOqS-6Ur-8">
          <mxGeometry x="-0.1463" y="-2" relative="1" as="geometry">
            <mxPoint as="offset" />
          </mxGeometry>
        </mxCell>
        <mxCell id="JMNK8RQ1T5k1cOqS-6Ur-1" value="" style="shape=image;verticalLabelPosition=bottom;labelBackgroundColor=default;verticalAlign=top;aspect=fixed;imageAspect=0;image=data:image/png,iVBORw0KGgoAAAANSUhEUgAAALIAAACyCAYAAADmipVoAAAAAXNSR0IArs4c6QAAAIRlWElmTU0AKgAAAAgABQESAAMAAAABAAEAAAEaAAUAAAABAAAASgEbAAUAAAABAAAAUgEoAAMAAAABAAIAAIdpAAQAAAABAAAAWgAAAAAAAACQAAAAAQAAAJAAAAABAAOgAQADAAAAAQABAACgAgAEAAAAAQAAALKgAwAEAAAAAQAAALIAAAAAbJk1RAAAAAlwSFlzAAAWJQAAFiUBSVIk8AAAHk9JREFUeAHtXQd8VUXW/+clr+SlkRCaFAMSEBVCU1QMzSAISrNQFHfVTxQXkd1PkU+KIMiKsopLsazi2hAsVEGE0MsC0mJWkB4ggVDSX2/5zjxICKS+9+a+d9/NDL8f7+aWmTP/+d+5Z86cORNSTAkiCQSCGIEQSqogll+ILhAoRUAQuRQKcRDMCAgiB3PrCdlLERBELoVCHAQzAoLIwdx6QvZSBASRS6EQB8GMgCByMLeekL0UgbDSI3HADYE8cwHOGi4gs/AijHYTItR6NImuj6aRDRAbHsOtHJHRNQQEka9h4fORy+HA39O+w8YT27HxXBrgsgLMVF/sAlRa9LopCb1uuQ//lzQUqrBQn8sTGVxDIETM7F0Dw5ejbRn7MG7bezhUdImycSFMFQYVQkqzdKEYTpeD/lfhtqh6eD/5b+iW0Kn0ujjwHgE2syeI7D1+7ifNdgte+nkmPju2HOH6m6AOuUbeyrK2k1eA2XQOzyQOwrx+ExEepq3sVnG+BggIItcApMpuuWzKx7KjmzBq8ywgVItYTSScTIWoYQollSPPbgQcFnzS4zUMbtUT8fo6NXxa3FYWAUHksmh4cPzZgR/x4eFV2HfxCKJ0MW4VwhvPK9Z3M5WjyFKATvVbY3SbAXi2wxAPJBG3MgQEkT3kwbFLpzBi7QSkGwoQVuyEivTg6hWJ6gthL4GL9GdHSBjaRkRj0YNvI7Fe8+ofFHe4EWBEFnbkashQTD2m2WHFpE1z0eqLwfi9KA9a0oNDOZGYFc9eBpaflg4OGfPc5UzePM9dLitfpOoREIO9KjAqshqx/OhGjNk2F4W2QrIB1/VID64i6yovufVncw6iNdGYlzwGg1rdjyhtRJXP1OaLQrWoovVXHFqPtw5+jQM5pxAapoOOPvv+7B1DqJ+2FDvgpMFgh7rNMbH9SAy8LaUKiWvvJUHkCtr+QsFFJK8ch0zDJYSyYRxpXzz04AqKqtEpplgUkzXEQTp506j62DZgDhrE1K/Rs7XlJqEjl2npfEsh5u1bgoYLH0YWTWqoqQdWBZjETDz2EjE5NCq1Wy4mH5OTySvSNQRqvY5st9vw/fFUzNq9CL/l/A59REPIed7eQW1nMmYjKf52jL9rBB5rmQK1WnOtRWvhUa1XLbafOYiXdszF4Zzj1O1poKNez596sLecc+vPLjvgtKFNfEv8s+sYJDfr4G12Qf9crSWyjXrhIctewc/ZexGhiQmoDuwri5gObbIXom+DTvhx8Gxoa2HvXOuIXGAxYM3J7Xg+9U0UkTdaNFkjlJIKydYd5bLg45Qp6NeiK2J0UUqpWrX1qD1Epm7rs0Or8d2htVh3ZgciIuqTHhyiqKkGNihkvnVG40U80Kwrht7WF8/c1v/KaLFaKgT3DbWCyEcvZeClTW9j3cWj7hk5HTn4BIMe7C21mP5sdVrJBl2MB+q3wtyeE9CqXoK32QXFc4on8sTUOZiZ9hl0+sbQ1MC9MihazQMhbURmiykLryc9i7dSxnnwZHDdqkgis2nlDRm78UTqDJioZ4qhwZySe+DqKRdC0+sF0NOX6JuUSbg/oYviprsVR+QVf2zA/P8uxfrMA4jURiE0JLSWk/gKzZm64aSZQYO1CL2bdMCLtw/BoDb3V/8OBMkdiiFyvjEfw9aMx/acM3A67VCHaoLapCYVf5ipzk6259BQNZLr3oxv+81CnYjgd+ZnRA5qN04X6YDzf12M2I9TsO1yBvlGhEAjSFzpe8AsGwwfhtPWy6fcuDH8lBCQNSinqG0OGzac3o2XN8/FsYITiKVpZU+WGVXa0rXsgttd1HgeiTG34IMeY3H/zV2gCQu+6e6gVC22n9qLNw98gS1ZaXBR7xJBU8u1ezDn29vH9GejywYVqRzdGydhSsc/474gW90dVEQ2W80YsPp17L6QTr2vilZUsA+kSLwQYPqz0+UktcOFLg3bYmX/mQjXhvPKXtJ8goLIZrsVq49txVPrp8FMg5SYsHDRA0tIC9ZDFzjMCKdB8xe938DDrbpBJ/NwBbImcrHLhdSze/Durq+x/vQmhEc3A7NFCDVCQhZfzZqR2UZIm4vO0HR3T7xyz0ikNLmTgibJ0zYgWyL/cfEkJuz8EOuy9oGcFRFBzj1KGFlLT0G+JRBBYKSlVmrK9oHGnfD2vaNxa/0WfAvhkJssifzS2r/j42OrgLBIhNOEhkjyQMBMEypwGPB84sOY2/f/5CHUVSlkQ2QWduo/WekYsXo8LpBtuI46Ai4PovbIClUFC8OWXOVTdKQG1FMv6j8L9zRuh3B14F1hZUHkDRl78HHaUnx/dC3CKeyqhsBiI2iR5IkAsxTZqJMxU9jcx1r1xfNJQ8h/466AChtQIl825OGvm97B0sz97mlTvbBGBJQMnhbOBoQmp5kWxWoxmPw33u/5KuIj49yDcXbNnylgRJ6/6xuM2TkbuvB61AMLPdifjS5FWTbSny3mS5h37yv4y91PSFFElXn6lcg2skvuykzD4F+mIZei6MTqYsW0cpXNE1wX3fqzJQ9xFI1pWZ83cHeTJPLrYPYO6ZPfiLznbBo++G0xFh3fBr06HOogWa0sfRMoqwSmUthpdbfJbsaIlt3wcrthuKtpO8krKTmRTRYT/ocWeqaeP4wCawHUZA8WE8uSt2vAC3CSpmwn+3OMNgYpjdrgU1oQq9fpJZNLUiIvO7QBQ9ZNhk6jd0fJkawWImNZI2CjHtpiM5K6MUMyZ35JiFxEQj+3ZjqWHF8NXWQTaOlzI6aVZc01SYVj6oaVGGAxZOLxlv3wab8piNLwjSzKnchGmwlPrnkDKzL3IJomNWhemaogUm1HwG2Mo0mUQtqqbSD5bHzdbxoFxuGnajAic/UCWfpHKpaf3o6oML3bN0KQuLZT+Er9GQ+Yr0wkjZEYPxhPeCduK0Qc5Mtab8GDMIWGUCxhru8H7zqL/AKIgIVmBfXOYlz+y1paHMyHJ1x75IPnDiPfnIVwcngXSSBQGQKMH4wnB7IOVXaLV+f5vBJU9GbymYCGVuTSJ0SuiQ08KvonV3k9kat8vTx52o/3Mn4QT9x84Vgst1DA542XKTSrfHtjpqMVOmhfO1qbBuaSSJSmcPS0C40OzM+DNCI3yTli69esCuwG9559VDlqB5pRo/WM0VQvWSbiiZsvHIXjRmS5dsR20slUcCKMNnSc3fZxtKP97GJ0kRQFnsA0XMS+84fwVUYqcsniYikOcQf5ZtOtwZAcVDcn7TMSS8Fo3mr/BNpSrLdoqudFYw5WnNiMLzM20tupdm8fEdgNJMqjyXuhBDciu3uC8vIG5Awz97C4Z2aHCU+1oKnS9sPRsfHtFcrycJtemIoxuFyUi++O/ILFJzdjx/l0qDVRNGiVZ6QiZmwqtObj3nq3YfKdf0afll3L1a1P62QscE7E5F2fYG76SphppXS4gleccyRyOSwDdoItjzKbcvD9gHfxaMsebi2iOmHio+LwYufh+FPbgVh/ZheeXfcOcl0GxKgjZTWhQyN0FJguYNStAzCr+8uoo4+pvGqhKkzv+gIGtkjGQ8tfRT7NsmlpPz8lpuD4hnqAPOuNTabLSH3sQzya2KNGJC6bfYRWj0GJvXD06cXoXrcVrVkjvVpGyUArnHs17Ix/9p5QNYnLyNy50e1YNeR9WK2kR8smsZbilxRHZDNF4Bzddgh6krO3L6kubXD+w4B30Dk2gfRQNjgMfHLbg0iPn9lrHLQeRgTqVC8RL7UbTLGTabCrwKQ4Iuto9ujRlr1on2jfLShsxcPXfd4EDQ1J53YyO0dAk4tkeKhpR9pAsoXHcqhoKf+A5t3oBdB6/Kw0D/A10yqOyDeRRSLZx964bMPdEn8zNj62ABayBAS6L2NR6NvE3ux1fLauFBKroY6vw05ZrAJ5rDgia2iAw3vfudviWyD10Q9pAHkxoE5QbGFuh7iWXvOFhcAKD5PLYI/v901xRJZqixu2UnhGl1Fw0GArUInZtyNphY0viZxrfHmc47N85VAckTkiXS6r17o8i4FNu6CIYjsEYoKBOcXKhofl0AnsCUFkD/APo8/yF/2nowMtGCgg6wjfj6MHgohbyyEgiFwOkqpPsEDY+55ehGIKNm4JiFmO7ye56tpKeZVvNyCI7GVbHRz+KdTFdrfDuJdZ1PLH+L6QiiMyc2f0R0oi56MF942DjQL7+avMK/XyT/38gSHPMhRHZJ7gVJfXyHYDMa7NIyiw5JI3nSBYdXhdf50vXoojsr+Xu76d8lcMbHw3Rak0Xd9Okv3F95MsmZh+zlhxRPYzfu7ilj82Bx3jmsPgsAai+CAtk+8LKYjMiQaL+05DYy1F1ueUn8jGMwQEkT3Dq9K7E+Oa4dvetP+1NZfu4av/VVpoUF/gi5HiiOxfC8L1TOqa0BH/um88rd7Iu/4C17/4EoCraAHMTHFEDiCW7pUkT3d6BJM7PEVkNgg1o8rG4KuECSJXCbZnF0u+BlOTnyef6G4wUURKkfyDgCCyBDgzL7V/956ExIhoCXJXSpZ8VSTFEdlXO3Jm4QWarfPdhT5CE471gz5CqMssIvP74d1THJF9xWz9iZ3425a57mx8fSmaxDbCigdnw0X2ZRZfQ6SyCAgduSwa3I/r62Mx/78/4o0tC7j4UCQ370xqxkSYKW60oDL35irNUPTIpVBcPSDP9QjaMuCdQ0ux/BCf8KeP39obo8kvw0lxJXxLfPVK32Tx9Wm+dVEckUssB77AzFQKNQXPGrt9DtKzj/iSVemzC2gfui5xTWk5PnPI97YR+X6OS4ULyAHfuiiOyLzahFkesm0G/Hn9NNjsfHwoVg2ah6SohhS53egDmXnVUFn5KI7Ivg7QrjVvMUXp1GN//jkkfvv0tdM+HEXSUvwfB72Ppppodyw277Li25N5J4P8nlIckXlCzF6KGLUeZwrPY+jyCVyybhLdAF/SHhrFFDHIc0p6q5JwEZ1zJnzrojgie69/VtxObjJTnOFlWXswZ/dXFd/k4dnuFC1oSucRsFK0UBaUsObJc+rXPG9/38m3LoojshTNwcispeDZU/cuxNaMX7kUManL0xhzaz8UGLNpdYloBl9BVRyC/HTk66FlZHNSfOHeK15CnjH/+ote/jX7/vF4skUf5NNSqZp9STzpvb0Uym+P8a2L4ogsZTuwXYhsYZGIWziASzFMrVjQbxI61GkJi882Zi4iBW0miiNyzXo279qLaXUxtON9GEX87P3dGNJxfTfLsV1Av+z3xtUomdX1Unz1Su9Q4PUU37oojsi8YK4sHwa/nrZk2Hrxd0zd9hGXuBZ31GuJ7x6YjELDWdqUx/dwuJXJruTziiOyVDryjSRgcZjfPvAlVvyx4cZLXv3dJ6ELVvT/AHkFJ92b11ScSXU9dsVPyfMs37oojsj+bLSYiIYYvHIMDnCaxh5AG/NMunM0rS4p9MLG7M+ay68sxRFZSh25XPORa6YmOgEdvx+FQ5eOl7vszYmJyaPwUJO7YHU5KvDI4KtXeiMfv2f41kVxROYHdPU5saYIJ8tDOKkZT6ydjuwi2jTTx6SjrRH+3XcytGotjPSi8P0A+yicjB9XHJH9pSOXtCkjs5rMcukFGRi/eQ65avq+cU4cbcRzfNgXcBizKLJA2SZSEq351qUsSiVtI369QCBSHYGvjqzE3F+/8eLp8o/Uj6qLPUO/hdF8Ca7S6N58P8flS/XnGb51URyR/aojl2l3tiVtnahm+Ou2f+Af+xaXueL94Z1N22JBt9fgIB/mazvL8u3JvJdOXk8qjsiBhJdtHxYd2RgTdi/EymNbuIjyXMdHMKxFDxhJZQnUS8qlIhJnojgi+1tHLt8+5GBEA8Axm9/D8dwz5S97ceZzmvmL00XBpahpbL5fFsUR2QuecH+E+WRkWvIwet1MFFn5bAF84anvySE/XEE+GUJH5k48KTKM1kQiNTsNI1aN55J9SFgo1j/yCaK1kVzyU1omokeWqEXZ4C9GF4sNF/7A42smcimlGcXJ6Nn8Ti55BT4ToVpU2Qa+D4j4Acz0dXWoBj+c2oV/pS2rUu6aXgxTyWXn0ppK7J/7RI/sB5z1RL7x2xdgd+ZvfigtWIoQOnKwtFSpnGzwZ6I4Q4+tHo+s/OzS8+KAHwKiR+aHZZU56UjFyHUV4+4lT6LYKYJn8Y7qrzgi+25H5vvJK8tu1jPnF4eh5/KxZU+LYw4IKI7IHDCRNAu2GfuWrHRM3fGJpOXIP3O+HYYgcgBaPJImNmbs+xLfpK0KQOnKLFIQOQDtynrlCE0Untw4FWlZhwIggRyK5GfmZLVRHJF9tyP7r5Hr6BsiedlzyCq86L9CFVqS4ogcTO3kohUgjtBI9P/pNRTZ/LUFsFwQEjpylS3hu9Wiyuy5X2SrS9JyT+GFX2a68w42+bkD4mWGokf2Ejiej0VT+NpFJ1IxfTOf7R54yiZdXkJHlg7bgOVMq0vC4zFl/7+wOH11wKTwb8FCtZAYb749RU2FZatLYvSNMGrru9h0Zm9NHxP3XUVAcaqFrzS0uWxcwmB5wzCmH9tDNHhi3QzkWQq9yaLWPqM4ItuYG4MPX63Thou0J54PGfhIJY0qFNkUaajPkjE+5lTx4w7Z7Pfna5dzff0UR+R8mxVHLp28vpYe/PVrzmFo6U0IHJUp4icFfPk1/xhGLHvNA8mrv/VUzlkU2B3V3+iXO/girDgi59LGjGtP7/SqKTJo45ud54/eEBTFq6x8eojFsYjRxuK7zB2YtOUDn/Iq+/Cqk1twyVJU9pRijhVH5BCyy75HqzEumfI8bqSv/7saGYZsCu0aeFjYNyFCHYXZv/2A2bsWelyXGx+4YMzFm/sXe7hnyY258PxbqBZVoskmGM6YLmDculkeha/alZmGyTvfp54wqsr8/X1RR2R+dcdcjFv7d/fm7N4oPXanAwN+GIdcu4HCeykz/nLgux4JmFGHtuBddGoDhvz4vzhWTWwJi92ChQeX4p5vn0RsTIuAWSwqg4ERt07kTfjg6Grc9MkAfENfjbMFNVtl4qKgLlvO7kOrhY9jT9Fp0r31lRUTgPN8dWRFrmRkPgwx+npYfeEg9iwdi6HN78WTrfqiXcPW0FCUSwqmhnPkqPPLqR34/Pg67Mr+HTFRTanH8z0AoRSMcNeHNpnMp9BZIzfOwh2xCbgjvikebNQFdzW8HTfHNka4NtxdtMPhQEZeJjaf3YsfTm/DtnPpZNILIxJH0GIrvuSRoq7e5qlIIjMw2HL8CNofz0A97odHU/HZ0XXQkFrGtmkspv+d5PhnpU0bGQDh6kj3WW9B9MdzTGodLWLVUryMDDIRnjJcwNKMfRTVqJjqUEy1ubJ8itXNQXy10hk1HYeGat119EYlkbJevF8pbkTWEmByTCoKX6VDKDV16BX7MP19JRUTsUuO5Sh5xTIxidmAlqUSbbecQY1ukmdruMV2/8fWMPJM3HTkpPqtAIeZZJMnOa4Q4Iq3svtYpnJ607hX6nMF+ZJjb/LxzzMkocOCpPqtuRbHjcgPtk4G7DbqLbjKJzJTGAJuftitcPOFY924EZnFJBvb4Unk0/SqSAKByhBg/Bjb4QlE6/jGsONGZLaL59jOwxCvi4NNNvP5lcEpzgcCARtZhRg/xnYeTood3083NyIzYG6JbYrPU8bDTvZLA+nLYrPwQNBFfmUyHhQRH+wul5sfjCe8E1ciM+EeanEffhv+Kfo3aI982iCGjaj5vnu8IRD5SYUAa3fW/owHDzds7+YF44cUKYTsrbxNem45mRF/9dGteDp1GnLIUMT2cJakIClQEXn6jAAjcYHThrpk3/485Q30b9VNsi80qbUhkhG5BAmz1YxRqW8j9dw+5NBKYS3ZD1lcB5GUiQCbPbQSgePUevRu3AmfpEwonXWUqsZ+IXKJ8AfOH8Y/Di7B4iNrAQpOEkU99LVtt0ruEr/BigCbeCpy2gFbEYa17otX2g9F+0Zt/FIdvxKZ1chBXlgHsg/jiTVTccyQARaghKkgIgU3Amwwl2/MRmJUAhb1n4b2DW5FWCi3SeNqwfE7kctK9PH+H/HC9vfJ51ZP/r8lk61l7xDHwYAAWzRrsJvx0X3j8DxtpRaIFFAiswpfLszBqM0zsfn8HxRpx0DOO3qhPQeCCR6WyQbtJrsJMaQi9mjUGh/3eB3x0XU9zIXf7QEncklVNp/ajXnpS/Hj8U2I0sfRYFBFQwZh4yjBRy6/bBLDRf+KzPl4rGUPjL5jMG3O0yXg4smGyAwJGw0Udp7ej560PQGFdAdzjhf6c8A5UiqAWw+2MfcDFTb1fwf33twRGhqwyyHJishlAZm6aS6mpS+Cnpb5MP1ZGOvKouPfY/ZdZAsOTPYiTLljOKb1kl+0fdkSmTXV0UsZmPyf+Vh69gD10A73oFCiuRv/MiNISiNyEHnNpEio8Eizjph+z1/Qql6CLKWXNZHdiNGSpF9O78Lc/Uuw+tQWREY2dDuTC+1ZOj6xrx9b8GWg1eT9mnfHSx2Hom/C3cybX7pCfcxZ/kS+WkEr6c8/H9uG4WvHw6KpgzoqDfUUgs4+tn+5x9mMaz7NyunsBfi27yw8mJhMM7Hy0IPLCVvmRNAQuVRm4u6fVk7EksztcFGMtHCxC2gpNL4emF0OqIptGNY0Gf9+eEZQeXoFH5GvttYO2kH0nX1fYWXGToSpwxFJ/htiuttzKrNpZYPDCgctPRqQcC/GdxqJrk3aeZ5RgJ8IWiIz3OwOO7adT8OkzfPxnwv7ERHZmPRnoW7UlFNOUiOMhizc26ATpvd4EcmNkqAOk78aUVH9gprIJRWyOmxYmLYcL2+fQ15WMSWnxW+lCLBBWzHM1gJ8QNPKzyQNgjaM74rmSouW6IIiiFyCTaGxAF1/ehXn8k7D5HRCTYMU+Y6zS6T27y+bdNKpVGgSl4AdD72L6AhlvPiKInIJJVJP7MS7Bxdj3dk9UGujoacoO7V5uptNK5vIDm+nRZ8PNL0Lr7YfjpRb7imBSxG/iiQyaxkjOfBvz9yPkWvfwiVbDq3YDZxDS6CZUmjJQT1NXXzddxIN5DrQRpVyiv/GBx3FErkEHuarMXnrR5h54EtE6urQHFXtUTbYV6jIko/XOzyF6d1ekGyZUQnWgfxVPJFLwD1B093PbpyOvbmZtJLXTkZ+rSIpzWw2Vgp0qKEJo05xjfFZr8m4RabTyiVtw+O31hC5BKxlh1MxJ/0HbM06iOjwWCLzlZCGJdeD9bekHoXmPHRr3B7j2j6KwW1SgrU6Hstd64jMEDKQ/rzm2FYMXTeZogBqyTk8OqgHg4zEBRTAG+TovqTPDJpW7oYoBerBVbG7VhK5LCDPrZqCT0/+QgOgWNIhGSWCJzE1gs1mGm15GJ3YHwv6TQke4TlLWuuJzPDcfTYNU3Z9hHXZh6Aj27OW9Es5m+vY62alvQAtZBNOoUWeM+55EV2aJnGmRnBlJ4h8tb2ctLr7yyPrMH/vt9h3+TAtt6ovu8VW7GvhIhIXmS+hU91bMYbip41ITKEI/ME9K8fjlRFEvgHFQqsBi9J/xotb30KxLh4xKnlER2IkZlF7Qqw5WNBtIka0fRAs+qlIVxAQRK6ECXmmAjy6Yjx25h5BmErn1p8ruVXy00wPdrgs6BrXGssHv0f28AjJywy2AgSRq2mxFce34e29X2HXhXTauyMKOj9NdzM92Ez2bhtZI+5u0BYTOo/EwJYUSF2kChEQRK4QlutPFlkMWJOxAxO3fYwThjOIDK9H+rN0ienBBvNFtIy8GW90fQYDW3RHFOeg2NJJH5icBZE9wJ3pz+/u/gozaLo7itxFpTDWlUwrT+74J7zSZaTQg2vYPoLINQSq7G0nabq7509/Q57VSDur0l5RKt/CFTB7sJOWGYWSe2WsNgJbHp6DhPhmZYsUx9UgIIhcDUBVXV6c/hPe/e177L90BFrqoXUUf8MT+zPr0S0UL8JKDu4d41vh1aTHMaztQ1UVKa5VgoAgciXA1PR0Dm3cvvr4Vjy76T04QmoeHckdtYcIHFaswmc9X0E/GsjF62NrWqy47wYEBJFvAMTbP020u+oY2sT982OraWAWV6X+fEUPzsXTif0w/wEKgq3WeVuseO4qAoLInKmwM2M/XtgyAyfNJlqZbEUI6c8lqZg2CFKH6dAiXI8F3V9H14ROJZfEr48ICCL7CGCFj1Pc8h/++AWbsg/Qxu057uCMbLuJRtFx6E4bBD1+e98KHxMnvUdAENl77Gr0pNFqogCALgrEqEKEVnlLjGoEgh9uEkT2A8iiCOkRYESWcpJK+hqIEgQCVxEQRBZUUAQCgsiKaEZRCUFkwQFFICCIrIhmFJUQRBYcUAQCgsiKaEZRif8HQi4BRGslm5wAAAAASUVORK5CYII=;" vertex="1" parent="1">
          <mxGeometry x="270" y="293" width="66" height="66" as="geometry" />
        </mxCell>
        <mxCell id="JMNK8RQ1T5k1cOqS-6Ur-13" style="edgeStyle=orthogonalEdgeStyle;rounded=0;orthogonalLoop=1;jettySize=auto;html=1;" edge="1" parent="1" source="JMNK8RQ1T5k1cOqS-6Ur-2" target="JMNK8RQ1T5k1cOqS-6Ur-12">
          <mxGeometry relative="1" as="geometry" />
        </mxCell>
        <mxCell id="JMNK8RQ1T5k1cOqS-6Ur-2" value="" style="shape=image;verticalLabelPosition=bottom;labelBackgroundColor=default;verticalAlign=top;aspect=fixed;imageAspect=0;image=data:image/png,iVBORw0KGgoAAAANSUhEUgAAAmoAAAJqCAYAAACb0mx/AAAAAXNSR0IArs4c6QAAAIRlWElmTU0AKgAAAAgABQESAAMAAAABAAEAAAEaAAUAAAABAAAASgEbAAUAAAABAAAAUgEoAAMAAAABAAIAAIdpAAQAAAABAAAAWgAAAAAAAACQAAAAAQAAAJAAAAABAAOgAQADAAAAAQABAACgAgAEAAAAAQAAAmqgAwAEAAAAAQAAAmoAAAAAi4uzqwAAAAlwSFlzAAAWJQAAFiUBSVIk8AAAQABJREFUeAHsfQtgHFW5/zlnZnfzbJs+6YMmlLbQblrFgn9f91J8XFTEB9rYJG1JWyji9X2vXq96tXr1qhcVBRWpNElfaU0voqIoolLwiVDBNkkfFGgBS6HQ0qZtkt2Zc/6/M5u0eWd3szM7s/sdSHd25sw53/md2ZnffN93vo8zKoQAIUAIEAKEACGQUQTWLLo9dPz5MrO0OGJysyskw8xQHXYx4/w8xe0LBWcXM8Zn4u8CxtSrGlprSjIqADWWMwjwnBkJDYQQIAQIAUKAEPAQgTWL7i6Kd52aAOI1jksxSSk1AaRrAudiMuNsGldsomJsBkSahr+JYaO4EMeZUhL/4k9hG58mD7N2dmZ80+7a4x6KT10FBAEzIHKSmIQAIUAIEAKEgOcI1M7ePCYU4bNAuspBvs7nnM8FvyoHy5oR72wvANUq5EpEIFgxjhVyZoTx6cipcBL+R3H+YTH7zNltp0L3P5JLFpZokzEiar2BoW0HASJqdCEQAoQAIUAI5AsCYFCKrWVf5K1sPj+6uI3PbZ/KT3aNOa/YlheAWM1X3IgyJisYEzBNstmCC5yRIFoO4erZ7LZHcbC33iWhKeu9J5ltxQzJK1DzsWRqU538QoCIWn7NN42WECAECIEcR0Dxulf+ZKwpT5dYSpQwKUqh1ioWUk2WnM3gqmnqQT7ngmJmVZS8MHeqNMLTxokwU9Bq6f+Ush1iliBc2IPvbhdtArUNpTVqVAiBAQgQURsACe0gBAgBQoAQ8DsC11U2TbGgBTNMcZ5kYgaX0IgxNZ3xraUszsosJsZA21XKuRqL/SWGETEECJG2RSb+k84QbRljNotldbhaHqH0wgIqhMBABIioDcSE9hAChAAhQAhkGYHFi+83zz/2zPlG3JgHly+YJFkFyMxFivNKmCbH2ZpzCSGkhO0Rnvz4KrCH91gpu73EoCFLDMRSXVke0XDda6rGK4arQcfyFwEiavk79zRyQoAQIAQ8Q+DDs++JHGPHIuHSWMSOmYUhVhCOc6sIpGumkOIChKs4H2xljhJYJYnP8EsvQxNWypSZWB3prJaEeTLhJwZO1l0cHtbDxnp2BuxTjwEMszxgYpO4HiFARM0joKkbQoAQIARyHYG3zb4lMtEYN80wwxMNriaDP02DX9gk8Ksp7fz45AgzxstYwQSDs/OksiZEeEGBdsZXhg5Xgf8QtkKrxLR/WEx25Dpc58bnhOtwwnic20dbhEA3AkTU6FIgBAgBQoAQSBoBJ1yFycoNwS+Wgs8Fu4JvFb8Imq7z8RlGQ2HOZEgqlthWLAQTJVzDDByCL5amYgk1GLNkZ9L95kHFAiwqQGSPRECPPBgvDTFJBIioJQkUVSMECAFCINcQWMvWisOLphqxl8KGPcYw5BlhFEQ6TWVEJjGLzwJvqFBC+4SxOfAPKwfhmiu4CaKV0Ho5gSs0r3C+n0PH4WHnvuJwwnG/1y7aHIiAWFm5fQp2Hxl4iPbkMwJE1PJ59mnshAAhkBcI1CzYUlaijPG2VGMsxsYbiJ4PT/xxh5iczjrVebxYTDFt+EhF2FTJiqZEWDGTMEdqDZjsiaKvw1cgVIUX4SryYlJ6DbKb2AqTW5Oxm4haL2xokzEianQVEAKEACGQAwhUI1xFgWVfKIW4AGbJaeBXF8KQdgHncgxcvorjTCJyPiuEFqwEnmAlBhf4qp3yEzRB68gSm4p1DRFBPwdg8vMQDGkrTdSoEAJ9ECCi1gcO+kIIEAKEgD8R0I76kwomwhdMXmgw40Ku5MXQeVXAGb8Sf1O0OZIZZoJ66W3Ep9CO+YjkenZA+IaC2vgXzvzON/rHNwggCQJyhFIhBPohQEStHyD0lRAgBAgBLxBYEm0OF9odpeGwUagj6MMHDJouq4QzcwqCt16IkGDTQcTKIcscUKsZqIZQFuBdjiky4SMGp/2z3xMyJ6hYYpv+DQ4CiKIGWzSMy9pHjQoh0AcBImp94KAvhAAhQAhkDoElM5oLi0vsKcy0KqDZmoaE3VNAsWZi5eMEkLLx3AiV2ZKP4UqNx/7xBsJVOLklDa0J0w/vBCHT24mE3pmTjVryFwKYaQPkfJK/pCJp/IAAETU/zALJQAgQAoFFYHW0eTy34xdYgs1CaIVKcKoLEbx1FqjWHMbtEEgW4lIYOjYFwoc5lklT670SBkhsaDNld5EKnmTnvvbsps+8QAAug0yRRi0v5jq1QRJRSw0vqk0IEAI5jIAOV9E6Y36kbMrxcHt7aaiQ8zACtoalqaD1QogKxmfiaXohtB/zAEM5dF6zDKzVU8JgYGTgXPhzcknCXV8TMId0nYsbhqPd6PV85jCYNLTUEVBsTOon0Rm5joD2KaVCCBAChEBeIbBmUfPYWMyaCqegidBtjQfBmtptdhoPN/tp2Kc1GxPwN1VwY6IpIgkS5viEabqlI+mfS22UV+DRYF1CQD+O1b2hgtJr1u28+oxLnVCzAUSANGoBnDQSmRAgBEZGYPUlW8rtLuSR5OaFTMkKyUU5tFzzYHMcF++0IngsFqCVCGhXGPsK9ZI73ar2DEsovhL6Lx03jPzDRsabamQAAc7GdJ4+VoiWiKhlAM5caYKIWq7MJI2DEMhhBLRJki2+XLQePSqKT08S4Qn7BaLph0WxWc6lmGcLVQFH/Ythb4xC9TXb4KFxLI49QpsYQbh0xDDHLNkXpN4GSArk2hcb+uY1ArgaYfoMh0s0UaNCCJxFgIjaWShogxAgBLKJwIdn3xM5xU6N4UVsvLRjY0CtShGeogxqrrJDjFWwo8+dX8LYFFb8XHm8c8zM8JjCIui+mAIZE2fDVCRMkjbFCMvmVFLf6SMwJhaLO2FY0m+Czsw1BIio5dqM0ngIAR8jsGbR7UWsa+zUuJLlMDHCJMmmcaHKoeyacYq9XAzRi2FpHAuSVow4rSUmMwqhF8NubYbs1o6hsv4ed6Ln+3iwJBohkDoCpabBSKOWOm45fQYRtZyeXhocIeA9ArWzN48JFxnzlC0vQAiKedB6RZHc+wKovS6Odyl45WMdJYoTNR/xLMC5dFyCAUXn+pbMxn79R4UQyAsExkgiankx0akMkohaKmhRXUIg/xDg0IIVxmWo2I6ZhREzXCDjqlgaCFdhqxlgWxeBZmmN2PnYnmuw8HRThBALDCZImCQTUfRhwERCb709sGjtGBVCgBDQCGB1seiKd8LCT4UQOIcAEbVzWNAWIZC3CCxfuHGysMxJhhDTlbQmw/Q4RacvElxhhSQrA9OahCitZZYly3QYixAWTOowrjpEBRgYnPUToSqwPpLZdixvcaSBEwKjRQDqZQp6O1oQc+x8Imo5NqE0HEJgKATWRDfOtKQx1zZAwJgxDybIuag7G38TYF3U2bwNpRBJnwudwMiE2RJULBE/3/EKc+yTzhaLy86huqH9hAAhkDYC8AMQHHH8qBAC5xAgonYOC9oiBAKDwNrF95utB46GwgWxUEEkbHJuhWKGaRpKTlHSjmIgFwolyqHumo9b/2xThJFLEvmL9ApJrQHDf9ozTEfS13ox/W/iH83GnG/n9utjVAgBQsB1BPTvET9RTdR6/xBd75c68DcCRNT8PT8kXR4joMNVdBS8PE7Z1iQlIpOYlOOQnmgybuFTDr7w3MSSsQzR9I0ZyA85EbbH8wpkqMTxzddmSOc//alNk0j/LbvyGEkaOiEQDASc3y13iFrP21IwBCcpXUWAiJqr8FLjhMDwCCyGZqzipedmGzafLgWfy5WcDQ3YdM7V7FPq5UIwrYgSJuKF2YUgaAUgYvjTFskEFcNxFOF8xGXH8J3RUUKAEPA5AvhBJzRqPpeTxPMSASJqXqJNfeU6AhwR9Hnrkvn86NE2vphdzg63l/JO4+kx5snOufAAWwAShoTeMEsyjm01V7x4FJgYzgpJHY4iYfHAvdrZTsB1NnQFNhx6RsFcE8DQv4RAjiGQeP1S03NsWDScUSJARG2UANLp+YeAjhNWHFLFVigyxlbxEkOyMVIhuTdWQz7N1MzSPfFZxWrOtEPs8PmCh2YWCayQDBclQlZ0myJl92pJSaQr/y4gGjEhMBQC2keNCVpMMBQ+ebr/7Mt6no6fhk0IDIrAytnNSChpz7CVnCqEuACVzpdczeCKj4deayw0X4iir8Zhv455NNbkYROR9B1VmH4rdnRfuOk6PmL4RoUQIAQIgWQQCIsiNnXC2NDaHVdYydSnOrmPAGnUcn+OaYRDILBs3qapISEWwvdrFtIUIZ2RWgDX+ws5kzA92NolHy5hSHAEdqZfdGGadIyPieZ62Saxw1KIHdZ31xC90m5CgBAgBIZBAKuxnzlxWJs/Dw1Tiw7lEQJE1PJosnN5qIieHzreWRYpCZ8qZPHCAqGsCJzui2ylpkL7dT7I11w4gs1Rgs0AoZqDt9axDu3SEfRhhtTL4nXQVuF8d1Rj5+ACAdN7qBAC/kcgEfdOh15JlF7XsqPhpbcJv8+hzuAhLV4BOQ/5XVaSzxsEiKh5gzP1kgEE1iy6u0jGO6ZYTE7hlj0Fix+ngGNNUVxMRA7J8cXMKmOxAkT1VpOkMsoQO2xMCJUcIoZ/9Q1QJ5bU32PyTAYkoiYIgewjAKUvMzjiFeMvZp85CSr2BC72Z8HVToKbWaBqEWiKJ+DzQsHFLPhNwl8SvyJFOVSzP3sDJdB3KC7VBTjywMCjtCcfESCilo+z7uMx1/6/zWMKz/A5UiVWR0LU2XjYzIFOa0a8sz0CTUEIdkhEz2dh5PYO4Ti+4xGEHU6Sb2w5OgPssiTMkVQIgZxDIKE102FaBP4s2fm0peQmm3X9TLDQ0zER7zK4HTNO2vbzZruaYpVyEZEhUxVGWJiNjdudV4Hc1YVEwSVYDOMsciG7vZ8uEmjUFKvwk0QkS3YRIKKWXfxzuneEqhCHF73DOP78k+akscywCpjRebrDxJv/eCQsmgNGhT8xBwRrNlgWtvks80zY0XzpyGAJI43+1FvOe+Y5FtYLOXLY7wUGbeYwAvqFxPktdOLfE5LF74qpzls2ta7Yk8Sgdc6vdvy9iL9b9N/Kyk2vY8q8CTH5LsFvr5DIGlDxQdFuGPCNrfCBKCSCTxDQv3wqhMCoEKhZsKWsgBWUMRUbD2+vMsFYGWjVBDxTpuGBMhUJvrHcXDnbML1MDotC5y3+rG+Y9hFz/MRgoKFCCBAC/RDALwiaM5gr9+KG/XulxC9ChSfuWbfzhni/iml9va6y6S2WYh/FYpm3QdOGDEb0O0wLyAydpOfaZtaDjS21l2eoSWom4AgQUQv4BHol/qqLtk7jpn0BgrOW21DLYx3kBfD+mgkiVgazYxHeAYsYk8UwyuCTFUFrBr6mS0IfBjVZ97b+pEIIEALJIACK5rzEgD/dYFrxu9ftWf5cMuelWkenK2sPHX8TEoLXmyIyhVKOpYpg5uon5tx+uqG1tjxzrVJLQUaAiFqQZ290suu5V9o8qZtpjc43I4zNDNuxWQiUPx8O+hUgX/Pg1FoJNTy0YQmC1c8TbHQS0NmEACEwJAKJ35p6EQtn3lC/b/m+IStm+MDK6NZbofn+EC02yDCwqTUnG1prkCuOCiFAUQdy9hrQ4SpidrhYKlEctiNjGLeLbMZLYGScwW1WjofATPiFVYCtaa3YTISrKNZL+vXKyB4z5LlP0oLl7IVCA/MlAt0kbZ/k4qoNLUuf8FrIldGma/F4+ArMcNMpe4bX6CeWRpnHS4rXHb6alqd7D7/veiSNmu+mJHmB6hY3FBhHzRlSGNPhVjINPGsGLIzTsQhyItjWOEzuGCjNxjEuxmOlJKLpixJDhHAIxAsVHSJ2dpvIWPLIU01CwD0Eus2dR4Uh3rh+19KWVHu6ET6jt+2uPZ7qef3rL5+3rdIU8hshUXhlXHb0P0zfXUUAL81Szm3cU/u4q91Q44FAgIiaz6dpyazmsaVF9hw4+s4FAZsLfddshKOYC6Y1C6LDWgm9mM7qDRaGLR00DNs900rkC7hQIQQChAB0aYiLZlnqoo17l+5PR/CVC7e9Cg/5NzW21NyUzvm9z1m+cGOxYZtfRv7Jj9Eig97IuL+NZR2Xr99d+6D7PVEPfkeg54nudzlzQj7tD9Y6Y36kLMzC8bEsbNixSBdDfKN4uIwJaxZ8wi4EtZoNxnUhBjwLN+xyxDrqZY7s1oJ1a8NyAhQaBCFACJxFQJM06FJWrG+p3nR2ZxobMF0+hpe739a31fxbGqcPOAXtfRmCfQIviYU9/qoDKtGOTCNQAz+1rZlulNoLHgIUR82FOVtx8YYJBaHQpJhtT1LcmIwkkZNx05x4iLHJJcqaHONsMo+xyTYTk01mTAxpN35EotQ3wISP2DlChkjjLkhITRIChIAfEcDvf+PMSVNH/XDGquxvmqJgIwjWCTzsvzTasaKNz62qbNqFO9N3sKL7PPJbGy2iI5+PZwbCGlEhBM7ZyAiLNBFYEm0uKWHWJ6CavBg3sdmAdBzMkmBePIJ9YWjJsK2wLQzHInnWGpnY6P1vmiLQaYQAIRBwBBy/NC5f6Iyx6Nb9NToo7ajLysomS7/7CcmWrN9T85NRN4gGVs7b9Crcyn6stf36pZKKiwgo9s2Gtpp/d7EHajogCDihGQIiq1/FjGmTAFzEqnGzvQwEDemOxEwIOwUkDDHGlI4rZpxbQdm9qjKhP8Ohs8zNr+MjuQgBQsBlBBACB75pqjZTJM0RV7EGxEQzpWDb4Gs2ORNDaNiz/G9xZr8ZJO2wXplKxT0EcD1Md691ajlICBBRG+VsbW+tioFrIRGyJmCadPX8jbJhOp0QIATyAgG9EltK+6v1u2t/k8kB25zdqo0mSNgOtmb8dAlr1ouORl02ty4/wLo6XymVelAng6fiDgKS8fPcaZlaDRoCRNQyMmP8cW26oEIIEAKEQCoIOOmCZPx+y7S+ksp5ydQd2/niPiRsf0LCRCmY+ZrS+dbXkzkvmToNB1YdBUl7j63sn+oxUHEFgaKegOSutE6NBgYBYheZmap92nRBhRAgBAiBVBBA9P9jksn/2rRrxelUzkum7u4Zx2wk+L5PryTVWQYkZzWroptekcy5ydRZ31p1rKTr6PvR9gNkBk0GsdTq4OFccPCV5YiFSSXfESCiloErQHG5jzRqGQCSmiAE8ggBTaBgmvz+htZlf3Rj2Dt2rLWE4PcnXDLgKMuNqYqZ1y1ZkhkTqJb51gMf6cKK0MVw+Php4h5IL6yZmktgWhiOFxNRyxSgAW6HiFoGJo8rcy9p1DIAJDVBCOQJAqYIw51V/qqhtfq/3ByysNQTStlHdR+JVZrqhuKW+KxM91k+6bz3gRCuo/tgRpEttA1JRC2jkAazMSJqGZg3ZZNGLQMwUhOEQF4goDVPlowfkae7ql0fsMmfBUU7ovvRmjWDh0Lc4P+Z6X7X7rjCOsWMD8MM+mMyg2YM3UIpFRG1jMEZ3IaIqGVg7hr3Vh/MQDPUBCFACOQBAlghHmNM1jUeXPmy28O9o6XmecRy/EdPP7aKM5OFV+r4jz37MvWpV8A3tta+F5TwgYRZN1Mt52s7yAKhiKjl6+z3HjcRtd5ojGI7JjuPk5/aKAD04FS9Os3gYYaI7QyJprV2Qfeqo3ZKvV+n60LcKWc/zaUHE5KHXTjXlWK3NrTW3uvh8HfDF07HDXIKFi+wEmb/R8/3TH+2t5pvwk/qJ8hgkOmm86o9aEALhWKkUcurWR98sPRLGhyXlPciOCEWFPDXIA0nFV8goA0w+A8O2/qBoZTFbGb9GX5Bf8GXv+PLQdtkx/H4srW4Bo8ZnVJNMHTCe85ei11vBaGbolPlwMfHMRv5YlgkRGAR0C8GNos/cKrVdI0kDQoO53txEePOpJemQ5+Haxr5RGtR1xX/uO2syl6tmldLZo0FMb1Cx5ikkjoCCH/CbWaPTf1MOiPXECCilrEZ5ftxU3oNSzz3M9YqNZQuAkrijbQLJGsHs+3vrd9T/YskW7of9W7XdVddtPVSFWLw51HvwlcKFqVBoZIWAvqFAWbHQ+Wt1W9cy7inzAXsbK9mZlqn1vMeCXPohFWVWy+tb6l+JK0BjXCSDt1x3cLNK2ybPYzXpfO0fxyV1BEQXE4CdjpvBQGYOnw5cwaZPjM1lTbbT34ZmQIz9Xa09qzblHkS27/F30diXfI8mJjengJJ69Nx/b7qRxpaqt9r2/H5UEg0QSFxhoJ79oEorS96rqDdSevcIJ6kx4sVl0fw6vAWr0maxisUU/sH4UlFkAkvlu6VO3Yte1YK9Q5o1F6me2M6ODv0dsoVi79IL4npwJdD5xBRy9BkKlNpjVqGWqNmkkVAPwS1vxluaUehsfgKjJRvaWfG2+tbq7+35cCyk8m2M1y9jXuv3d/YVluLp+3VStot3YRwuFPo2CAIaJKr5wrJ1l6AbicjiccH6cZnu7Qqi3Xg35rGPbWPZ0O4dUjyjt9JH40MvsMfgFe6Lc+G3bU78Qb1XpDCTv1bpZIaApi1yZOOzqcHS2qw5VxtugAyNKUyxruzE9DNKEOQjtAMaDEe/JqgxezO1aGC0ory1v2f39ha+1cn/+oIZ6dzGIE9fycEezMI4UP5pBFKB6ve5+gHtDNX0nrQYrG3CKlq8Ssp6F2n93b3C4+n5sHe/WdyO3GNWnhxqL0/k+2m2hZ+J8Cz372Jszl1r2wYl2pbqdZv2FXzO2ij/wMy9CGLqbaTb/WBl/bum4TlBKRRy7fJ7zdeImr9AEn3azgij8XtznRPp/OSQEA/8LtNKMeweONBJq0qkKfJjW3V9et2Xn0GefFcf7jrcAcvFrS/EaL8jVa1DTdpCXKGGifwvPmtlPI19W21l1vx0KNK8O9zbvQLD+HQOd3gP/CA+i40bvgx9SMWg3TnXBNJ1BvkVFd3dZPN0zCbX9XYsnyHq50l0zjHPPSCUzMm4DybdRa4TtS0eHAhuAXz+TMygSYzWefq4PqezE4SUTuHSH5uEVHL1LxLEcf7z/O97oWZajnv29FaCR02Aw+WJ/B4+R/G7avrW2ouX99Wuz0b4Ny984YzQp1+i2Txv5EZdOAMOJQLc4bVhT/H0Wvq26rf3NBWDS0kVmQYnXciKv8cnXuyp+iHN1a4wRIn62G6vgZWugUgOkWaSgxVNBEKG0XajPocvOTv0U5gQ9X1er8eD0JgPId+3wlz5z1e9z9ofwqP+z5FaS3nTM6t8X12u/gl1mWvwOKeNnrBSRLkxOU/udSK0GMlSchytRoRtQzNbIgrBLFkuDnTbypDkAJJzsJ4Xmu/sJg88z4VKsQqtaWfa2hZ/qdM9ZFuO+tbrzumeKgOZtCXaM7PoZh4CKtTNrfec4qF3qvNxT1HV1Y2fRkk5nJLx3vtLk7oFCb/IVX8n04p80bB+eVgbJeDlPdU6feZWDQCUvcCTN7Xg8JXYgXjDGjofHEv0+ORSj5nSPXa3mPvNwjPv+K3FNO/p95Fv2RIQ1zSe5+b247PKBdvtZV1ur8sbvYb3Lad38BkWXiMTJ/BncSMSO6Lm1tGRpLlRrgMxXEbPNLvXphlqYLY/dmHyWk4Yf8lxs4srm+rWbChdfmdjY+9B5Hc+zpFZ3OEjburdkOb89+Q2MqmHH7qG7GzftPOzAmNu2t+0ttXcFl002xwr+t7FF/dD+q4lNY9oYgZrW+t+UMJt6cgwCfCoQxWnOsiDi3bE1LFrm1oqZnS0Lr0DhC8b4R4aKFfYnVBi3j3wdb9M9fvqT002CiytQ+P/HPsuFsIPRf4NV3upUwwgT4DT7VVQxNxL6Xxd1+apoVFMTetSMTfkpJ0biNAcdQyhDCyHseKkVOPmG96gGrzpjZnQUP1JEJh/BrJnbfjpn5WG5Neq+6f1dhS+52V85veYIjQ+yC7+x36sAc9dzBlnsCD5WuNLdVfH0imFfRM21aAZE3W4mszJ7QqT4AlfBPhU27rNaTvGCJc1lvjprU+wBVmTXkvHBSbQNA299RfFd16vRDmSuTN1M+0swy/57hXnzrBOmQ+jPF9FeOBf50PizZ99kMoEfiWX+W1tJHC9rusztJt0IQuHc687bVcvuwPTNqSciZke96X8pFQniBAvCJDMGvtAVf8OVLpJw+oxko/5LV5U0r7MYtZK/AwXoxQGDf6yWw00ohOnTRXSBnfn4++N5qk4IF/QAn5T42tNV8bSNIYW3HxXeMRnmKJJuIJ4mX9n7L5mxtazpG0umjT1TBjvidB0hLXRcKMGL9TGfL1hSxU1ZukLUewVmhl/seWmhxD9+pxSVy7pnP9xmX8e1yof/ItSdPYcHasP5fVWi2kTRu/Orrl1V7Ct27nDXHLjn8I8/YS3S+HQx4zBPWjIcyK4WrRsdxHgDRqmZxjwY/0mHYy2WyutoXbkAReu2P8zEcb2moe8Ns4IV9SEcG3P1vVsWrBlrfBjNeGB09EPwDzoeiHbNyO/4Wdib1tuATjYfP0AsFLLrbhxil5/D9BuEDo+hbB1Xd6Fhho1gUT6m4hxbUwez/atyZjS6LfKzGVugn+bhOz9XvTcwx5/6hU1w0b2upa+8vou+9KYaX0QD6rMceyAmg72V+9lBmxCV9acXHT1ZFQ+E+W7PKy60D1pU36uMa1Ro1KHiNAGrVMTr5SsIAyuusMganWqHRrnQ5r0ybiaV3R0Fr9yobd/iNpegiro1u/XhfddtkQw+mzu353rTbZLscDPC9itCTMnfKn8Zh95XAkTYNkM2N5XHY8w2zr8vrdDknrwxhWRpuuU4qXazMYKO5fsXhkKbRtC9e3VQ8gabq9Ul72+QKzdHFCq2U4Wi0tz2B/egWm84drT9fX//XXLOk2By+ojfN1uwYP6zNPQb5W7P0hHqCvbmytfkMgSJoeHGf63jSgJIiaqhpwwIMdG/fW/Blx9b5MK6eHBltr1PDbqBi6Bh3JBwRIo5bBWRaKvyC586Am589euOqHHUwsLGaf2YsVcT/kTP6qvmVZW68qvtyEY9TvEWjhOxDudckICJPt9pXRrTNgDvwWTHh4pntvkktGztHW0aFSoAX5wmke+tr2A1UDnNQHtC/ZcZubb2jYU/V09zFgkyiLF6812YvsPWBoT0GP9qV4l/rJcBklkD9yhm2xiZ3qxFawj552EDwXjm+JAj7Fi/GPfsTpCiVQJBXiswgvBwXYW4LtwpCIhDVBSGgsdDP6T5M4/Kv1qPivyz4dh853H1rZxZT1EHbvtg27tXHXCmRWCFbBb+5p/Tt0htlLdIcaMzahbt7m1zTuWfaXXoc82RTSuBmJ6q/CS9wlei6o9EUggYkq77uXvuUbAok7U76N2qXxXlfZtNBW7NdofopLXQSqWedxB20EfJiexPbH40b8t5t2LT+DR6F+KgairIo2HYMy5ipogv6crMCro01fNkThZ6FFSvaUwNTTD3s83D/51MR9396xY21Sq13XLHoktG7npUOutFjxiubpZmf7yfp9q9tHAgJBjcXhRVP7hCs43lnW5z52XlfJ2e/t1vO8bGoxPx0r5B3x47zTLuCT0MmJrpgoLGJjuG1OjTN5Hi7JcVi7e1oYwsJayOdEuPAf7MyL7WPHl1qnY8ct+FXpsQbmuu2Po/YBBDn92eBmRg5SK7/f2FoLvzHvy6r5TVV4pdmAnkG4qfRGQGtzbWXvgv/nK3rvp+38QuDsDS2/hu3OaNfMu3NqXHTpB3oevwFpeqafaAqrAFUL1nJ+fX1rzd3uIO5+q1jR+SNoUk6sb62+ASNL+kFdV7n1NtT+QICf7X3A1bOK+ZSY228ilMan+hykL75HQL9ECl7w97gc0jL/qGDmm9e3VmHRgfcFRPLnBjeu6vFT9F4Cf/bo3E25OoEA355kkPAnCiQV+ahl8BrYP2W39gPJPTVKkhh1U7Q9MGD8Nx7qi/GG/oYgkzQ9bPiIbMBYlq6qbJiRJAxOtXDk5EdAbb6tQ1EEveh5RdgMrU76XyJpwZxNGe94SvuIDlk4u1gKa8GQx10+IO34tXCLOJa4h7jcWYCax70HPpLhsQESmUR1AQHSqGUYVJjKHkJ8oFfniiYlRXhguuJ7sUrpJCLM6+BWY3CBnWUqwMWCieUU6kgY0ARMTPeeZvu/u7117ch+TikKkqnqa+ZtgpbUeBJ+Sp/WMdNSaVeb6Q5WzvlwRBR/G/55qZzqi7oJ53zEPEMIDKw9+3RF676bMCZyJPLF7KQuBLRWHVhSUaAf/v2LE9tOWl8tb9v/uWzNcd28pndHQkV3BfG30h/PTH7XPqEIXzQhW9rOTI6F2koPgbMP0fROp7P6IwBnj4Mwlb164K2wf82c/F4KYnaZ47TcPbzEQ+HsezJg4Z2og9V8/D/gd/EHv6PQEVInQzb7LVfii5A1VaImWQv7zsrolr0Y73acX+rv8WJmtA++E8VeddhS7VD8TEN96/Kf+Vtuki4ZBDC7e/DbvAT5NgdUd0yOnK15YuGsr7Bd7PSACl7s6Oj6VUyw+yDjW7IVdsWLYabah8YCCy5m4rysmKVTlZfqZx6BYXThme8sH1oEMTmAh3I+DHXQMWpi1vOf1irqcBwJNNROuHh9TRjmJQhm+3qdMmjQBny2c9OuFafBXB40RcHY1fO2fDQd8RAI9V7Ed3gLzv2TDvPgp+ujJ/QEJukE5uv3mKubYbJ9G2Qua2xb+h4iaenMuF/PUXvOvjL1E1H/ZpHkfoJhi5p+hzz7ijAvnZLLb8DdIHjqZ5dRQpAYTdSo5CkCRNQyPPG4ER7IY552Fk1NAHRIDp3LEebOt3bE2VsR6PQz9buq9p2tFJANEJeHsYKzXQr+2TWLbg+lI3bDruqH4Kx9taViyGWpCWyfhYvpNDmqczSBTsyP/ajNuj4KHcs/x0rkO0Cg/62+tfb+UTVOJ/sSATzstUZtSNnidgduXfx/hqzgwYENLcuwal7e56eXGQ+GPWwXmkTbgp0/bCU6mNMIkOkzw9MrDfWEibXm2n6UzwWmlD/ZVvwDFXsPtGbL5yVj+FudjzCzCLn21Kx4Z8kNaDetfI7dPiZfu65y209tJbUpNJoxGZNuSKdn4jrX5p1Ssc/Xt1VrLUu+X65JoxfkipbBdkXU0ERNEwLOjYlYsbwKOVvrszVWHmefYCH2Lrooe2YAL3ZSkUatB448/Bz6V5uHYGRiyBFLPp5/b4P64a+TqrPjwPBuyeQbtHmzce+y3YEnaRiQE9+Lq7+B0OD3wquXL9xYPJpr5Y6WpXuQkaESCapuRDvwX0NmpWE0HaPpS5+b0N45ZGwvHsY3ydCZyfAPfF9Da5VOeUXPw9ECHJDzzXj8SYTnGDKenR6GjoSPqGqfrKtoyFpMs/r9tU/iHvI9nUeWSmJOgANp1PL4YiCiluHJX7dn+XP6zTRfinMzVViTpOzvI9UJfJtq3rmhddkfc278UjV1k6lFhgwllVZqJAygtfiBCnW9FvrXlTAPPxAShU7S8pHOS/a4Nm/q6PvQbv5OcXmtYl1XgKB9quHRVUeTbYPq5Q4CPCRexmieGP5F0rl3XciLI+/P5siRoeIzloxTuA5Mgn6egD6TRi2bF2SW+yai5soE2M8OG7PIlT6z0qjEzXSD4rHpIAD/2tBW/VBWpPCg04a22p/q1XIgPxFoHGqhKczIb6fxsZUvwyds47hS822x+OmFWN11lyaEiUUYehlGYilGKkPU5zv+Z8p6wJbWa9TprqsQWmRTY+vKI6m0Q3VzC4ETdvhlZNVCPLXhC+5dIdC11asuWp+1Vco6jRi0e2sNkZZL6PADDNxR0DSmpgZObBI4YwiM9JvNWEf51BBSotzHhflmpE7K4WHj1qHUT5ALE6s3jfHQ2BT2Hixu9AI3/EO7Ck5+d+fOG4Y1t/Q+z8/byON5J+JNXWOrOEKHmq7FNbpxwc/LztgnVwHA5fiBzoTL4xiEB8Hqg8S79eAYwYiJA6iBBxx/WBnyPzbsrt05eF3am68I4Bq+FdfJh/SVNFzRRL9Ldb1jQ0v1L4ar5+axNdHmmXFm/QZ9zHGzn4C0/UyooP1CpDLLiXtpQDD3jZi0mMCFqYDv0V7oRN7sQtM+alIhWr35bvg/vTtBIBKiabKgzW1IaP2AEuoHuULSEqOT6/CGfw1IE7NsvXqTfTKxP7P/3rb7HdrX75v6r+7i5gXcsN8M0+jrQMWiIL/ztLkZiwFAlLFWE0VrHeIy9g88fH8iBN/SsLs66bykTgP0T94ggPWDu/AOpQNMD+sAhtXJzFBq/ZIZzRdsf7YqK9lW1rVWPY0A4neDUn4c8upbSz6X0JkzRRMBwHP5DEK+jj0j5pt8BW+ocWNN3V43ncOH6tfr/VpjqJM8WzKG6PWJP22yi1mnvnhqjPm2xt012lE+Z0qoYMzvY/bpM3qs8Lj+qBemoca9Vbux8ODmkq5xy0xpvQmrRSvhEH49/M7uAkFGpgd1Kq6sj0lmvU4n1U4leXzOTEyAB1L3yoZxa9cOsxQzw2MD29H+oyMSLx1klXNzSslY6wcZFiGl5rhUt0BmTSzzugADs5Ab4/MahDwefL6/pbgy9avnb36TaRT/JiZHvB+60n8WG+1AqqVl8If6cRZlcK3rxYvvNy84evhHIKPX6NVxjNtfrG+pXetah9RwziPw8dc2F55ot66O2fbvZ+954nkvVkmvim55El5PFyQJbgceEv+SzQDVSH3VCJcD5ALNZVeSEWaD8xPClu9cv6f2wRFq0uEcRIA0ai5MajyUHxq1BHRI2A0tGsof4Kh8Ra6SND3AHTuusDDae/VCEe3jA65W88Foc4k+RoUQSAeBm/9c1VHfUtNsCnHjwejcr9VFN2dkRfFwskBXpl82hqvS6xgvxHX+hdGGpOnVYMqbPNz5yYSZP4/1CoqFlCEmpAwenZATCBBRc2EaO4oKjyUSC+f2jSURn0tpA+inEGbi6lxe9dlzmUjJdtnM0umWsIuXd0j7qp5j9EkIpIsAzNafl0rcD9/W21dGm7avXLjtVem2NdJ5Zpf8nvYjTa5A9ybEm00ZXpFc/czX0uFk8Fq0IXmZMy9D9ltUIWjxiahlfyKyIgERNRdgP+9oCYK+q2cS6/Bc6MAXTXLE55JPC8UXNbbU3KTDTPhCLJeFsEOxJxGe40ndDfwQw4jz+144XPdZ8eqyCNR8jiKwsW3pL6VUOn7Zq+D0+dDK+U2b6l5517hMD/eOA8uejavOvyVetEZuXZv5ESrxe3XR5vNGru1ODcNi38KCGncaD0arCJlCRC0YU5V5KYmoZR5T1jV2sr6jHOJI1ZNrxSGfWC0BhdJPTzFjzvq26kdzbYzDjQdJ2l+QTCXyleoHGFPXFI2T04Y7h44RAski0Lin9vGSLnkJ1jg+bBrhZTze8QI0bJ9adcnWjF5jIIRfT15D5azwRnQ+6961zLuFD70x67DlQax03qHdDvKx6HHj3kuLCfJx8jHm/LzqXZ7s/aXtsIupp6Fzcbknb5vXK1lBTKA5Ex+GmfPd21ur8nM1Flf3AXloTbEUi0cModTHvJ0J6i2XEbgVwV5PKXOxpbpuwW8uZIqCr6uY+iNioH2udvbmMZkYe5Gh7ovbnYeT1fprR37kAV14KNqUVp7b0cqsA+BC1p9Bq5afajU8SjD+siWsGfEUqeQbAkTUXJjxxTsewEOcP53sTdAFETLepF4wAIfeFzCwNzS0LL0t4x0EqUEVvgdzKzUN1+FJ8DD90PKF944q/2eQhk+yuo+Afgkqb3n847A5flwiwDKutwqEhFkbjojHtYZttBJM2f34CcR73KRfvpItCAmDqvz6lZVbtXnW8yIMfh9+bC/l2gtwUkDqV3+mytiM4ePfJdUWVQocAsn/SgM3tOwJjCX2+E3xQ7ipZE+IDPeMm/QfS7rKZm5oq2nNcNOBa66xteoIHpp7eh5ympAb9ktfCNxASGBfI6BDdSAsxrdtblXBTyzGFTdwrU3Gis2vg6w9tiq67RVrETImnUEkwoDwO/G7TinvK/o3IctttQs3z0in39Gcs37X0ha8LT6ZO3fVVNDQ+ns2vmwKEbVUUMuVukTU3JlJhfQ/h3six7vThTetJsiIuq19vnH5rQfe3uVNr/7vBfaXTT3O2AmzEK/zIgCu/5EhCTOMAG/cXbtdmeJyPKqf0C9/+noDWXsFzICPHnrx8Deuq9w4L50+G1uXPgyt2o5U/L7wBgpzf6gsbIufrZnbpCPle1qQuK4eJlhP+/RRZ2Ud8c6Ij+QhUTxCgIiaS0AjfdIJyexAR7zV+f6QcuaD5ZOmfWT79qpEviKX8Apas7awNkCPdk5spcYpszArJqFzQtBWDiLgqFIady39i+T8SmizDugXhO7grzBcmh+1Vei+lZXbPpvO2IuU8ZFUV1M6uW65cUk8xLYviTYPm4oqHZmGO+fJSdPqEybY4Wrl3jHnIlCsLMKQP45K3iFARM2lKVfSPAGWc9Kl5l1uVhvzmIypzn9paKm9bS0CvbrcYeCa16s/EeLgbKowIKYDU73z6kW3FwVuMCRwIBDY0LL0iVDBnPkIi/P3HrN7grSo6Yi/9mWYQ9vgP3Z+KoP5vjbjK/VRU6SmqOkmS4tLWPx/lyzxzsFdB52Gj9rdyQfsTQUNn9flrEwqTkTN59PkhnhE1NxAFW0KEdckLXBELWEGUYeZUFciPppe3UhlKASk+gU0Gs5RbRJC+ecJseILh6pO+wmB0SKwbuel8fIlS18FooQ0bee8tRLmdzEPpOtgXeWWj6aSSaChrfYWW3X9QqSwsKBnHIKHPlraJlf3fPfkk1tbkg8t4olEHnSC5WlcjEVWCSJqHqDtty6IqLk0I1bcOoFHd6CImr75gXAcUMJ8a/3u2t/0hmZFtHlm7++0DTJu8l/2jpVnivBYrAV9F2FDCLiJwNq1XJZ2ldXgt/rt3powJ5G6ziOgxLcN2/x5KtkNFGc3QVOXcrgd7YcL0+ltdfO3LHFzzL3btq2i38SdPMrniGrv47m6jVBAsHOI0lwdH41raASIqA2NzaiOPH3eUyfg+BoYoqb9XuB70nqqw7i0cXfV7p7Bw5xSjfhNfzWZ9d89++gzgYAl+UGE53ihBw9bxrHJP97znT4JAbcQ0At7GltrPm6pTpgtC852ozW7+j+Y4hcju8GDq6JNycX4k6zC4OGUtTW6LxSBF5Z6mF1fd1YQFzdE54nTaP5PvV+SXOzOR00Daymn+0ggEsUjBIiouQT0jh1r4UshjrvUfEab1R5pNpN/6Sxgi8cUMkMnhq6Lbl23OroNi80iTbghXiYs9s2MdpoDjXGzAzGdWKvj0YcN/dAKicLx14Lc5sDwaAgBQAA+pLdI1aVNj/otoVdxCFQx5+bNK6NbvnXjgi1lvQ722USoDsRsVq8BC+izP7UvvARm16bV87ZVpnZe6rUPVlRYGN1jqaxWTb0X/53hEHChZvhPMpLIbQSIqLmIMDRqT0PD4twxXexmVE1rp1yYTO7BO/gXwl3sBiQc/yVMoH/FEvzrkSoJL+VxHFf/Z3V17R9VRzl4spPfVPGz2kc9RFvFdLqPL+bgcGlIPkVgfUt1PUS7Hn9Ymd3XHKh91/Dy8PEuxX9St6B5wWBDaF0yH+9ivLJbOzZYlST2KR0ypFwK2bxqwZZZSZyQdhW9oAB31V09L0hpNxSwExPzw1NaLBKwIZK4QyBARG0IYDK0+xD0LCBqfW+eGWp71M3oGx2cko/BP2WsUHKLUOzLyCj3ar2iSxMOrSPCW/YpLCz4buPBlZ2j7jAHGwDJfQQ30LPx5bSfEMqFdZVbF+fgcGlIPkWgobVmg1D8Sqz+xK+67209LvHTVeKfubR/fu28Lf/cfwhHj07St4IF3ddu/8NJf+9Z0KAUf2DVRZnNTTpACK6Q+zN+9nc34Hgu7tC5hTkj02cuzu0IY+r7ix6hMh1OEQGO7AS4RfqTpmkapomYGo+b++ux4QSvTOxLjNO54XN2T8PumgcSe+jf/giElPEQ9mmfGad046eToq7q2UefhIAXCKxvq/6t4PL1ittn+r8c6lhpYGMzueD3rVrQ9Nre8kw9/Ny4CC8e2/u33/t4Ktua7CGDwgxlyt+umbdpairnplIXsh5D/cD4AKcytqHqJuYQSaSo5B0CRNRcnHJlW4dA0rRKzddlsBu0Jmm4Mbzc1TlOm1SoDIHAD/cu3Y8nIBLV9y34Yf2/VGNa9W2BvhECqSPww5ZqONmbWHmsXuivWdMPeoTgCENh/oe6ym3X9LReGOKvk6PyT+tpKfGp7ycwg14cF2JLXbT5vL5HM/PN5OYptJRXWn7nPq0YmT4zcwkFqhUiai5OlxCRgyBpvtWoDTd0hJrQBpQVWw68Pa/eWofDZMhjUq9A6/tTwk11Lh6Mlw15Dh0gBFxCoH73+3/DDPE2eJi+3JPmrKcrR+OFi5Ure5Ne0a33wxf18u4Atj3VRv2p20OMtSu4su5bM+/OjGvWEBREEzVoDvOoJF75iajl0ZT3DLXv06VnL31mBIH1rVXHoFEb4OCbkcZdbETf3GOy886irhd/7WI3OdO0hHlY9E4nhZFpDGECet+aRbfrjAVUCAFPEWjYtfRvPCyitrKhWevrfJHQoPMivET+oG7eljlIH7qkOyVVRmVM+KzxyrjR9fC1ldsuzGTjIdvCqnp9b82foucNC0NCbO1aem7nz7Q7I6UJd3nCoU47pBMpB6kgiOUJkIybbj3wka4gyZ0tWYuE+lV/nyAED9XivC9+IjQuW3JRv/mNQP2j1YcNxd+KBzxcMAbeg2AGHQPd2k6uxPnaLOpG0eQCLzHTsVjpt4jp9oZM9dEplH4BMjLVXnDaUewDP7loZnDkJUkzgQARtUygOFwbku8d7CY53CnZPKZlBbm8s6GtWjvJU0kCgdt21x7HKtlDfc2f+u23IMQLClYk0QRVIQRcQQALDB5lhn2N4upo//yYjhmU8VK3SFrPgBJmUKMcGry766JNH+zZP5rPkBEeg/OLR9NGEM/VxBe6xIogyk4yp48AEbX0sUvqTNwg9wSJqOFGYMWKx1F0/aRm91wlzPHPe/J+9uxF1gKEP2Gf7flOn4RANhBo2LX8b9D4LoIp8uWBCwy8WeqU8IHj46DX+zZ84364hI0ukbstpfZ7c1aqZwPT7PWJO7RS5dnrn3rOBgJE1FxGHTemvX01LS53OIrmnbyBUn52y0O0gCBVGBHo854Bjtt4+8XqtLK6eU1vSbU9qk8IZBKBhpbqZ2zOLsfSgRcz2W5qbTmkMISA2teVRK1fr563JS3CAaqCpTvqdWjnXO6s1AQJbG2QNMS45BWBHQAJnhYCRNTSgi35k+Ch0RYEjZp+07Zl1/OhotM3Jz86qtmDgM0LH0GiaFiN+/oCaV81PFVu7KlHn4RAthDY2FKzi3FZi/6xYrLvdeqlTAhUy0Cy3igFfwym0E/Uzt6szZhJl+srt05GUN0b3VgAkbQQWaqoTZ9CkEYtS/BnrVsiai5DL6zCQGjUDBHS7sRfWrfzhrjLkORk86Gu4x24hz7Wf+GIvrGiXOpm8M+cBJQG5QoC9S3Lfo21ku9wViVnmazhpUYvtPlGOCL+vDq6ZWkyA/5gtLkE7gQ/g/xTun9byZyWQ3UwaqUqcmhANJQkEDCTqENVRoFA/b53tSPwKZaSI6lm4qE9itbcO9WSsSNQqv3OvR5yu+V2s7SrhFtIFM0vcajZ2eE63ybFhbEYu7ae3U0bhECWEGjYW/PAqsptV+KedG9ChL5XrFdiaaIFvZ7+fz5uj1vhu/Y1LJD/FIsX/9Ismd55fNaTMrq9TelcpKyNGeM4v7RTxf8PwW+mZjrum1djHm0/CXLKy0fbDp0fLARIo+bBfHHJnkTSYw96SrcLR7ZHSjvGPZVuC/l+3vbWqhhuon9P3Ej7ogEfxQIgfMXaxffTi1FfaOhblhCob1n6a6Sa+ih81qBIz3bBulMkj4f7RXlIFP2Ihc4ciXfu/0XpHuvmQ/Pnfrmkzb61hMf/rDj/oyZpbq9SzTYaw/bvBL1VU4atQwdzDgEial5MKWdP9F9t5UW3yfehg36ph2898HaKm5Y8aANr2uxxhDw4m/fzbAXcXKGz+JdDJ46Wnd1HG4RAlhFoaKm9Bcnav2UgCwm0WtlRq/XCQBOwmE5TqlgRTJtv4cz8MFwy/hPbN3JmvMqWMRzyAa/sJXM2NqGHFNoEnI2+qc/sIEBEzQPcpVIH+juZe9Btkl042rSYkuqRJE+gakMhYPIncUgni+5TNE1DTLVy2RVb2OcAfSEEsowA4iV+UqnYZoObvlH569+LNm1qLZteeKA/dcw3KgkEMFH8NJekVcujC4KImgeTLbg2ffoT6u67cxxv1m0eQJHTXYTD7U9ggC8NNkj94DG4uG6wY7SPEMgmAutbapaDEN3v13tUNrHxZ9/wo1GWK8nu/Tleksqf7CHH5gVRf6BR8zXU9mnDOJxjsHs+nMSKWbXP8Y/u17sTSoDz9/XbTV8JAV8gYBhyBbRWewe7dn0hIAnhIJCwTysBn2fSqOXRNeFr9pAz82Czw86D2qcDglZNaWd4n4oXMLGMPwxmQ9LmHIOHzZWV294RsAGRuHmAwB27lj0rTF6DWwESnQ92BecBCIEYol4pq5emGUTUAjFfmRGSiFpmcBy2FWXKM1LFEWTSn4W8PzI3Lwgb/NehHnSarHMpV2euN2qJEMgcAuv/Xv0otP9V/l6hnrnxBrUlvPQhMYMk02dQJzANuYmopQFaqqcYluqAyvrFoR7gqbaX6fp4f+Yfnn1PJNPt5mN7d7TWPDzUyjTtp4bcr29aMqO5MB+xoTH7HgHe2LL0x0rZ/9U/gbvvJc8vAfHc5kTU8mjOiah5MNmxkN2BH9ZRHxsUjHbzhE5yTGWUCMAsAU6u2oZ2zOaRorE25f4cJc50uisIOC5QoYIx34L292dDX8Ou9E2NpoAAtGoTUqhOVQOOABE1DyYw1BUHUctmMuShB5lwTkX0CGHPG7oWHUkFAWTju18wY6hTwgZTiApPhRDwJwLrdl59xuiS/wp3tef8KSFJhZf+kjWLbg8REvmBABE1D+a5fWHpGf+aPjVVU2ElxKs8gCIvuuAG26FzKQ5etKGZVa5Z1Dx28OO0lxDIPgJ3HFj2LDRq12dfEpJgCARKGSsrGuIY7c4xBIioeTCh27dX2ZwbL4AQedBbOl0IOKfyy+gNLR3sBp5jsfiDmO+BB5w9OpgnmxOLWWRqHgIh2u0PBNa3VP8CQfA/FxbEB/wxI+ek0Bo165RdfG4PbeUyAkTUPJtd+wge0T5dYOlo1RZYsZLzPYMjhzvqvKjgpZh9unOobBQmD00VSszMYQhoaDmCgCVi347J0/cPrSHOkYEGbBi4Y5dIIYmoBWze0hWXiFq6yKV4Higa/D14PMXTPKuOGF+zsChxgWcd5nBH0e1tmvnuQ7ijIUaJwOJSLsbBoSoMcR7tJgS8RWDTrhWn8ZD4NFYsD0iN5q0k1Fs/BEoRQ52IWj9QcvUrETWPZtbgTEf+921QWSekBOcU4ysD18MX2BcUONq+obJRKObEFH0ruvKrLTwDKFATuYLA+tbav+J6bqBVoP6ZUa1Rw3yQTdo/U+KqJETUXIX3XONScL2CyrcaNR2M1RThq1fPu7P8nNS0lQ4CjppMcRC1wRVmibyf4UuWzPgWxVNLB2A6x3MEZrbs/xRCQvxjqGvac4HyvEPBRCG3JRG1PLkOiKh5NNGlHRIaNbAhHxeloOsRnWt9LGJAROPKFnLfcBoI7fNTXDr9ioAMiMTMcwTWsrWSx+PvNgRFhPDDpaDnQYXEOD/IQjK4jwARNfcxdnq49cCyk3BJ6vKou7S6sVVc55GrWxNtJkf3tBDsdZKtjmjN2VDFyf3K7XcOdZz2EwJ+Q6B+34pH4rLrewYnspbtudG5g7lUeuX44Gr7bEwb73EAAEAASURBVAtI/WcUASJqGYVzxMaeDYLpIK7sL4w4EqowLAJY2dkJMjakqTtB1BgRtWFRpIO+Q0Dw7+KFTvvbUskmArB+IMzPNE3YqOQ+AkTUPJxjOOTuHXoloIeCjNAV5+pfVs/bVjlCNTo8DAKWbXXi8OmhqjhvxIxN/cCFGycPVYf2EwJ+Q6Bxd81eUIOfQJFDDCGLk6PvHwL5Pr/IvkgatSzOg1ddm151RP0AAcX2a78lZ4WljwHh3JyhDLsaAn+ObsjpTZQwVAdI+WlM9jB+JJx1RcKvRQ8/Ta8XOosQGIjA8oUbi027oJwJaxJXfDYe6pOVZGOE4F1S2kcEMw9Jbj8XlvL5dXuWp5wmypCR/1WiC/cHXkYanYH4e7NHI++YPr3pjnrJKgJE1LyEnw+9EtBLMUbqS8G3CmTyYysrt/2goYU9M1J9Oj4QAcMKd9imdWbgkd57cKvl6jXYQ0StNyy0nTYCq6Jb/1XZ6hrGrEpDmZN1hgyHTAmtAOPMMMJO20ra7XFhPrmysmmnsO0fr9+z/BfJdrp+z3sPrYw2/dDg5qe0XysV7xHQcwpV2tRWNp80at7D73mPZPr0EHLbUI5GzcMu0+pK3wQEDxUxpTak1QCdxJSI6ywUQ68m6MYIBqRLCS5CYLQIrHjFtrl10S1Pgvh/B4TsjWhvso1F5pbsYraMMU2obBVzvut9qINckewV+KmvksL4v5XRLX+tu3hz0gGvQwXtn5NSX+PEE0Y7d2mdDx81xdnU6OJJNAFpARisk4ioeThfkb+37/ewu1F1lYirFrlidXTL0lE1lKcn20rgBopb6UiFsylLFt1OCdpHwomOD4uAYfELcMU9AuJ1XPtYJFd66vECwc3LwqGiXXXRppvXzGoe8Xpct/MGLBFXN5kUriM5qDNcS88cYqlNOty+f+R7TIb7pua8R4CImoeYr2M3xPE2GwvCyk8Ni37zloz/73WVTVM8hCk3uirAMLB6JIlSVtRROiOJelSFEBgSgYbW999b31JbpUL8MlT6/VBZMQZvQK8gtFlcdrKQiHzMKrIeWrVg29sGr3tur82NH1oyDvN+Utf5uRNpKwMIKMxVEYvZkymNVAbQ9HsTRNS8niGdWggLCgJUzreU+nhS2qEADcoLUWGdSOYJNtZQ5BTsxXzkQx8Vj+17GsTp70ldeYMA4phFlbhISXUXzKEf6q4y6HV8plQgTIf8FU/uhWSQ3mjXaBDQi9KMWOcFo2mDzg0GAoFiDMGAdHgpoU3bm9rb7vDtuX/U0f99cMXFP5rjfl851EOXDAk+cmRQXAulSAx6Xg6NnIaSRQSerbz4IrxUXa+zjKRbEqvSVcQUBbfWRbf+F9oZtLHtf67qUFzcp5TU/phUPEbAySSjVLnH3VJ3WUCAiJrHoHOlFxQM+oLqsSTJdqeYwcOlhqFuX7Kk2Uj2rLyvJ1gxbqQj+vroVFIgahcgRQ/9FvP+ohk9ALaSG7EaMzIEt0qpA0vG4GnJv6RXkg55oi1/i2NHhzxOB1xDQBNqLhRp1FxD2D8N08PB47lANOmAadSwdBErxuA0vLi4zbrFY7gC251ipvYd0Svrhi3OzZap2a3R+RQqZ1ik6OBICKyc37TMFJFL9WrPzBSsIdWrC5n6+orollcP1mbjntrHsX8P+akNho67+xJaU04aNXdh9kXrRNQ8ngbFe5J1B0mrphcW6Dyg7LpVlVvf4zFkgexOMKsEORFHTIroPAYZm1lWcJyIWiBn2kdCc/bvOhRHZgscLbkoxgrDTUO3K+4UwfK7HXooATqSMFHzigCJTKKmiQARtTSBS/c0k4unh0vWnW677p+n3VR4GG9xX142b9NU9/sLeg/8/KQWjSRWHMy0TplkVg76lGdR/jWL7i5C97M08c90gQ8aC4uCuXWVWz4zWNsGl9tJozYYMu7u00QN802mT3dh9kXrRNQ8noaYFbewsupEsPRpPSDpQLjm/JAQa3v20OdgCCB+GmeX6gfcSMWhv9CoyUJBRG0ksOj4kAhYp17Q10/mWVp3jxZCd3AlPl8XbR6w8OWOlprnEXexLakXkyFHQAdSRiDxkkdELWXggncCETWP56yguFA7kPwjqG+gOhAushasqavcvMpj6ALT3VpncvllEm+8IxfEQzKKzU5eoDUiVAiBtBCo37e6HSfqlAOulISmTkU4i39qsA6g2/kxTP2DHaJ9LiGg5wTkeEQ/WJe6p2Y9RID8YjwEW3fVEe+0TGb+AxqX+e69/7o7KE3WsBJ0/epoc8v61qq/uttb8Fo/vGidwTpLX5XwIUlGfsUK7fj5qIm4VPlZPjz7lkjX2PMKkJQozOJ2gRKswrDldFsY07i0QWJ5AR5MJpKMn0Bqs5eRYPwpg8ce7xCiPdQV76jft+oU6rimUQrCrECP+1f4kl2VjCZ3FON585pFzWPX7aw60bsNQ/B7sIL5c7330bY3COiA5Fqr6U1v1Es2ECCi5jHqnXZBvIRZh7VtLMhPFe1nx5nctnrelivW76k95DGMvu6uK1aysMAoRtTw00nJqVdvSWWWo/JDSZ2QI5VWzN0wXUTMVwibzzvNeSXrjCPXJK/AysUJgiFsiZBIk4NfiZOmqOfXop0G9K8H//EiZtpnjjHT/Hvd/KYHhdj68/qW6kdyBJ40hqF+BK3WVZZyTbGmsZ/ZdSb+Cmw82FvAOLd2KfsMrAUcz5Seuepdg7bdQkBJPg1tE1FzC2AftEumT48nIdraZuEZkwOaE30zFhdIwesXL76fCH+v6wj8oi6V1Xda8wZCMrNXEzm9ieThdYh6/ysjFHqQS9bMhPgGTDh1jBmLQL8m6Oj4MfuMk9JIbyf+dELxnqTinTjW4dRB/fEIJnWFIcwvgPD+atWCpk/kNHjDDO60Cv1Ia7vdLPBRHYuHRrR/H8ZJ2wZJezRYMSL7jyKA33EbtrmaEUDJSeQUECCilgJYmaiKwKZw51A5QNT0ezOihYnwG8uPPndbJrDJmTY4X57aAxO+JopNzJnxDxiI4qsu2jqtrrLpf1dWNsUQkLUBD/UrUW0WPhEYGN580NB2r2IbcPZwO/Q12HO+Jnlo6q3D1c/lY9tbq2JS2vVu+4opIRatWXR7H4e0iooKMETVFqysK7lwNYCpcTk9F0ZCYxgaASJqQ2Pj3hEujiplu/vq6570fVpGfDVVIAoRX23L2j4H8vSLDgwKs91YTSCSLdr0idplydYPSj2dyQJx9y5FZPvvKlP9I8TDn0QahpAb4WkccqLUg+r01HcGBR9X5OTmNxHwVj+9XWlek2kkVokeD5f10aKv3bHYRo8I5u1Ov64MJkcahd8mEbUcmcuhhkFEbShkXNzPbfkS7qRnXOzCw6YVj8EMpbB0f9X8pn/zsGNfdiU4WymTCMsxUHiY8HKoLL+o+YKSNnsLSOhvBQ9/UBMHbbp0w39Jp+ECOXkYLw3XNB68ojOHYEx5KFhRcQC+oz9yLVSGDgmh1OzSY+19iBrmV79tPKmJHBWPEeBE1DxG3PPuiKh5DjluaVy8hG5zhKj1AIh0M5zfdG10a95qNJYv3DgZICxOlYzoJxz0EIU9SAb9c1W06WOmGd8HHN6PsYyxlTsErQcnaOiwWJR9eePea/XvKq+LNn8ybjRAY3/SDSASmmIx0YyXDnx2KHUMc9HhRr/U5uAIaL09adQGxyaX9g78seXS6Hw6ljg3cpCoOWDzEDd+Whdtyks/obA0tN/V7HQuOzgu9vH5SaeNbJ9T98qtFSujTQ8aInwzHh+ejQcPqxdDXB3M9vj90n99y9Jfg/jvdMsMGTaKWEeJTvzerxjiZezR8dyoeIaAtnKrCZ51Rx1lBQEialmAXRmdL0GJkmMaNQ0kDB8w+2Hl1911lVuXZwHarHX5ttn3RGAVugFmuH4moeREwkM1rfOSa93VWo5T0qrKbf/C49rMaf5TwsTpap99GocAk6USr+yzM8+/yJD5CW0SdqNo86YZPz1gpSFXFogaJ6LmBujDtAmqFqlb3FAwTBU6FHAEiKhlYQI37VpxGsEpc5CoOVQN/+jApOwHCMOwNAvwZqXLaaHj7xEi8vr0/NPweGNM2weDWNTqeU3vxsrLn2LF36zUVrtmZrgguQbIw81r5jbl8MrZ1LBqfKzqMSmtWxGTLrUTk6itF79wIzQA6y7JTsM0mtc+gknAl/kqihewo8XjMt8wtegXBIioZWkmsHLqH87jOUv9e9BtUYhHttbN37LEg76y2sUHo80liCe3Uco45NBeI6kVrZLCow9+4MErq6I/ukIK1gTJkTkgO47k2m8K2qPx8TD//VqEyQ0eiu5ILCd3fQox6I66YgIVaoAGp6jrzBlcy+Sj5s50DtMqFt4bbOwwFehQwBGgm1q2JlDyJ/QDOneLYhacyENGpBlk7TNrczQoLuLiiU5mbQdRCCUcrdOZUSdLReCI2oq5zdMVs78PTVrWF0LokB8GMy5+ev7WrenMQC6e07hjJTKps09gmQ+C0Wa4yIFEbdrMuToVB2nUMgx1Es1FlGWTRi0JoIJahYhatmZOyCez1bWX/Wp/JfisfeXpo0fq165dm3PX28Ho3E9Bh3blaGKDJaK5qyNezksm+jJC9i0IXntxtjRp/ceAEB0I06begwUN1f2P5ev3pyZO3YZVgb/KrPYeV7waSNTW7rhCZ10houb9xRbhgpNGzXvcPesx5x6cniE3yo44M54YZROBOh0hSZYf2j7nL0uizeFACT6MsCsXNF2OH9B/o8oolaNIpc3ks8N05btDCGL7TmSluEaTIz8VaPdC0E/+640LtuRcAOF0cN4B8iRPFyyDtvd4JrMGQEU3wPTpyKdo1Wc68zTKcwpsJkmjNkoQ/Xw6EbUszQ5XAhq1UT7fsyR7Ot1qjZPgoctKlL2vbsFmJN8OdqmLbrsMLlm/QL7TUa/W1D5EyPYZGOK+hDVr5/162/HJ89c8avOzgUUdnUrO85dk2ZOm8eB7sBpTvRFm6pOZCISb8AkcnKiBJB/L3kjzs2fcP8LQmpJGLYenn4haliZ3feuSJ/ItgbFeEYgxV3Ap7uu1yCBwbPW6BVveDmr1K/ilFWfC7KeJGnBpzdKlmHK3xVHrBix+GJ+JsafceRInYFEiQkuZdUlUzZsqja21j3GulmB17gl9vY22YP4HXU4K6APnazlaLLJ9vibfCMSSU5lNso2p3/onopa1GeEKWqaXM3HTzNoQ0ug48XDnU3BzwSKDpq+iCdzbg1PqFvzo7bbk2mF9/Gj80npGrOc/Js+0K7MzEPGnkIy7CI/59+Fv9E/7HhAy/KlfCHBRvTvDzQa+ufqWZb/Gz+39CK486lAwSCM1KFFDWB4sKMC/VDxFQCo1SWu6Pe2UOvMMASJqnkE9sCM4Pu/NhCliYMt+36Pv44qZwvz0yuiWu1ddtHWa3yXWvnVwUr8WNr9fgFyNyZi8iNOCsjtsTBz1wzNjMg3TUCxWdiEO+9qsqF8GwkbhpBUXb6CI7f3msqG19t6wCL8CZOqgJlTab835g1ZGB8hNvDjqa1Jv4T/sd/5QT+9LFIeHDUrUEmFmiKd1A+XdB2cTWVQr1qjkIgKj9q/JRVC8GhNug3twk3wNY5lfPe/VGEbTj3ZEN3j4HZYZvx+m0M81ttVuH017bp173cLNMyzbuskUBUstmdlFbfohibyMj0wr3RkIosZkPApfw/OyEdg2lfnV2k7TKFiIc+5P5bx8qLtu9/v2rrpo/UJpFH2acfl6jPkogtg+DyLWDjoG02ii6Li2eJ8aDz43GXumYjtqGpFpWOnLbN41+E1L8NO4oLtboA8vENA+g3jfm1gWKdTP82DcR7wAJof6IKKWxcnEQ3qPo1HL4/uareJ4kxdzoQXZWFfZ9K7TylzlJJbO4rz07npFdMurbYv/SHBekWmSpvtxzHRcPLR2x1p/LZ/sDUL3to4Zd4jzS7Wmxe9FP7yUsCv8Lme25Kvft7p9yZLmzxc/frq0rLC4a+yf27owv4NGLNba5HBXrKCwiI2xVdf5ltX1OVgDELB7YJFStQsnLGAALpKB4gdzD54fmLhJp0+coOd5MGdwRKlpYkeEyL0K+H1pjZp7HQSkZTg4a0kLELC0toRZr7k+2vy+l1vZ7u2savC3dg/G9eHZt0TaIxP/O8TDn7RYXD/23er1GZPzR91qPJPtti6Zz0va4q9SfNDneSa7Gn1bmC4lZcnoG8rdFrZvd35fWBE6fOl+cdKampP4exZ/Vw11BvTDWPXpfyI/lPzB3a8mjSl0KblrcEHJGcmJJWRxKmFF2wNtUhYl8FfXiRAexoVwnHm0JGp9s25B08XZkFDnrjwVmfg3k4c+qbMruLveQf39jpale7IxzlT7PHq0DU9gPkvnevR/QVopQxT7X87ckhCrl1/KrREFYTTaRs0ndnaESPEShOlKQ0aa2DRAy9QpZyLimbDPAoZmamzpttOzkhKOzR+V0n7/yvlbN4cKT35h3c4bXE9iv6KyaSFo8/9Ixd8MAh3RZlk3i/b1iavY19zsI5NtL2aXs0PsCBz0g0DUIKXivjcnZ3J+/NAWXBigUaOXTy/nQv8a4etbygpiBLyXwHvYF02sh2AP6Go+s5E0+cUg+PwMkN3lHd2E7Tw4Mv97rLP0eF3lls8gNETIjW7rFjcUrJq/5Tas6HwEgQVg1lGRHsLoRn+6TYOHsITEat7QuuyPbvWR6XYPt+/XNq2SQNA0vZpWKtLuZPoiGKE9y5AvQr0TiEtkhKEE6rAhQqxDSVrlHKhZS15YImrJY5X5mok1jgfzM0RH8nAicEA4xAu+Eu8sfQEhMj6/vHLbPB3PK/kWBq9ZF20+r27+1lX8aOQ5wyj4AAizK0Swf+86DAJMqk+VK3N5/2P+/+6ymjFDAOiXH5jQn8tQc9RMkghs2rXiBdA00mQmiVdmqsGDFn6+ISZmZqY9asVvCBBRy+KMNLMl2iv7IDnfDj8JOi4WNI/aD2OcKSJfNJX8S7yrdHtd5dbPXHvxlkXDnz3w6Mro5vnIVfklwezfIZbbet2ubt/FBQO9hODMVvZxIXjt2taqQC2ln1aKxbmMnQmCq7jOnmrC17EX8LTpEQK4Pv5OL58egX22G/ipKVZ+9itt5BQC5KOWxenUD7yVSkGjFoRHXxaB6u5aEylNqFDGIFTn22GifCs3+Kfrolt02ppHsBjxl4qLlrhpP7Vl1zKsTlP8w7NvDXcUlI+Ly/ZKzg0kUVfvAtuoQFtYEciF235o3aL3+tCOv/Lj9buX/bnXzkBs7mAPsAo29xCu14V+jpWltWkx2dHZ0FqD2GBUvEYAv687TW6+OrEQx+ve87M//TLLBSeNWo5OPxG1rE4s0kjxzQcRngGcIquCBK7zbu2X1giX4sFcijf4q4VhXK3f5MOwea1ZcBcO/YR1sfOhW7ERqb4ALktInoNAqOfA9g50TR4gs41//rWhbdmGwAEOgSftmI+Qp9bjCCmzUD8Y/FpAyBGaI36vX+XLdbkKmfn9TmV9PWEp8O43luu4Djc+vRIb/xFRGw6kAB8j02eWJw8PvacDEe0gyziN1L320dDaMa1xiyPuSVx29PrrxP5YIrhsFhixJo8gNu0Yw/KGtprb8RlIFep2mOphXtnp95AyeqEG/AC3jXTN0HF3EPh+a9Up3NO+oH0xqXiDgPPiSqZPb8DOQi9E1LIAep8uFX8ZBIOcb/uAkjtfBEJw4G33KJjD1TDFbe0eWUDVDDA4C7FTk17/FifJ/QvId/En/8qY+5KFCoq/gawbP6OA3t7MdbeGmzRq3sDteS9E1DyHvF+HXGta1IjRwfudRV8DgIA2d2LhwMOWEb+gYXfNAwEQeUQRuRJPopL+82WB/xxQ5z8rKDhOKz6zOEPrdl59RjHzBmi6D+sZoeIuAokg1OSj5i7K2WudiFr2sHd6FkKnZSGilto0+PnGDx0CtGgo/1Ccf66xtfrVCFlwOrXx+bf2+taqA5Dub36VEMTgpJJiPQIkuxut2K8A+EiuxtaqI9JQ79Rmf1oF6vbEKBYSBXCEhYMulZxDgIhalqdUmSFo1Dhp1FKaBwXio9/T/XX5at8oA345ksVvUVJd0dCy9CspDSsglfEk0P5f0m/iavxxXaxv3LP0L36TLV/l2bC7dqetjPeDrGEVD3EIN68Dbf687hWbKtzsg9rODgL+etJlB4Os9qqOn27H/et4VoUIUOf6zRwU7X4p5KW4MT3vB7KmKaP+z1L2ncqOV5S31Hy8cU/t4wGCNSVR61tr7sSL+wF/OIvrhz8HQTaBf3xXQ2v1J1IaDFV2HYGNbe//FUxznz232tr1LvO0A7i+Sl6ep4PP6WETUcvy9DYeXNnJJWnUkp0GTYhw039Zv6m/bb45XTH7yzhX+0zFu0lcsk2lWS9ByhIkhSOom3oahLEJckQbW5e+b/2e2kNrGSK65XjBys8PeDfEBOZ6fjXu+IbFNxw5JZF6lKk2RPp8ACm/1sVL5D95JxP1lDwCXJ1uDX0D9e/1w4tV8nIHq6b2U4Nf4PnBkpqkTQYBiqOWDEou15FCHcF6OrwOkX9BMlDDXxx+fYxVba/SQdH+a82i5m/EuuLvxI3qLQiEcQV8NWZoM4DO15mJnJ0OTQBB0L5niTbjexAS7Q9Ssd/EBH9ga0v+BVatb33//Ssrm25HpogbuoMQJzN1KdTRvn6GoynTjx/08QQ+/o553YNGHodG70kE+Dx4ap5xeHviOkihbarqNQLbWZVdHW9aVmDKh4UwKjLxu/R6DH7vT/9OYGAmjZrfJyoN+YiopQFapk8BEXgaWgFEY2UUeCgJcPGQPtG72rqdVfr7pg/Pvqf5VOmpMZ2xjkoYSN8Jo9hbTBGOatOYjrOmb2SawOELPnVJ/Otsaj2N3kisGsQ2WnC2hY7LdgLE7E9xZf3cYOavBTtzzCiw2+vz3mGdf8WWsSuAHHJL9cYygWg6/2qtmfY1c+Lesfg9th27OyzM+2y74OUJZdaZm/9c1dGn3ZY+3+iLjxHYur/mxRUXb7gSIu7BjwvWnMxcMz4esseiIeuJoKC3HoPuSXdE1DyBefhOuIT5DHmFwBJA1OjmNQJauMcrR6PWv96tB96u80sdxd/93X9sMVtrzlow9zJwsyiI2DzcyuYC4ongYOMBOLIaOOQY8KuXgXwMWrmDIB6HEFjjKSbFHrNT/KnhyZo+xLB/v/n6vaGl+plVlVs/DTw3AgOk5Eq9aHoMkgfoOQiYOiWleoDJjjsa9i77deqt0Rl+R2Dj3mv3r4w2rYKcjX6XNWjyJUyfbGbQ5CZ5R0aAiNrIGLlfw2DPaEud+x3lRg94sOvcnkmVHWyttWM303k19R+VDCNQ31J918r5W78Ic9ZNOkVXMi8aWltpCK0164phLh8C8/4Dt+XvzKJTD1BYjQxPkA+bCxW0N8U7S68ESa/OlCbWh8P0XCTHWsBUuecdU4euI0BEzXWIR+7A6jKfNkKW1KY3qBaoDIOAgxEXlMlhGIy8PtTQVv2NuuiWF2GybEiYmAe+c2jNmc7BqVdnwpT8Akyad8CcfKcQXQfXt1ynFwZQyRMENBmve2XDB1kscjksoNMSBCNPBu/yMPErG+tyF9R8FhDQzz0qPkBgVbQJ8dRECd20hp8M/aCXdvy6+j2164evSUe9RUDxVfO33YA1MbegXx3QrF9xKPa9UKZ9NVeyNPQbIH1NEYGV0c3zDR5p1Tl6qWQMgaOhDnPOuicdv92MNUoNZRcBOHRS8QMC0KRRLLVkJ0IYdGdPFivP6nFV31b9A6iEtf/RMwYPax2a7v0JrI7djBeQS5Dr9K1E0jybEN931NC6rM2S8Y846wp8L21gBDS6is5MDIy0JGhSCJDpMymY3K8EJ/c9gvPztVs1leEQ0M7nkojacBBl8VhDW83m6+c3PWqx2PXQnu2BBvTXDbuqnsqiSNS1jxE4zc3bi5n1RpD6d5PjR0YmyhQyoonaExlpjRrxBQKkUfPFNDhRIfZSMMjkJmOgB1Ry51EtbxD4YVtN66n55r817K5edweRNG9AD2gv21urYqawPoHXr2PdGtiAjsQvYitTCkYaNb9MR4bkIKKWISBH24xS9j54W4+2mbw432BqEB+ovBh6YAaZCEKrgzhTIQSGR+COXSuekpx/ku5/w+OU3FFuIiTnpOTqUq2gIEBEzSczJWH6pDfKZCYDyZr4YM7qyZxLdQgBQsCPCDS2VNcjvMsPkVXEj+IFRyakvQXhJaIWnBlLSlIiaknB5H4lURQCUaPpGAlpR0Vjs/BI9eg4IUAIBAsBrOb+T4Ru2U2LC0Yxb4ob0GOT6XMUEPrxVGIGPpmVxoerjtAy9eQmQ5BGLTmgqBYhECAEkLXgJa7EfyDC/pkAie0rURPOM3ycr4QiYUaNABG1UUOYuQaksv5BWrUk8BS8NIlaVIUQIAQChkB929JfIu/xNroPjmLilBq3JNpMVodRQOi3U4mo+WtGHie1/0gTAuOnZGUj1aLjhAAhEEwExpWaH0IIniPks5ve/CEX8rhwV4yc/dKDz5dnEVHz17QcoJvTyBOiBBG1kVGiGoRAMBG4+c9VHcg19m5TRII5gCxLjYVp48KlYQIvy/OQye6JqGUSzVG2hQTFB0ijNjyIOomzUIzy2Q0PEx0lBAKNQMOu6ocs2flDgZRxVJJHQC+2QpSnsSxuk0Ytedh8X5OImp+myGaPk2/GCBOCOxH+nzxCLTpMCBACAUcgbllfhd/uQVCPgI/ES/GdG+Q4oQzSqHkJu8t9EVFzGeBUmheGpLQfIwKm3xnV9BGrUQVCgBAINAKb9q14iin1PfzeKRlJajM5zlIWEbXUMPN1bSJqPpoem4dOxWUH5bEcaU44Oa+MBBEdJwRyAYGGttpvYBytZGlIfjYNHoowQ5HpM3nIfF+TiJqPpigkQl0Q5wVS9Q89KVqfhrdss+6Vd1GsoKFhoiOEQM4goISspXti8tOp/foMZUxI/gyq6XcEiKj5aIZsw3aIGnlkjDgpJus6Q2lSRoSJKhACwUegcfey3ZLZN1F6qeTmEqFN8J+akVxtqhUEBIio+WiWYu2xLpC05+ntccRJCSH18LQRa1EFQoAQyBEEzG/FZRcCgtNr7MgTqhAzmIjayDgFpwYRNR/NVSwS7oRp7wW6Fw03KY7xM4xXRiJqw8FExwiBHEKgsbXqCFfyDh2eh8rwCCAFl37Xp/vj8DAF6igRNR9N1/bWqhj8r+CjRmVYBJDrE4mH6UY0LEh0kBDILQQsbtdjROTDO8K0ajKL+yOZPkfAKUiHiaj5b7aexxsRvTYOMy9ccQM3o5nDVKFDhAAhkGMIbGxd8TQMn5s5IrpSGQ4BR+9IIYyGgyhgx4io+W3CBD+CZY0xv4nlN3kU59PrKhpoCbrfJobkIQRcRMAsML8EZ3nbxS4C33T3ez5p1AI/k+cGQETtHBa+2IIqDYsJmF79SWUYBPBWPV0WjC0epgodIgQIgRxDYN3OqhMY0rcpD+jQE6tXfRrcnDh0DToSNAQokZrfZozLI0wJ0qgNMy+OXVipmaKgqxTVXhqmKh0iBAiBDCLwwWhzSYzL8y0ly+Gxfj7e9M8DMShDBt4xyME7Bol4y+C4EcFv1IaBsh114C7FTnKm9klb/WLD3tqdoxUnZNvfRCijfxttO7l8vuAhduOCLWW37a49nsvjzJexEVHz2UxzM3wECXW7sKjAZ5L5SRw8Frg5jcXsMkh10E+SkSyEQFARWBJtDpda7RELNyERCk0C8VoIM9oCuGIshKvBAoOZF8S5gQWFgpnO6svEGsyerAHKcR2DIzs+NTvrWb0unA3OwuHwF1dVNt1lRtrfv27nDWlnYDkuIi+VKOtewY0rpSIr6ODXm8LtUVTgGBG1wQEK1F4iaj6broZHq46ujDalfRPz2XBcEweqfWbxOB4i7FHXOqGGCYEcRmDNottD8c7iOUzxOUyIOUrFoypUdLGh1PwQKxqj2ZbiNt4ZdQBV/AdSlBIx6n7X7HnljNmWfsF6j9U5Zv3axfevWrvjCisdeLE6Pl4XbfoZmOCV6ZyfD+doCm0rqxxjpfvj/2fvSwDkOKqzq7p7ZvaULFuyLF86LHStJNvIxhCOiCuAHU5HG2slS7srWwZi8A/hCPAniIQkwB8CiYEEYWlXsnZXSBiSkJhAgq2EgCFG2Nia1WFZlmVZki3buvae7qr/ez27Omd3unt6ZnpmXkm7O9Ndx6uvuqu+evXqVRk0OBO1SDaiPAqxpmEmG0npoiCUO2BIuRiybIyCPCwDI1AKCKxq2HKxI1LvgdbrnfaAnAuZL4HC6xJDmFVCGiBlaS1ZSvXlpTpKu9zsvfuOHno1CvjfgIWAO+odyrBPIv24gHmUeTKsOhjmtDKvZMVUj4laJJta78Vywo3pLjOSAhZdqOGZ/TuLLggLwAhEFwFajNQt87uuglLsdilVk5CqwdBnCNmI6MMEauRrXv/i0PBx0nF+F6I9OrxI6rs8Uxl7taGfR0ImahnQI8KNY6SmZbjFl0oQASZqUWw0LZ6SBsxvWaE2autQNxQ366asuHbDFRt/u5I6bA6MACMABEhrph17trLEG7B6easlYzdhGyCWwlJYulRFx8idgEp945IlW42tW0UgI7P1u5ceam3o3IcukrSCHM5DgDCW2rVRO+8Ofy1FBJioRbDV4M51D4xDIihZtERScDdnOLElkOrr0ZKMpWEECo9Aa8P912ptLHeE/SZpyutiMhbHYebCVtHaRE6TLLCIqRP2HSP3UIGIGqELkkZLp7fQZw7nIwB0JJnPcCgHBJioRbAVTWXuwS6rCEoWLZFgLAuB9B/gFxO1aDUNS1NABJY33D/Tkua3lIYGTYoqHFyOzkNHjqCdDQmW5nIeewxT/K+DvQ7YVUrbHs7OvuI/09InyPC0igeiTACgGQ2HiCEgq4w9fExK9kah3WgYlF5Du9eyx+YYjEB5IXD7wh/XYof4F6uNmqdMYb4d7KwaNXRJWpRrindWYPtnzk69U0OpRyNf2aI1BIiaFuwQvGj4h1swE7Vw8QwlN/K+7Sj20OEJTOy6sAfq3+MpLkdiBMoEgRVzvn+J5bz8gGXEP2erQX9uM4qOAVE1ffDYjAk5Gcxt3LWSnF0fdRWIRa9TNAW4Y37n5GhKxlL5QYCJmh+0ChgXqvynJbbLc8iCgBYmlAjvzRKLbzMCZYPA4sVrLNPs/xz6h3dEzf7MC8hE05QSTzVs7c55vRIatcdGHO56KbuS4gAbYWs9pZLqXK51ZSYQ1ZaVejd3QN4aB6R2wQcXbrzUW2yOxQiUNgKzTi2YJIX5MdcOqQSrQpsJ4CLk12vEmpw0alR1YLCD+8nMDwFZqeEcicsy3+WrpYQAE7WItpZUYpfBGjWPraNnDTnWLI+RORojUNII2AODK7HkiTrkrJAqCg7wgXgEBgv7QilcgqjxxqsLoBx+MqQyBGvULkCn9C4wUYtomympd/FM0VvjmDJeA69Bi6FZI20/B0agrBHAFpo3p3c8l2g1tdhbO3jJrjCkt6WZ5H4yE5LuPliptWSilgmeErvGRC2qDWaCqLFGzVPrkK8ohKa7Fm3Pecu/pwI5EiNQRARgiJ8oYvG5Fo11T/XgvXtvznnXJwliavNgrgKVa3qatUqtmKiVQQMzUYtoI9opsTeiokVOLHLTETdr5uqB3Q2RE44FYgRCR0C+XMKq4/6YU90eFiS9Sez65DAaAnhMDLZRGw2dErrORC2ijaVTsnfQ6YNL8RLukguIrQMXBSkh/28Bi+SiGIGiIACN2s8MWXrKY5zxCbzkxrU7bz0cFnBbRaOTUgNkNx9WluWVj9QXlVeFKrM2TNQi2u5DCZz+IsRzrnPIiMoYJbHIZgceym+9feFGdvIYpYZhWUJHwBb290PPtAAZktWUtPs+HX5R+hjTtFFQ1bJm9aIf1oxyly+XCAJM1KLaUCeEA5L2HE8UfTQQdn/FHOtOHyk4KiNQcgiMH5z4gq0H/smA84VSCaRNw6mj967fvepUHmSGd3Cmaplx1TX9qWN1me/x1VJBgIlaVFtqPPo1qQ+yRs17A5FfKfx7q/cUHJMRKD0EyBDfUfIbjnb6S0N6ic4sdQJc6lv5kBfrnjn7Y8uHXBHJszamTSZqEWmMoGIwUQuKXL7TJaFR0wI7mnim6BVqQkpL4wWv8TkeI1CqCGzoXvpT+F74pglbtahP5oZ7sO9Pe3LPnnzgjfztfORbDnli4lqHYyDqy6EulVwHJmoRbX0yksU0kW3UfLaPIXSfzyQcnREoSQTaupd9EmcCrxWRduODrQ9Cn3S0WB/GSQSZGgol8Gw2EzC4BmfANVpabLc7Cj6lcpmJWpRbSuujCkbyHLwjAHPl0tsO5716HJMROBsBCbJ2F45kugcXX46izRrJBBb14MZk0/+cLXiYn/HOjyvVUxrCxCFjXlrUCs0atYzYlNBFJmoRbixDi2OYjfZGWMRIieYem6LFpEgJxcIwAvlDwH3k23Ys/XvsPHoLjmb6n5hRnb/SfOeMw9e1PWhVWR/0ndRfgjoXCH9pKiI2lsYtnGTBNmol3tpM1CLcgI4ljkG8ngiLGDHRqLvW7OAxYq3C4uQfgY07mp5oSza9MaX6vzLsryz/hWYpIWZUQZumV6/d3ngiS9ScbltGAuMYU7XMIBo4vUHR5JWXhzMDVBJXmahFuJliQ7FXIB4TNX9tNN5fdI7NCJQPAiBrn7bF0K3QxO+R7rJjccZnOv5uSA389JSIbc4nustmbhoXxSXffNbZX95YGBfmZNgHFudB8Ccsxx4FASZqowAThct2dS9r1Pw3RNWymzbBZoUDI1CZCLTvWPZ9GJG/TWvnK1pqpxhEBse6nTQM/adbk404XSV/oSpuXkNueThkRgCEHTfUZckl85ioZYaoJK4yUYtwM7U/3nIcW+9Zo+ajjdAb1VmnjKt8JOGojEDZIQC7teemJpd+Bj6g34hTO54pJFlzy5Lim+ufbHok38A6hpqeJiP5LqlU88dWC8OYPGHfMR7rS7UJITfvkIt442E+9FLERYyUeMCrVhjGFRAqGSnBWBhGoMAIrBFSiScFkaUZzfO7/hKua/4Phu28HidEJE0r+6fYjfrZQlQXNZwhTPZ3OxrWrq5Rq8uODUxgjdpoIJXAdWbZEW8kzBafibiIUROvHkMFa9Si1iosT1ERaN+x9HPCVq/GSth6CHLSMuL4E+7YTQfFY7n1f1Xf5b9fqMpCW7SQlz7HQNtdFpaTLxusC7exxyiSb4WPABO18DENNUepJRM1H4hiRi+1UnOWiC2lcxCij/pxVEYgKALrd9++e+qlU+5yHOPGlBr6EmyXlCnjoGu5DwO0eUCp1G8sYS1p3//mgaAy+k0HknYjmctzGA0BTPWlmHJkoCf3Rh6tCL6edwS48fIOcW4FwBgYRA2HSXHwhIBrryLlgkkN4hyHUtj1ZLQs6PxdT5lwJEagTBFYs+3N9sZdt+1pTzZ9RtrGVY4eug9Ehwz+c+hj4IRDq/2GjL19bbLxQEGhk+JVrFEbHXHqD+NGdXXVxQM81o8OU+TvcONFvImgud6HPpTV1l7bCYABrIX9gz3nELVnG2Z9QivxHq/ZcDxGoNwRWL976SG487gzVnWqTkv5YQzqP8EPJobCJl9stJRJNmekcaPzRE//g/aMrqfPGSWn3GJdT9KauS7ZSO6EChbumL1xOl53jGE5cMyCSVu8gtBaAgezTy6eBFxyrgjwZoJcEcxz+sTxU8+kJvCZul5hphkkHGBOsWscslM7eiad/hx69H8+850/MQKMACGwdvtdKfz5R7w7326Z2zlTG+Ia+GKbLZVcCGX+NTC/mIKp4gTEoYm9DQ3WS/jwHDze/9w09I+wu3M7rhc8OLHYa3AwPdO0LMhD24kNHnIaomHSP3ponb2uXljV12IF51pQ33iPML8D9yrsdWB0yAp2h4lawaAOVtDaQ3f1tVzc1Y+1hXM0RMFyq5xUUlmkPfsN1bi1oes96HjG4Yc3GVTOI8A19YkANGZa7BRPIRl+9I/XLN5mJo8eNWr7eo3eKbXyStw4+JwQl1XVqSOJHt2Q7LbzddC6F9FBGF8L7Tn+s0ZtLLyIyhpaTTs/Tuusjhk6Jm/C7d8FBV8MzjsVSBpYyCZekKwyBzrwl4na+cAV4TsTtSKA7rdIzBqfgjMc7G5io1kv2NFB9kqpJYi7xo0v1buGV48nLZ97/5RNO28/7CUfjsMIVC4CUq/ZJuzT9d9/+tPpD1tPfyrOBzJxKE7JpVUqzoAVSpo3tM7vOoaNVovhDPm1IGSvsXAuLG3EoHFFCQeVcs1GhiunJ1oqliitmpavtEzUSqBtMSPaCTuDhby7yVtjUccUM6vmtczcMmnq3u6XnxXGa4Zn3ZNMy7gcuTBR8wYlx2IEIolA6+yuy9EvTomkcBETCg6PNewJPwS7wg8pA8QMpIzIGc6FHUVS6NSEuAS0jXy4cIgAAmRzwCHiCMA+ZKcBA14O3hFw7TIS9pL9c2ZfjV6JDiUmY+hLTWVNOz+X1gWb33X+Nf7OCDACEUbA0jMgHU26OGRFQEtHp0DMBgR2+QqayI69XKxFzEjE4Ui4KmvWHKEgCPDoXxCYcysEb9muMHwd5SZFaaUmVT6WRhqVqS6F5O5B7bRTDbPJ15ztY62lofMtWunvrV70bT7MvbSamKWtZASkng0tEb+zeXoGaLyxUvKyPGXP2fpEgImaT8CKER2mnd3kUJKDdwRc30pSXGco+bvQpbnbZskSQ0j5pstm1p1e8geZuxU2GzWp/rqvYSkFXzkwAoxAlBHApCoGw/c3YXmOQ94QwJTWEFPzlj1n7AsBHv19wVWcyPX9r+wpTsmlXCq6cS1qMDG8A+zLJWC0HGoI87U9omfcSM1gh/F6LI0SgVuxam7n7SPX+W9mBJoXdM65Y97m92a+y1cZgfwjMPRy3IQZw804rir/hVVoCWQPbSh1dYVWP3LVZqIWuSa5UKB79350cMjp7SOHkxx8IRADYrNoe/pIICedoir1B/R99YwttHQyIX0XZ0+Z1obmOZsWjMTlvxciAM1ujSNVR/O8zr+/8C5fYQTyj4CqSlwfM2smnv1e57/UyiqBViSUZI1aVFqdiVpUWiKbHNLYB61Ptlh8PwsCZFQL3raaog3V2lPQHcFglqgaun1o3KRpPLpiXtf1WbKp2NvKVoOo/LGYmfhIy7zOX66c19lQsWBwxYuCgGHq1Y4iH70c8oUAkWAoBlijli+AfebLRM0nYEWLrvUzvKEgd/Rpx5NpxK9rXfDADOHISeiMTvsKGu6cEjjW/fu0xJd7aeWXg7JsOu3hZeJrhmHeBO+YD7U2dP6f8qsp1+hsBFoXbpm9pmFL0d01LF78sIXp6jK4nDhbPP4cMgK09MlELWRQc8iOiVoO4BU2qd7HS5/hIE5kTevBD8MRey2M02Jn55oma8Y0qcR3PjLz70+TuLPjVPLn+59Y8SJ68G1k9pfe5i8vxRaMv2me3/Ffzdf94KJKxqZc604ETatU+7PS/kqx6zj95cO34wxSvLNnzBmKLVNZlo+lT/ybWpZ1K8FKMVErlUbD0id2J5aKtJGWk5Y4wdTeiwNz4DATJxueF2g2GTOq39ATu+Svz7vFX4FA244maND0j8ndiTtgamGawnqTTPXvaFnQ+buLF685vauWASt5BOR+nfoEnDXguCbjnlVzHyju4K3Ene77W/KwRrsCRNMSZi1NYnnQiUBTXTBIRUAmFiEjAnJf+kzkjDf5om8E5CTY/L0byTJ2ROQcEmt7REgy3vddXJklmJrcczN81W0xhxWSpF0DcbsCHPfh6Udn/U3L/PVXlVmVK7I6rXM2vV0a8s9p4Kb/0nImFguI5oaO61D2bFeWYglRQeUqTGhbF3RMr6AqR7aqTNQi2zTnCga9z0uOa8d97nX+FhQBOQ4M7O0Yfc5Z+jyTG9RE0pIt8zc3nrnGn0YQoMO4tVV9l9Kpfx/x8Te8FAq9r3GP0FXbWuZ1sBuPEcBK8G/zrM452jQekNog1SkthR2578nG7cWqCo7Ro4nVxcUqv9LKJUIsHYOJWgQanolaBBrBkwhDdi9enOOe4nIkDwhorHzqOugIRn0H6HB3LJF+yENmFRml/fH3H1e9g0uxFPXkGcUkde9YWhZihmVW/VPL/M5/XBIBI/SKbKAcKk1naUJZ+lNkUUftSW5ttKH/Xw5Z5pR0xZwNOHtSv4ftdHOC0WdiuAiXmomaT9TyEX3UQSofhXGewREwYrIXqV8JngOn9IsAUQ6E626fu3m+37SVEr99f8vxHmH9jpT6v0eWQUfqTjtDLZm4q17Ye1i7NoJK9P+6m0JMtRGaUfcsTSJHthoanHDM+odiSR+3Yq82jdgNw+9kscQouXJJ243NF2SW4Fv24dNdZvhOyAlCR4CJWuiQ5ifDuKzuQc4galiw41BIBMbHpL71/AJb5nexDdYwKFuTjT1SW++Hj7of0qBwdki7XTOmwh7wuy0NXQ+saNjIvpnOBiiCn+XQQLs0Ym8d1ozCVJM2Wepvf+1gY3+xxHWU+DJvIhgbfSLU9P5ZRkLEzRqaJKHZ1D4cBrUVZgl4N/2RNbf9tWaiNjbsBbnLRK0gMOdeSK/owdKnZI1a7lD6yoE6PyySvvf2hRvpcPfTQWr1X3fM71x4+kKFf1iXbHxlaFAtx3LxL86HYnjAh6sT/QHsDt0NkvvR8+Pw92gg0NLQ8aBhGO91l/2HRXLUUEpLc1OxJFw5b9NbLTNxfdoGslhSRLNc6p9Az1yCJoR6CRj9i3KGPjmY6nld1VXVVT1Ja9b6HUsbYWf4D+dPorLViDRqWFPgpc9sQBXg/rnT3wIUyEUEQwD+q3rhWPQV8hfNoXAIUFeFGer1UuFMUCF+MFIyOrCJSomfwjP/4g3dTcmR65X8t2Pv8pNLxJY31TWkfiSl+fZRNCBVmOn/XUtD5xLDkh+96re7f0sbEyoZtyjUnewI64SzFsP+u84lRJioCP3TXmHsLJachjT+DmSxWMUXrVyiYHQajfsXv0GeycvvSbTHCVw+husHhFKPKi0eH6xR/9u1fdlL5wh7Vosp0z5oCX/+itMTLDntnDz5S1EQYKJWFNiDFYoX8ihsgYIl5lSBEaBjpzC5JGefp4kaetCENKx6Q9v3L5u5aTGRlMAFlFHCraLRWTPp4Zv3v3joXtOwPnjuoJ+uqA3XJzBOf4Nj27840DBrfWu86y/XP7b0UBnBUHJVqRfOtyD0ypHlzjMV0LYh9HdpefvMtcJ9gnuIZniJmOvqdgpXbMFLcukYliZBSqEfs7B9w4Fd4OAhodVuMOXdSsqn4Efzean189j/9GzbjqXP+RGyVw08Hzfg39tngFzYcMWh2AiweqbYLeCjfGghPoXof4Uff8YGPsrgqJkRIEN5uKL4zPpk05coBtqiH4a6VdTBolP9TziBhasPDiMIrF707dhQf/1XMfB8JD3IjjXBkEeB4ifWJ5dtHEnPfwuHQOu8jh/gkNv3XUjSIIMWh9q6m64onDRnSmpa0DEhrsQP8Y6RNrtMAvUYCK6mzHC1ZWQ7lnIGToGh/Qp4/wpmFT8XjvlbafUOnBSDQxOqrMG12+/K+XDTOxd8X9MkyV+QfXBUdE17svGIv3QcO0wEWKMWJpp5zotmU1pKB285iNpYA1+eBanA7MlmB4h/oWXmlnVtextBLMQJwFBFGiMsjb6teV7X59u7l36hAqHJWOXhgeWjzQ1dOA5UfxjDE7lDyRgXWE4yjaoNIL+IZ9y1b9Ku5LZta/gwx4xohXcRdpe1lmNulTKG5c4L4XZ38crUp8Mr0V9OCSXfCbuq12eSzV9OxYjt0rE0KUsXb+P5H8THQfwdACneC23ZL2DK8kgikfpF2/amc5ct8yAyNHR9eA9rRnsPMxcJJ3rawQkugolaZoAKcpWJWkFgDqcQreRBrBlRj+rP2CCc4is6l+HOLS6r7K8BiOXYYHAcXfFkAoV2NoKGfK61oeO/oRV6uKKBOq/y7cmld7c0bN6FgelLIGG1mbQ2hC1hiEH5JiXs7dNfmnXf1AUd39nw5LKiOVc9rxpl9/WD2Bwz6Fgboc15RyYiRFoeHHz+aFuyaVMxKu/uqtb6K5mel2LIM1aZpCMjNxhpo34Tmnfo2PUQEa/n8GwfwJLlARCyvTCf2IOJ9lMbdix9eqz88ndPHcEcfwbZcfgIhmMqImqP+UjDUUNGgIlayIDmMztlGQcN7UCjxpt184nzWHmjj1vSMm/jvdhFhbNXDRxnM2IHb8TgHvIvVjVseQ/tgBwrj0q715a87RvNCzr2aaW+hyGtejRtcJowSBPLpXdp5by/taHrn08J8+PFso8q13YiZ7ZDSj+EDR+zM9kQUr2JdAjt7CgEBtiQ04B3aYEh9QKl9QJMgK7CRpTxIItXjrIhpRBijVrGCCEjckaOgAedXkdr59dSONttkFshnCQ8xR63THnyRH3s5NZHiufW5NxKyCN4/2b4omk02DjGZefmw98KjQATtUIjnkN5cmL/8+Jo3CGlus+XLYdSOenZCKBzjuPspL9Hh/frs69Ti8SMxOtTavA9uN5+7j3+1v7ksgeb52y6SZjGI8AOmrXRnmBQXywn4xmHOxR5Z52wl65q6LprXXJpJ6OYOwKrGjpeo4T+CeAfD0Ixaoa0gQbPekvLvM5b0Rgf7TlhbWk42D3ob4eulkvEVuPo4m45ads8PWHu4KVDIn69NJwbUPANyPfVpohdQZMd17kqHgnq2yjgGSEfYOkvxf9NDyv9QCDpQN69tnJ+ZprGz+AI+GfQOvoy7C9WdVCBw4Srv6BpfwNp1DgUEQG/rVZEUbloQgAuOp7HJOfyM5ocxqXQCNAsGstCh9DpoR2o/04Hd3AR+qSODU5tf7yFj/saAeasv7SkhUH5X9D7X+dtIJYgwFViSPX/rynlnzs9Az/FaQh+LaLPkqByP8IGcCk6/LUgGzgW6sxzOxYi9EzjKDBhO/3HsHzXAaeC/wnN8d5Edf0za7e/u28k7YcbttT1iIGL4QJiAgjgxYhLWpg54DezUR7+irlxszZObQ4HrO7yYPpzsckYaniWYT/hgk1Dp9DHvgjZafnyRcTohpRPmKZ8Yt0TtxVEyziCa5h/mxs6v2nJ2IeJhPsL8httyaUf8ZeGY4eJAGvUwkSzAHmhe30aHcvlHvvZAkhUeUWApNGM/xySRihQJ28Z8XGplCY7tpbKQyZ7jcmtABwFv9PRzrdNmXgvBg080nqMCaMWKdWPJSbzNdC0/UDUxB9pndf5zfXdTVuyl8YxRhDAqRD3Colza8k2/PRy/cjd0f/SM51y+ul5n4A2uBu2mXeDeD2fGji1D5PGJ0G6+8B0rukXzkQ4M74E1lkTEfcSbLAx00TMpT5oYi2GHDoFr7iBli1pyZJs8MgBLMmEB3CH0PYOJcUODX9xqMcLjrJfxHv8Qnm53dFHiJRShX0FraHd5lBMBMboIIspFpc9GgKYFX8HHcwdmQyAR0vD1wuHAAYp9IO0hc66ti3Z2F24kkuvJBzY/lcxmfgMlov9Cg98ZRJYr1yfvO23fhNXUvylszonJuL6AanlG1HvkPt7curojvoh5xteC9H7CGZGRNPNFGQfuxc17MjEw9DQ/nTQsJ++qO+4/eSVrzgPb/s8zErK11EldmDfGTPia2njjp8A5P796klT3r1m25sv3BrsJyOOGxgB1qgFhq44CdGN7HJnRcUpnkvNggDpDxAscLXP4O/tWaJX8m0J33OfbZ7ftRcDAdn8jWG3dgFMFuJfi2OFHkf6f7Ok+rwR79kJlyCnl+IuSFGBF1Y4Rn1FAABAAElEQVTO6VgE/VmHKeKzHeF3ucsLYGNpQr2kzz1OmoDhN8gYvXvQ4tERBuSclxxQn1JC7jG0+h+8lb9OmfZjdMJLxlL3Eotdk/FW+VyERi3QRjRZf+jUUfKWSy6JOBQBASZqRQA9lyK1oXYHUl/nUiin9Y+AFG9c1XD/zHXJ2zEEcMiAgMto23csXb9qXtezsFzaaBqxy73az9DyHS3JwV7wFkfpW5z++gexvNcGW5rvZSiroi7RcVC12vkMXMZ8Ftr3uFdMow7SOcuW8PlNS+JYit0Hdva01nIv6vs06nAIrO1ZU+in79vR9ELU61RY+eCeI1DQ9XaPw0QtEHbhJGKiFg6OBcvF0HoXqfI5RBsB2MBMxSDyFkhJg4dLSqItcfGkW9e99KfNN25Z5PSm/glaspv8LM2MmADA7uhmJdWbW+Z1fAHvxxexE6+reDUqXsl3LNx0JeyryH7vtbTmN4JP8STyW3K6b3N/o5+jA5XIpoz0XbYeOgo3GI84woH3fv1LQ4GgVcX6ZN+pgaunzOjnpbmxsQam8CPi/8xUdF7joCAgosahSAjwiF8k4HMp9s4FD+AoEH92BrmUx2n9I0DGyrCHefjI4Evv+tHej3JjeYAQrh+MZ+e96j6MzCsRPZCzQFoKg2ZOOM7QYZgbrRk/Lnb/3z6yZADXy5osu9g1zPpDYNdJGJAhf2mEkSHIbR6sz0r4BaHDdWmtVu6BR4yHlDJ+qWKJR+9/4gPYickhKALw8ThTSee3eDhq/OWhX0brvK09uexxf+k4dlgIjLwlYeXH+RQAgZaGjmOYa140bA9VgBK5iCAIEGFIaWfmhh23kVaNg0cE4Ebg4+iYPo9lu3FBNUKki3EJmx56Bu/Jd5TUPynXkw5aGzZfC5cZfwpD8Vvh18sjyoWNRuSRNGMjy5cO5ES70FLcQfwcAik7AFK22zCNnThoaef63UtxjUOYCKya2zFVGfKXwBquU3zNW4bwfL1lQ3L5z8OUh/PyjgAvfXrHKjIx4aNoD/xQvQbLAJGRiQW5EIH0wk1qFe589sK7fGU0BNqTTX+7ckHHfwnlrDON+LU0qPsNZMNGWme0wXS8K3+FvO7BBKdbabFuQ/eyDr/5RTU+doF/GXVtQR0nRYmk4dQDd9mSNMtE0Iacvn74T4NGxnkCbtR+hcvYFGW9Yij7+AltHcPpE/4bOaqNElG5tDJSwtQnoFu+zA9Nw5mvcZy6wEufRWxXJmpFBD9w0VLuxgD0mrE8iwfOmxOGhkCaYMi7kCETNZ+okvZrxZwNb8XMfyuSvtln8tPRibANH22Ic1nlZNMw3gxy8zXod74wfpy5/muROd7ntMhZP0ATJVfN6XqtNsV3EfkqShCxpU4bx0/9Br7yfqbN1P9IJR6BzSAb9mdt2fxGsLQeSmmN3bD+FtKIaGudYl9q+W2eMXNnojYmPBG9qcVT0oAJj59pUUSrUs5i0dI0ZqMXNy/c9Nr2J5ZjyYGDHwQ27lr5MuK/pblh01cwMVkN7cx4Ol4ql0CEBiRtkmkkvnH85MDXcUTS/cqSHaaJ5bbHor3ctnrRt2ODQ3ULW3TXxywZX6YU+JAP57XBcXMXLqEZS/8lh8/ofHDyhqQzbfHjLmE+DmQfNw392Ponl+0LXhanzBsC9VZKDNon/I4bdLwXdtVeAbmI4fGok7cGGj1jJmqjYxPZO1hMeIq6TA7RRwCe2qH4NN8HSZmoBWyu9uTyT90xv+tBaGi+Bru164LarY0UTwTaVgNE2CzDsFqko1pwCPyT0LRhN6H4j1PSejBqB8HDbu/dqQGBJU7xTpyPWR1kOXik/tn+nrtsCTcYTp+NHcy7YGqxB4T5ca2NXYZUhx1pHJY9k59v3/9mPtIrG6iRuH8MmzTqoFGjfTp++BaMbbS4PJ2Gx51iNCUTtWKgnmOZyhR7rGCb4nIsmZP7RgCzUThJeDvS/YnvtJzgNAL37Vi67faFG99gOnpDzEiEYjRPhO20jzEtFqCwBXDhugIHwfdA0/agMvXXi7kBAfWtjSnrwxDzoxhWaekpTuNr2M5rQb5OG/oTJkoP4WxL+XNg83PHMR6pM81DdqJaPXfiGeemva+k/B3MfroJ+UOREbi8ftbQs4OH/WvU8Exoqa5YI74g1/hjeEWucfkUz/S4BNtyRcPGq2My/qwqmS34JQhyuCI/L+TA69p2tD4XbraVmVvzvE0fxDIcLYfWE7HIRyAjeFPG4VR14Ch2I8IWTP7ANNUeIxbHgd3H+nAKQqiu/mlZs2eorq7aFuOUabwWfsKaYGz/HiJRaTIZXj0pT9AxLCtreIzFoeNSbofK5FfSMX+1bmfpHjqej+eg3PKE1vjrsDm7x49No+tqSKlfTu3e/Xom6cV5IlijVhzccypVKZlSpsIAIifxBCcnKAuVeLzhVC9EYUzUQkC8vXv5P66Y1/Ur2EN9EbZaN9uKOFN4RIZEJFs4BR4DUjPJkIm7cQLC3di5eMJx7MeEqN8Ljds+LAc+I7XxTEKJFwaqBo63P94Cu63sgU4OqLbEJMtxpjhaTzWlmIZlzTkJLec7hr42LhPVjrBRfvhHKxL5xLLpY1I6LVXi5NPf6v4jOm6JQ6UgoOkYKH/vCtmogciTjRqHIiHARK1IwOdSLM6ugxMiE+e2iUn+XrlcSuW0QRGALVQdBmBaWvu3oHlwunMR2Ni99LHVi364JNV/6gNgU+2wXTPzQWzIWJ+8udMP2nE8RqzF+LB4eLCDoZvuHTTFoEwlhqCtAGOUPXA3+8KIu1nY38OFmzgJzV8t1hcn4nB0+D+04+BhCdSoCu9wLcbBatpZl85Tkhbv3MqG9I00I44ePGBasVvve6LpmZCy5WxKCAE8j8fwLNLjSQ+cp+BqrbW4IrlknhS0B5tDwRFgolZwyHMv0NIXDWnRC2eREoM/U7XcEc1zDu5uOf0qWt4Ke8ksz5JHOvu1299Nh7BvgiPPn2nDfgCfr8eP5wHIb+XSy6x43868clXIg34Q0lYkI79PCzF8bjkdGT78/3Rcyi8dH7cKYMYALeHLpjRW3vdE4zOuyPyrZBFYOadjkTDkwIbupqS/SkhofV1Vbdx7Oi0SVp1h7z5Oz3rmQ+29Z8YxAyBwuj8JkJaTFAmBWidGziFxRE6RBOBi/SGQHtivEWKCz6Nb/BVTibHJ4F7hvEdHi5XQeD2c1kwVAwlqZKJe5/+DHzfy5Tb8z2Vr+Jz+Wxg5SZOGcAJqlLtoU0ZhSuVS8oUAHRcmLbkSO2/n+i1DGeRWxf+aOj3Dhm1N81sexw8HAdaohYNjQXO5d++7hpobOl7AITlul1/QwrmwAAi4TO2avr5BImqwEeHgB4GlizonVg84V2gZuwrL/lcrCVcBWs+EFmuSdESdduxauK2oBRmqwjIjh7MQcA3BtXMcc7p3b0g2/c9Zt/hjiSJwaMa8eqmdj2hpPu63CngOjuG98W38SHZqpnQw2RQ+NXh+JeT4mRBgopYJlchfo+Go84hr5Bl5WVlA4g6msK7Ebj7WqGV4HFpnr6uXidqpKmU3aMOcBjX/HJCumXjKr8HK4WQBky2FYUJiedC1/XLJGNaTEc7nZaS54nAGASx3HsWuzpvX71j66zNX+VMpI2BX2X+aMGvhu7YXp23Q2rr36YlUxnFox/wTNbx5eAdnlDJupSw7E7USbT0MUy/CASUZL8dKtAoVJLaGOUlMGLqXliqeLteKgyTJxiu3Vo0bf7I6ZY2rjtmD1Y4hq+H2oUZIdRGe1cuwCDjTkPByruV0DDJXA4urYmZNjCYdhkWPMnLBZ/cfzh6CmwoXLmJlZyjYmU/uTf51AQJYG8PA6jwPZ77N63c2MUm7AKHSvLCq4b6LYdn4x+65roa8zK9vM6mc49rAVhafdjPuiR5S453lUAwEmKgVA/UwytSa3HP0IysmamHgmec8yMYDdu608/Nf81xUUbJfvHiNterod1trhXqPljX1pmNf7AhzglRygmGYNaasAtFK22qBiZEDTZeM0We4vSiKzOVaqGUk6ED6xwwcCbpu5zK4E+FQLggoXfNXEuv8NJHB5k1o1PwFczB2XFXbATRqVKKkpU8ORUCANxMUAfQwijS08SLyyc8+/jAE5DzOQYBmpOAks8+5WEZfJm2bB0WYfpUlY7fgXMA3gYnNhxYMvpd0DbnNSKl+Ig/kw8t14Ep+ylxMaMDhEBoCtJkC7j1+At9s71oHFyahZcwZFR2BVQ33z4QiDO8XTfrw3kh5WVLAZYaPsHZfI/lRC0DUSLstWKPmA+swozJRCxPNAuaVsk0QNclErYCY51IUaZPQo87JJY8op90qGrHxUh9wZ/ou+WICVtj2csdrGBLpre3JZe+8b0fTC4Utn0vLNwKOMG5FGVdSOen3TFwmlgQpVQ76TUXmCBhvmKj5BS6k+EzUQgKy0NlU1R8DUdO+X7hCy8nlpRFI23iUL1GjWmJJ5kVH25FlaHR0Eu2CNGEviJMGyubRJHs09AXHcWLnZ9d3L22kL2VTOa6Ii0DTgo4JcD8DFzTDQ7ZLnEDUggWQeJfY+0hNdrZGtY8EHDVEBJiohQhmIbNyHadqjXMHOZQCAjQDtmQ1PNvTLq3yDDBcfxnWM0U4koggxTA28g/Lf0ReiJCRvVYM44tlkH9P5zCWYR+29dA3cbD5d9Nx4khVmt0g1ZfqqFSqGxrb31uXXPrl8nyyuFYxR9yMZ3hu2taVmDj1J/HxE/Yd8/3wYiPaIXp2/AbSqtE5037TcfzcESifaWXuWJReDlLsxwD1ap5Al07Ttc7qnL5+j9hXOhJ7lxT2US/jWeyBOqfee6qcY8Jgx1Uv0C8y3iFjwFewWaFba2OH0EO/ijnmb76z67Y955fUMnP9R2RV1aeR8G4Y4GBTjnuO0/nRIvqd9sNq6C9TX23vXvapiArJYoWEAJzTfAna6nNyo3NbTwzWX4yLvpa58eAcdp3b+Na7ki+1GC29HjhHEP6SdwSYqOUd4vwVgFkRBp/hHUD5K4ZzDgkBmg0bMTkN2ZUlUTOl+XJK2Dlq1Ib1Yu5Ikv5Mz7jSQ7SmCq/q7hE4x3HpOJSTtKFmH/jKPsPUT8cM++l//O3K53HNU2jb24qd0+ITONrrz+zBuqVont+HvrMBxO8aUyYMLehgdsdTXoWIRMu2hAgG7KdQ3o9NU335vieWHyxE2VxG8RDAGbJ3WEbVleefAUv9SUIbV0Myf0RN6MNYJg+wPk5aOH1V8ZCo3JKZqJVy2yu9V2J7F6kSOEQfAVo6cIQzA5I+FH1p/UvYbw68bDmWj7MAaenOwuY1Gjbw4+5Y7MfzrPfDpo/ILEgY/mpzH3yvveSYCuTMOG5p89i6HUvIw3ooTz7MCMg/yDr6aV3QMUMpOQv7VG+Cg913QIPwOlpeJG1GWqMRSpG+wKXyCRvsmv0FiNp3TNP6Lz6v0xeEJRuZzgdODcg/TWHH9PmB7F6VsKfi+qPn3xvrO9ZKD9Pkx3/As68EEzX/wOWcgolazhAWL4OU5eyNa27C4rWA35IVEpjT/KYqlfj3P7Git7Who/fMUeNjSe7OzntBfv4ZmoEktGNPiph8sr7v6OEjicv0hKpj+tj2CWqLWIITo8IhZGNJM3Jv/ZPLXIKI8xR/cmjRlL860nNZ1cRY39swKP4h5HiflFaCBkhoFtx/I+nC/kuaMyJn0Og5jk5tgk3d385IPrMDclHhHCoEgVR/fSse/8szVTdtp2YQUfMVHNN4Poa3ym9wpyiGdned+k3L8XNDgEf53PArampp6L3C8f/CFVXoCi6cOlYMv1eXMwTozA96qZ9L04TobUsuXTZW/GI93S4h2g79gRA4/UP8YPhHrJrXdT0GzndgifSdaE7SLoyjHyxLxql96f/wL3ykLyM1cG/QzeFAVGzko0vLiJTRThMc8SOOoeCdhra3xKp6utyNQyNx+W/FILBs5qZx2tBN8JlppZ+lc6uenjD4J2qGYx7GLODczDx9w5OpRVn3X55gKEIkJmpFAD2sIjfCHmfV/C1hZcf5FAABaI9oYC/bYAhz7/CJnGPWkQYe7M28dMxIEbw57ESWHMl+aVXDlovhwHcWKjJDaTETK9v0+Sro/6bg/uUxo6pWwq5shLidzdvI+S+I2Su4eZhs7EDMnsbibzcG5j2G6ntyXfIOusehghGIJ4wb8My8IRNJI1joOswEfBOnQSN1uFZUnX4s/UGsg7oE8VcMxz4HASZq58BRel/gbuAF2PdMJsNSDtFGgDpWzGProi1lbtI5Uu+TrgeS8zVIF+ZLMVY3bLl6bbKxJHeRrUs2Epn65fCP+MjMBxOviFcStYYR7zMdeFToiVXJeGxIO/WW0lW2qatMZfRBo3Fcxu0+fE5pbaXMquqBY9v7B8lp8IUo8ZXKRUB/DGcEG3SyR6aQ7vP11Ez3xrrW+eSyY6sXPDBWlDHuyRqym2Mt7xgQ5eEWE7U8gFrgLHdKKSfzhoICox6kOJe7GJjKlm+QUj/t3VUczvmU7uaKkiRq57fivXtvJovvC62+z4/I3xmBLAjcMX/zXEMmfp+OXhs1uJ1+MFMKaHTxnMqEb7WaJFVcPfxBipdGlYtvhI4ANoBwKGUEcK7irlJ12FnKuAeRHYSaksHXWPkGU6qn/Vi/SKWnly8aXDNGIBgCjlZrsYlkzMSkoYf5APlR8x+keH64P/KVFkut1UN9eoKvRBw5ZwSYqOUMYZEzMEDUsDuMQ2kgAPst8t1VtoH8etEA4iVQLAwWTNS8gMVxKgYB+E17Cyr7Bu3Bh5+GQSTZSvoGRwc7nQDbXqqEoS/yXR4nyAkBHuFzgq/4ieFdaSdr1IrfDl4kcPf2SXnES9zSjqOf8/ZMgqppPaO068rSMwKhI+CeNOFpwkOzHVNldN8xllTI+3lv7+j5uehqoQwmaufDkufvTNTyDHC+s7d1nDVq+QY5pPxpByA6yN+ElF2Es5HdXpdVsO/A9661CFecRWMEckKgdUHn65DBjZ4zgZ2BVrZvoiaEcSiYiw5o1CRr1Dy3T0gRmaiFBGSxsukfJ46mnIFiFc/l+kCAjgAS1bFf+EhSklFh45zEmQNeZa+nXWReI3M8RqBcEViyZIuplGhEP+F9KZM0atr0TdRwUiw0an6sSdOow8wGx2SwRq3QzyATtUIjHnJ5tYd76SCRgGrskIXh7MZAQIohp1e1P9pY9kufpiGTPuwma4cGJlwyBnB8ixGoCATGdYvxOBDwj5R78oXXKoOpyQBLn3LERs0fWaPlUkNofl+9Nk9I8ZiohQRksbLpra1VcIlwIMDkqFgiV2S5OLAc9TZ+WAmV17beaXjf4FKDocK7BqESAOQ6ViQCWth/gsPXoV0mNZmPoA3fGjWloFHz/o6eJQxZzslLFy9ew669zkIl3x+ZqOUb4Tzn3zBpEjzd6gPBDEPzLBxnfxoBOK7EZ01HEZV9GLRxdqfnmYOslsJmolb2TwVXcCwEbl/4/Uthr/lxWw2NFe2Cey6lk8I3UTOtqoNBlj7TAqjJCw6+xrNtwwVC8wXfCDBR8w1ZxBJsW6zgSw1EjUN0EZAipQa0IZyfR1fG8CTr2Lv8JJZ5h7wNBLoWxybxUkp48HNOJYiAaQ9+Gcevgfz41Ka58f0f62Snek44KvOJB2PB5+5EleLS4zUvsUZtLKBCvsdELWRAC53dGmzBweHsB7xrMAotIZeXJixq28n+vrL2oXZeS+/zsqsMyy8JrQ0maueBx18rB4GV8zdfA/OVW/zZpp3BB5t3akDwfM3Vjapxjq0HB3wloiLJJE4bk1SfwRq1M02Q909M1PIOcd4LgLNo85A708l7UVxAEAToTD4cSvCfW/fddSJI+pJMI8U+L8vxZJpsaF1yh7OXZJuw0JFEwNBqGQSb6F+bdro6iebr2ulYJ88h1dOrQLpwVq1fqka9mb60KjHAGjXPaOcekYla7hgWPQep1XEc3Ms+OoreEqMK8Aps1H486t0yvIHuH0dJZR8EhpdSLl+z+GHu+MvwOeAqjY3A6lmdE/GaNOFdyf6yjJIV0ibMwbgvojaUiGP2iOPsfJZKC7PYmTpZDbJGbZTmyMtlJmp5gbWwmSpHk6bmZGFL5dK8IDBMVp6478nG7V7il0scdOZPe3V6i5n95fv372eiVi6Nz/XwjIATU79nyarZuayIIG0iZUpfRG1C1TFsQiONmt+gRdysM5yEVe03JccPjgATteDYRSZlwjKPQ5hTkRGIBTmNAJ1GYBj686cvVMgHJcV+L8sqNEBhM8wVNbW1TNQq5Nngap5BQAnzrx3tb6fnmdSnP1VZWow7/c3Dh8SJqxxEe8WL1vvC7EivZvGJIhcCk7crTNTyBm0BMx5SrFErINxeizKkBXsOe9u6J5f9t9c0ZRNPG0dtNZi9OrCE1nDY2RfrZaKWHS2OUUYINDd03RkzEldrXw5uMwKQgPbal0ZtcPxzpFF7OWNuWS6SvKZW07JE49shIsBELUQwi5ZV/akT2FHAGrWiNUDmgmm2mtLOnZnvlvdVR+ge1DDr0grNzQ0hLx/sSzBRK+9Hgmt3LgKwDtNfTHmZzJyb7oJvyCjhaOGLqB3bPgFKbxmMqLlbP+W0CwThC3lDgIla3qAtXMZrt9+VgpuDY4UrkUvKhgCd62nr1HcGk4lnssUtx/txw8LEQWYlarTTLWbUWvUxCy4GODAClYFAy/zNH8T2AbiloalKjkEamOT4Oyh9q2jEZgINouZzNwFEJY0anIFMy1FqTu4DASZqPsCKeNTn8NKF8NZHvJYlIp7SDjpB/S10iGQLUnHB6RM9WNT0QNQADR7blLBnVhxIXOGKRGDZzE3jhFa3g+2E4ouM3OCA9E3wCaaG3zaybfYdyK7U0EzUfAOXQwImajmAF6WkUuv99AJxiAgCWre1J5c9HhFpCi6GtntPoXMBUcs+Y6cZOmxsZhVcSC6QESgCArEq4yYU+7pQtGmu/Oj5tZjo//xNeQoTSt+DhutJTchpbtH8qyAIMFErCMz5L0RL+SxmVWQgyqGICLgHHUt5tK172SeLKEbRi27f3zIAIxhPNjDU8eMctFcVXWgWIFIIrF707RgoSHamHympxxZmjVhDY+49tNEozIC+f+KCgxf70tDhSJtT0Gb79r8Je2iILqfhF4cCIcBErUBA57sYvKj7WaGWb5Sz5Q/vYbSgoJ33Z4tZCfeBxmGyaMlWVzo6B4bNrFHLBlQF3V+96Nex1ED9v7c0bP5U83VtF5VL1Q80XLMgLqtwXJT/czZHw8BdSdH6ksHx030RNUNiw48WHrZmn18y2ZUmTHZSfT4u+fvORC1/2BY0Zx3rfxaDXdZBsaBCVVhhphFDv6c/syG5vCIOX8/evAbsJkVWG730UopmopYd0IqJYQ8+9bmYUfUWQxpfkqnEf6yc33VLOVReC/Pbjk6FWxW31zcm9p444UtNhy0BtDM7AFGjRVsl9r9waHq4FeHcRkOAidpoyJTY9bbHWo+CJPDSZ5HajVxxOGrov0Ss5ttFEiF6xSr5LJZIQNTGXr2ipRTEYKIWvRYsikR3ztk8C4/En6XUAPSxLs+/AefBPtA6v+svl4gtvrRGRanAKIWunLfpregnboLGfZQYwS/DF+HEcdX+NieYUhFR8730SVK6y5+mmkafOeQfASZq+ce4kCUcJMLAodAIYJFPqJfx88n2x98faCdVoSUuSHmW8KRRo/m5ZSTEhxu21BVELi4k0gikTOdePBPnd2QJSyY+Wzff+d/Whs3XZrgf6TqRcLBf/ay7TBm6pJjoaHnJgDXoS6NmDySwMzuYRo3eWaGtaaFXhTPMiAATtYywlOpF2e0as5eq+CUqt+UueZp3tyeXP1qiVciL2LEBdQC9uXP+iJupMJqh9yvFWrVM4FTQtVULOt8HdxO/m6nKpGEzhPlqTIh+1dLQ9aXW2f9cnyleFK+1NnS+AXbEi/IhGyiTwOaEcXqozpe2scoWPSAAwTRqKBN71/gYqXw0aIY8mahlAKVUL2G2tpN86nAoHAJxo1rgrL5PtSdv21y4UkujpLV7ml7C4ITleE9UDWeiOkzUSqNp8yJl87S2KqXEn2FVIDFaAWkjfPf+p1Ss57ct87rI1UWkA+1ehYBLQTJ9nR7gp1KkkY5ZapyfNMf2icBLn6RRg6eB6X7K47jBEeBRPTh20Uup5S7WqBWuWWiZeUgPfNdKnPp64UotrZIw23/OC0+jJSEwOnZ6W1rNG6q0sj6xMm7WXO8+CWPmTDokaJG0Md00Y7+Edu3eKC+b2z3jJuHZbqHdzXkLyHtI66v85O8645ZBNWpoAy2n+SmP4wZHgIlacOwil9JQrFErVKMQIcauqSdSTvxjdIRXocotuXKU6PZmN0mDr2RfaiXXwOEI3Hxd1zS8UN8ccvo9Z0jkHht4hCmtu/uEva25ofPdnhMXMKK2xCfgzqKatFD5CYQEESd9td/8YXEQzKaWNgBpfYXf8jh+MASYqAXDLZKpam2VpDMmOeQXASJpsKl6xTHt923aeSt8hXEYDQEMICBq2bsZdxeZZhcdo+FY7tdlSrfhvULn5Z/MkLsLU5qLsKVnc8u8zvuXRGhTyu0LN16KOn3MDuHw9bGeASJqhhK+NGqUH4wSXhgr39HuudMqKRLsS200hMK9nr0HDbc8zi2PCNy7d/nJIacXJXixCcqjIGWcNWmHQCoGdUwsuv+JFc+UcVVDqZphyJ04HspDXuj6pfQ90HjImKNEHIHmhq4miPhaOkosaEi7vJA1eNaW1wt7Z+v8790QNK8w05m2+eVCTJ6HsfP9/mhDBiJq9EbDRs06cOIIiCiHfCPARC3fCBc4fy31Pm8DY4EFK5PiMHM9hXn/Le2PL91fJlXKazWUVDthTeS1DMs9sNprbI5X8gjQqQOY+nwUWteqMCrjLgEK40pLGo+2NHTce8f8zslh5Bskjztmb5mOvvgDebVNGxYsXe8AGjVHvxikbq7eU6uYGJKTgqTnNP4Q8NyD+suWYxcNAS2e9rLUVDT5SrRg0qSlba1k67onlv60RKtRcLGnXbIXO5GzB7fjFyJmWtZl2WNzjHJBQA5VrTBl7KbsGwi815jycl15yNjdOHL8odZ5Hcu8pw4vpmPZq5AbXIgMP93hZZ0hJ7eMABo1BaLm5Q09v0gqDweWGkzUzkcmH9+ZqOUD1SLmCQ/V+9KEoohClGHRGEzQ3ap3tiWXfq8Mq5e3Kq3ZtsbGoHnK2zOpY6ZQU/ImDGccKQRWL9oyHisAfxfmuZdnV3A433lYotvUPL/zB8NuMs6OkrfPrbO7LgeRuZXW8/NWyFkZDy99+t5MAEe5IGqBiaSllcMatbPaIV8fmajlC9ki5SuV3MsuOsIE3+1nUyk12NiWXPbjMHOulLwwDOzJ/ky6M/SYsCRr1CrkwUgN2FuxCQA0ITBR8IyUKcz34ZD357Ec+o7Fi9f48uDvuZCzI1rqbdjpOScHEnR2blk/E4Y4G9X3yR5IBxu1YFwSky8LPJSJWtbWyT0CE7XcMYxUDtoEUQv44kWqIpERBi44tbirvXvZ1siIVGKCYBjY42k5XooYNmqwRq3E2jeIuC1zu/4Q/dTb83HuZSZ5qBxMFkAq5IMzjs7+1oo5G/LqXBnOK/7S1kOZRMnrNex4vdhPATWO80IwmkYUFI5HtObNBH4ADxiXiVpA4KKazNDyYCGMV6Na//DkAmvAqQNC6aa27qa28PKtvJyw9LTb0wYXLU0MGkzUyvwRabl+yyRt6E8WQpN2NpTp5UH41hHiTtOKP9TS0HnH2ffD+twyt+NDOCngylx2sQaRhfC8SAhfy5/f3LUSZxQH02imFQLSFzEMUi9O42M7FoNVGggYQvY6erCvNKSNppTpDkiLIaevsW3n8u9GU8oSkkqr3V40au7MXsuJmKsHneSXECiVK6oespfASW1ezr3MjirREhATLa6A3el34HdtXevsdeGeGWrIv86337RM9SRfhClh+95QAFVjDuOFuhhavHgmefhaeAiwRi08LCORk23rfnRDLwW1O4hEJYooBJE0dOSnDGEs5eXOcBoCq05PedKooTgp9cTVi/4VqkwO5YjA7ddsvBQs/K80HoriBpxqAEe5llnVqq3qPdCuLV28+OGcbdea53fcg6fY15mb4eHgasb8EzWtDnmZSGWWU15UbydGPZs1cxq+6hcBJmp+EYt4fMvS/VITUePgFwGXpEntQJ9z6zo+ZN0vfKPGVzr2itejgTDUTBzofYWJ2qholvYNKxFbC03W+KDLbWHX3lYDmJq5G1jun/7SkR98cOH3A9tcNS3omABlMJz3FkcjPOzixD9RE/J5rxOp8/HH+zpBO4Oh+MA7P2/+fgYBJmpnsCiLTypV24cN4S/x2pG/5hwmaf0y5TS072j6D3+pOfZYCMSEM4jnEUdtjf1UuvoAISbF4yYTtbEALdF7rQ2dt0pDvpc0WVEKw6SRtp/+/qAaONjasOnOIPIltH490t0YJG0YaagehvR3MLtbrlbPUf/nN9D7ilQTzBqTNWp+wfMZn4maT8CiHv3UwsE+HMTCGjUfDUVqf3Ry+7W2fmf97tt3+0jKUT0g0K/1EDr1Ix6Hgkug0+QZugdcSykKnTgBPdMXC21g7w8jOmjciEkZXwvbte/eOWez552hS5ZsAdEz7obtncfH3J9knmLDRk1r6WszAeWL3bAHczBXh0atj99XTw0UPBITteDYRTLl1q2NMP4wAx0LEskK5Vkoy4iDpDm7FWbT7cnGx/NcXEVmXy37BzH1zqpRIwtvkOaLHUOyRq2snhQt43G5GiuCs6NeLVo+JEe5phFvtE3149Z5nX/sReZx3alFpoy/I1/Oe73IQBo1rKZc4SXu2XFglRtw6dPVgV9sa9aonY1nPj4zUcsHqkXOE1O7I+hwoFjjMBYC6FhFyhn6WbWI3bChuyk5Vly+FxyBU1b9IFIf8bK6ArcGeHJp5yeHckGg5fqtE8Eg/gSqpuJpm3yC6bg+0OQ0aAG/jI0GP0+fNDB6Juhsv4EJ3+gRCnQHSrUav0VpaTwfZOmTyoGTXQMaOd9l+pWx0uMzUSvDJwAkjbQX0TIEiSDOSgz9oFdab/tWsrEnguKVjUhbk41DmOwf9jIYkEbD0Mb0sqk8V0SIQfvL0FxfQhqf0gquvKYhzd/Rlt6/EjZ2zdPaLljmA5F7CyZ9NxbKeW8WDM1VPp3eSq1A1IJTAdNQvrV4WerAt89DIHjrnJcRf40QAkpguzVc6nDIgIAU6XM7xd+e0tZtLonIEIsvhY2AcQSOmLOO1OnBXF0TdumcX3EQaJ2/+fewjNhiq8J76Q+rxu6pBkLG4kbie0Zt4nstCze/+ty85Z86WC6NQsALZhlWvy+NtKmwmSDgkaT0virHv11cFLAqJRmYqJVSa3mUFV6/D+EFQs9RMisNHmuWWzSaNdLZgrAjaZmW3PNJJmm54ekntZSKDn+mJdCxg4ZGTcoZY0fiu6WAwJIrt1TDX9o/KBENEpMLZkRI0k5s5S1Ym6dTDb5I+TXP71qM5xrOe7POQXIp3nNa9Pimo2KXeE6AiHsmP30Ulnl+kpyOS052oQL3vYHhdAb8wRMCOTv481QKRyooArGq+PM48DhFNC0a3UdBqz9qYZj79UCr07w+2fTAqJH4Rl4QcBx9xDDEACYPFywdnV0gDYgwiWaN2tmglOjn+otSn8YuxGnR3unpD1x6OvF/PJZDPweydgu2WT4DG6366NQRi7Ta9EXUtm37vDOjocuGaYLl1s8XJCB4Wl7pKwlH9o0Aa9R8Qxb9BGu3N56AlNm1F9GvSigS0lInOtf90NTcxiQtFEh9Z2LG1AsgaSBqY4fhAY+J2tgwRf7uqob7Z4KkrUKbl+UYQ8uhIGvXGdJ6f3RIGj0W8A+ita+lT6QhxRg03v5XYNLEjjVq+X4hy/IlyjdopZA/5n2Hgrx4pVA3PzLSLkI42PyZpYx3rNux9N/8pOW44SFgxRJHkFt2ogZGHTMSfNBzeNAXJSfQmD/BBAmalvLV6RNZK6Y7jowNCxNc7FT1SdSQk9QvBrFTc5c+pb+D4DPKzRfHRICJ2pjwlO5NHM6+O8iLV7o1vlBy2mVoO4MP6tjge76z67Y9F8bgK4VCwI+WF0tJovm6tmmFko3LCReB5oZNN8aNqlVRO4Eg3FpGNDctTZAnX0ufqAmp0qDx9h9cQwVt8K5P/9D5SsFEzRdcpRMZ81gQE/+q7NKp4eiSDruBIEdy97d1N93S/njL8dFj851CIYBn8nkvz6S7lJRKzCmUXFxOiAhgvRObdrbaijedh4iq56yo74MDW78aafKU+8Jwv+m5rHRELeJmjfjY637BTqp9IucnOhM1P2iVUFz0l7uDvXglVMkMotLOTszyYJ+n72lPLl2RIQpfKh4Cu7w8k+RLDUsxkfdiXzwYo1sy3HF8AW081W3D6IpZxpK5S83jVy/6NQxzfQQlA9moUQm0BNxzYv8MH6VxVJ8IMFHzCVjJRJfOU5W49Kml6of98h+0JZd9o2TaqlIElXqPl2eSNGqGlp7PWawU+KJez5XzOhswSWpNG5hHXdrylQ9Eebzd89sxd1efX3u4dApko5bOR4sh6fAGoPNBDfE7E7UQwYxSVr3jYru9LDNFSeZcZElravRLsM/4nbYdt/1rLnlx2vwggF1ynpbjaaCHXoCXPvPTDHnJlQ4lN6T+IDYQsL1SXhD2ninenvGWrk54T0EK7GC7PqkM0p7CrnS6n/I4rj8E2I+aP7xKJvbWRxr74ecHhiJp3xQlI3gAQUEASP3+kJOKrdi4pxF2UPkPqxd9O9Z7orY6lkjVmCqesE3TsrTruk7YMqal3e8Is3YgXiX6hTjWt3b7XWy0Ixwsx5tZGwe+7igOE7WsSEUnQm23erWU5t28gaC4beIufAo5bqA65YuoOdp4MSgZoJ2fUgle+sxj0wdtmzyKxFmHhoAUuw1hzCcbgnINprSErVPtqUF9T8fexpNh17OlYdM8DECz4dhyNmaq07E94yotjIn2gE7EEwLvTyLmGNoytDLUMAnBZyHNOM5Lsu3UAHibqE+1NnQOoBMlX2LPYnl2r6mMHYPa7t6083acy1oZYf2Ty/bdseB7Hjw2uMON351rlQFiRGsphdpMJDxNFCIqZKWIJcVFlrJ8ETVY9vYEPQYrbVPKRC2fjxcTtXyiW+S8tTbIRcf8IouRt+LhbFI4yv5qe/eyT4RVyOoZW8anauyvIb/fgcft2e6+WYw+6QEI+6ncgtyludNFZjKQxxzz9P0zg1f6Gg4dR9ZSxKHshNazFxEfEobxE3to6N/u3337/jXiC3KNWOOqlU5nUiYfbGfoZTge9nBAtzbuWLjpyvueWH6wTKpettVobuj6c/QzM8p5Qlg6jed2VuNxWJ4vooa1ywEc90V+Dn3ZthEuri81IaeXDkalJykTtdJrM88S43xFGG+jic8wBc9poxyRiBGoUq8WzifgfuMfISsxoFBqOVSV+jOp5GR0XP8FjT6OmlLHsDmBVJJYz5TpLeha16LAS1EktD6yBvfo+wT8vRhCXGLKOEw+FATCT3oZD7copEU8+zfS12Lp9t3oWN8diyfubWnoOnRAvOonK0XnvxpC7ewR8b3ldCYp+Gk37FneiEEhDcmov/H0DsWuwm0maqNiVPwbrQu3zBaOfXd6sC6+PCwBehRp1Nna8UfUDHtAKIlJ49hHvGXC17VRE2Jqpnt8LRwEmKiFg2Mkc8HBICBq5bVfhOoD8nNKauMP1ydv+9Ew8Gnuk3MraNneLf/YbzYfbthS1+c4E5WpLjWUNdGR/VfBTch1IHZvihlV8yg/WlbI7MUc3dxZ95DuctSxOSZkM+x9DtUJO4ll0wcNKbru29EUyCml3/rkN77eiTq+EYhkKwZ8OUWd/yPZIvL94iBAdpo4U/gTmDhhkhLSK1icqpRVqZaMiyHVW++rUrYckIbsQSsGMjlAugQ9D2yL6wt1z5GZqHmGqvQi2o7cHTPLh6ilSZp+xbStG+7b3fhM+C0CRViA8K1kYw+S0c/+keSLF6+xFhy82DxhXVlnmgO/j4yXQA94Cy3XkpYtXdCFxZ2nhbsc+V2OWG+BwdtftMzr/Cfbsv/4/idWwOdRiQYtkhKns3sY12HyJEmjxiGiCAz0V823pLzjXEOAiApbYWIZhjnFT5WlaWDpU5FGzU+yc+IO9cZpx+/+cy7yl1AQYKIWCozRzMSqls8quzxMndzlTq1/W+Mk3vrN3R94OZqIn5Fq27Y19jYhbFyB812xgX4WL37Ymv7S4dvweTl+FoCtXIaNCkZ62ehC0oY4IwFbJWWdaZjLLRVfDg3bRlOLr8jqU3tKbQaLDbrdWOYdqdcYf2H1pPkMwTEAKvotuOJYi+cXEw96zDlEBQGXOGtBkzzvYaAf26OqeoLTNBiIxBJEDvd7L5RjekWgfNQtXmtcQfH0qf6UrfpP5TJLKj5cUmNAgAJGPeRYQ7d8c1f0SdpomG3b9ma7bUfTprZk0zu1I18PE7a7Mcr9hDpHquNYgTpfWj619ZAwZGwFtpL+JjVQd9+qeV3Xj5Uuavfga2sXjGg8iKUl/uFQbw5RRKC5oePTllF1Q+bl/ChKXDkyuRM/6Y+o4YTQAbyVWBXw8m5mwJJm0spfmRly4UujIMBEbRRgyuGyrptAvrsOBXz1IgFBzEhIRwx9v25wws0bf7uyID7SClHx9l1L97ftXPYPp4R5KzrH62CP1hU3qkHCsmubhn1VxbE2uEJJ/R8t8zv/BrtES+JdPuHEjw/ZPXRGVFaYoVG7iOxeskbkCAVFoHlB5xyMy59xFCmLOUQPATKg8EearDpsJkibbwSrDrlS86vFC1ZSRaYqic69IlsmhEr3plJYk5DPe9NghFBgyFnA6Fyk1GBn245lt9679+ayHBWwo7MHmyJ+Cy1bU2po4ArYifwLlkTRaWYnMm53TLtMReyPDzTM6l49f/M1SJs9Ycjt5Ce7K8dhF4GUB2gCni0gRv1Ab9W4bPH4fkERoC3X/xcljmfbtILi7rkw6hcwyfG19DlsQkGugoIGeqF9lRm0oEpMx0StjFv9ssG6FDpVaNSyD4pRg4FImhLq6z3zzBVRky1f8qzfvfTQ+uTS94Kk3QLC9S9ot0HafJAtkIaNnPKmlNrT3ND5KdqFmi1Nse7bR4+Q0eR+T2d+CjHOilnjiyVrvsotFe1npvq3LOh8E/qUD2S6x9eigQARaFi8kmG/r4Al0xPod3ylOSsyNo0yUTsLj1A/MlELFc5oZXZkb48NjnYoWlJlk0bqhFlLJO1L7cmlH9+6tTGrH4dsOZbafWjXHopVnfoD+HB7F2yAfm0Z8axVcJ2NYlssTqL4Ur+wH2yZ3xXJHZOD4xNE1A540Rgi3jjbMcqOqB2YN+cdcHT8aOu8jn9onb/p97I2bpQiaPklnAaS9icYJblYljMI0JFOAbRbYFq0SYvez0ABuvyJgRJyoqwIMFHLClHpRtgqGh0YZIOolY5GzTRicsjp+Yv2ZNNnIHfg6V3ptlpaclqKWJ9c9jBI240pPfSptFY0Wzum59KI+0ZsUniqtaHjzVHD4fLtqx1I+axHLe8409RltfTZPO3hKhwh9i1ojG+An70Pam3+GKStB3aG96+c1/XWKC9dt8zf/CH46HotbyCI2lt1rjzUC1hGwr9WXcuX8V4GJ2pK1H1k5oOJc6Xhb2EgwEQtDBQjnAdcdr2kdCrwy1foqtlq8JtXJ59aU+hyo1xe+46m/6eF2QDjoEe8EBx34UPIBHaHPgRXHn+yZMmW7DsUCgTAGncgMJ7zUhw2VlTj+S0roiZqDn0NTpCnDdsXAgaai8haU1jLE2bVf+JkigHsqPyX1oau5taGzdfevnAjTsAoflg99wG4XlB/h/ez+MKwBFkRoE1JzQ1tl2WNeE4E/Qr6jsBjBfqnuhPWgH+CeI4M/CUTAkzUMqFSRtdgN/ASBoJcjEQLgIbUGLxQjv6HXhH7eLmec5kLkG3Jxm5h174DytEvYLaMP9m1a+TOAzTgr+u77fW5lB12WnQ6LwzvXB0zaxpsDCF9DjZjZlnUmyBhf2Aa1gdTijbYnR3SrldSqp/aNQ5XLe82jXgbyNzPLcf6N6T7NsjbbatndRZtaSllDP09/KXwDtyzmy3Cn8mptrLiV/sSURrDS5/Z+pZRcpU4Dk8M1o9yly/ngAATtRzAK4WkMFuil68/yrLCBkti8NrYllz24XI61zJszNfvfu+p9TuWrlGq712Y+TrZydqIBHIFTjX4zbsisiwhDXUcpBz+/cYO5A8K/6aWsvH9SA1br+/Cjjj95WwHl1ONaWlxWHNVi0nWDUi3Gm29wY6JZ6Bp+w02jHy8ZeaWSSN55/tv69yOt5G9JMnGoTQQoLaSjpzmR1pHKowVOLnNT6Kz40o45Y5L1qidjUlIn5mohQRkVLNRNmnURF9U5aPdnbYagC3Wnpaoyhg1udYlb/93GO6+CwdRveiFrLmdtmFcPyVx/JEV127xvRss7Po7Qh/DgHAyW74kN/5dnVwyL/DYka2MQtwnoqmG9B9j0jTDf3mnyVEcQ28d/L9fb8nYV80q+SJtSGhp6PjYnddunrWqYcvFa3Dyhf/8x04BP3Y1sKX7NHYfgzRyKB0EYCwhTF8bigw7/hKWLwMvfcIutg6aPNao5eEhYaKWB1CjlGWvaUaYqJFLJvV0TMSahVgTvIOIEuAFkgV2a/8Bnxx/CE3HYS8uPGgpRErretN2/mnV3I6pBRIzYzGWFCBqIqtGDZokWgq8suHopJImas81vOoGVOAj6aPCMkLi8SJoq3ZwQkXK/cHS8A04HeBvlWPs1sJ++MCLh+6F+4yWME+rSA3UL4mZVW/Lpgn0WAGOViAE6FmD6cM0P8WZhnoZ04Lg/bAUdXB6yxo1P6B7jMtEzSNQpRqNHKpikIjg0ieGYGlg/qaWr002HihVfIspd/uOpdtsx1yMsxZB1rLvF6AlNUMaNziG+O+0cXhxpB8U6hieyewaNQw2CFcnjx4t6X4KtdiM9oF9l1uf0EAn8kRLpOldmHKhhP0bivgOTqv4SfO8zh1YIv3Kqmu/F/iIsebrfnARJF7LGwhCa7KCZUS6aLw0U/0UuC7Z+AriByZqcLyNTshgjZof0D3GLekO0GMdKz4aOtvIHb1EZ1sqlfpo+87lv6z4BsoBgI27bttjONa7MViTLWLWQIM7lpuvThmDv2qdTXZThQ/3P7GiF0u32YmaS2zk1Nre3pLtp2gjgJSx6fnWSNHA7JZBK15CTMRxqg3wqfdJ6ejfQIaXYdv2jZZ5XTc1L26r8nosl0713Y88sOQaLsEs/BNXiSVSm0lfS5/DKNGxgwEDGWI4k5G4pDXgASuf12Ql2wHmFZWyy1w+7cWWqVDVpqU6JYb+qb17+b2FKrOcy7lvV+N2tO9dqKNHzSmWFKVxlbDElpbrC2eUfnYbYGnm8NnfM3/WIm7WWOaU2prM96N9tXlu59vhCnBVWuNVeFlB3dwlUoyaF8NVyx/FzepfyqOJF+z+ug5sLmlpnd91A/xeZXR/snJ+1y3Ycfs2yoND6SGQ3ojjT6OWrqU+gs4hYIVBDnF0FWwyg2YQsNzyT8ZErfzbGO+O3hudSQ7s0rBUB5upz1UA9AWr4vpk0wNQUbbEcLC7l5C2WTNer4fsLV7ihx5HG097y1OLVE//bG9xoxPrQws6JkhT/jlevuxr0nkWmzRijh4SQ6oPqg45DkukSwzDWo8X8Ue9ieMPwdnu+ub5mz8w4qx0yZVbqg2NzQ9Cks8cDiWJANl3Ct/LkGjz5/ETqMb0nEFbP6XUN/8EqnyeEzFRyzPAUcjeNMW+KMiRlgFzPSk625LLu6MjU3lI0rZz+Xfhi+vT5GfNS6ClMlOai2HL9CMv8UONYyh6JrOuqRGhtFS85IjagBLNcGL72lAxCyEzGkyp3UnLB/An4mcRPrRIrbb2JI73grT9pHa8/dewqXszxeVQ0gjopYv8+d5D35zDSTZ4YqBRm7DvGPOKkB8bBjRkQCOZnWPtDa7ODrNG7kztecdO/XWYuXJeZxCoG7yIvMf/wKsGlQZtLHG9E64evngml/x/MrR8xksp6aU3NcdL3KjEaZ7b8SopzL8lh8MlFGgsMA1hvh3uP+5x7d1KSHgW9UIEoBmTNSnDl8NoODXOSaOGIwunHBuYEEwld2EV+MowAkzUKuBRuC+5BDZqxQ8xaHrwwH14466Vngzfiy9x6Ulw796bB9E/3wNl1XNelzCGNSefXDWvY0nBamxLT1peRW6dpCwhjRq8jkn5A/wAytLTSBFB83JqRMGeEy4oEAL05IE0Sbhz8UXU4Ec7uEYN6jQ89VMuGzwSheEmEG5RTcRELaotE6JcGLDhBcPBLrvivT84EkdgWW7jumTTD0OsGmeVAYG2HUufA7m5DQbkGe5mvoRnJO5IucH/+YCZ88t2df3upYfoscwWjzRq6P9Lhqi1zuv6G7xmDayRytayfD/vCIA3wc7EH1GT5qGgewmIHGKT0uRTdn3xBpq8g1qcApioFQf3wpcq9W740Cp8uSiRNDtKDfY5KfuzRRGgAgsFWfuFcoY+RW5QvATSqsFerVqKxH/nw8N9Rhm0PJhN60c2anh8ZmVMH7GL5P4COoyVEROLxaloBPwStdxs1OJGjZATan1vYqjoJvJQ+eKM3B4E4yhhIyB30nFNxQiuGl6Lb/XvqT5SjPIrtcyrd+75qq2HfuLFGS5h5NqrSfNVzx49fF9hMJPd5PQ4WyBHmktet8XbdtZsmeXp/pIlW0wck/h5aDEvyVMRnC0j4AMB6nUxxRGK/Jp5DkqbWSdPY2Xm2pQOOjPGisP3/COQvZf0nyeniCACeGN3ehkU8yO6PqqV3rhVNDr5yZ9zzYQA/BkpaFE/BwJGx4h5CsNLdktb53c2ekqQSySpkl4mD9T5jzuursmlqHynrduV+pAp4+8qls+0fNeP8y9JBNDt+9OotScbc/CjBrs4VwOumaiF/LgwUQsZ0Khmpw1dFI0aLW3B5uG/23ctfzKq2JSzXOt3LP01VjW/46eOIE9xpfWXVszZkFftkFLeNGqubsBSM/3UoZBxVzRsvNrQ1r1shF9I1LksLwhILSZ6iXd2HNsZwHblYGZmZEKBjTTTz86PP+eOABO13DEsiRwcwy6eRs2w2LltEZ+Stu6mz4Ls7PK6BEoarLhRPR32bV/Np9hSqh1eNGq0exKq2EjO0hcvXmPBX9oWV5OQT7A4b0YgAAI497XG65FhI9mDbB1O71oeueL9L70H2KkdyXfVey2iF5OJWvTaJC8Sje898Wyhl2XoqCiEH61/onF3XirFmXpGADsn/4COlfEaUmpAmKa1snnB5ry57IhX9SY9bXAhuZWI5NLn9BdnfxiY3jjs4sQrvByPESgIAvDQUdMzVFfnpzDo0g5n2+QzWn6uRi2ik6rRZC6F60zUSqGVQpDxyStfceAI9ZWgL2AQESy45LC1YG1aEPBCTrOhuymJ5cw11CZeAzlsNZTzd3+UpyXQtdvv6ht0elLZnsnhzj9yRO2OhZuuxC5PPN8edkR4BZ3jMQLhIlBTI3WtnyyxeHk48NKn63FHskbND+Ae4jJR8wBSOUSZtG0exju5nwzGChFo40LK6XviwKW72TatEIB7KCMuzbaUHnzGQ9TTUdBpT+k3Y//39IXQP0iPp2boy0MvOscMbUf+TcyIX1qKjm1zrDonLxkEdK2tDV8aNXhfg8faYOOEu+tTBDkMvmQALYqgTNSKAnvhC20Q3eT+8FlvNkG5y2cILHtK+d2Ht32ed3rmDmcoOaxNNh4QULvb0gAAQABJREFUytiAzLI6mj1ToNthr7xj/ua5Z66F+mmvt2dSVrXOXhcZ/0wtczvviBlVf2iroVDB4MwYgXARkDWYofvSqIGkBbZRI9nJd+NHZj6YCLcelZ0bE7WKan+9P+hMyS9Mjh7qlY7xPyjPu2GU30I4vn8ELh34MhK94j2hFvANNgHLpp/xnsZPTA2i5mn2XpVK1PveweZHEq9xl8++fzYUxl9xVMprEo7HCBQLgRqc5etPo6YVlj6DUwPSqp2wTk4tVoXLsdzgrVGOaJRxndaIz5OpT8GWPqFO29tnOryJIGLPVPu2lgGI9AmvJxaQ+OR2wjISt7fMvf/VYVcHat69Hv37VUsnNSns8v3mR45tLdP8EmYfE4aXefxmwfEZgUIiUKu0P6ImhRV4M8FIxWRcXzXymf/mjgATtdwxLJEcpHYM/RzIWqHC0107ml4oVGFcjncE2pJNG6DxfHR4V66nhK6PMMPc6Cmyj0hS6Ke9atQM5d8nlA9RPEWt63beDzPPd3uKzJEYgSIjQBMySytfJgNaqpyWPmmIMWx9dZGrXlbFM1Erq+YcuzKmNF7BAF0ImzEF9d3PxpaG7xYTAWkbH067a/G07Ei+kUjchpb5ncvDlFsZ4iVyBZItgMxVGUZxidrH0sdYfQMaQDObvHyfEYgGApgKSQlNtPb2okNoqe3jOblygjsdaMqZqIX4ADBRCxHMyGdlG6cg4/F8yjmsHVGWw0QtnzjnmrdVd7IbPfcD3h1bDqtitfjQ7Qs3+jJOHktWPC+96NZfHisO3QM5sjDWFHXp89ipVCecBk9m57bZWovvRwcBIk1i8hrxBc9EDRuOUtgkk8MuGdA0oadGB4PSl4SJWum3oecaGIZxEpFPeE4QKCJRNemcWBB7PFByTlQQBMiHGQrqAunIrs46V6IbTcd6y7mXgn+DQ85eLCXiLNLs44g25GU4v7Qofdaqhq4mS8Tfl5OmIThMnJIRCISAS9O0mLxtsffdASnHxhFSNKHP/k5mEorKhH9B1qhlAifgtaJ0egFl5WQ5IiClfQqn5uZXo4ZRF6/pvq1b+QD2HJsr78mvnjTln9EV7/HTIcOuLWZI0RoWYTK02Su1AaI2diB9HmSd/PLM18TGjhn+3VVzO6Y6Qn2Rz/IMH1vOMd8IuJrwybNOTfHMumqq6mk78wnPCTJWobja74wilfBFJmol3Hh+RT9Rb53EGlJ+iRoNp1I86lc2jl94BNZse7PtCP1VT8c4DYtHGiUDmqWDs+eFsrTh9Pb2YSh5KfugAPqv1JRe87D3oxVCgHTx4octZciPYclzegjZcRaMQEERIO0W/l96bGBC9ldsWLK0Ri23cQLz9UTztLaqgla2jAtjolbGjXt+1bY+0tgPFpVXoub639Hi6fPL5u/RRGBDctlGpZ3nPLrIGK4EHFPEHPLHlnNo398yADPnrBo1aIJRlrxMWvUF1ahdffTQq6FFvMfPOak5g8IZMAJhIeC+NmLyZYN1nonawOAQlj5p5cVzkgul1aLKSFRdfOENvhIEASZqQVAr4TRYmDyST/HJOF1qzUQtnyCHnLch5Ycs6d2ROC0B4jSBJbQkGIYoEg42MfOnIWXU4N6U4jIs3xeMqC3BLk9s79yaPiJqTPFGlZtvMALFRQBvlhSTjwz0eB7rL50UT6EfP54LT0OdE9JIMVELqfE9N15I5XE2RUYAThaew8Dj+lrIjygSrhzki/nJm3PNBwJOz8BPU6q/249WjTRMjpThnFag5UHUiwyYxwh0QoI1cci0cDZZYULdyVQbyrwaGsfCFMilMAI5I+Bu5qJd0vS+CNOIiVpzQnV97SnP703v0DEb73dOm86gi0s4ONEk5+pwBi4CTNQq7EHAC/QsVNp5I2qkLMccbrDCYC3p6rbvbx6EInQ9unbP9SDbF6R5R/N1bRd5TjRKRBD7g9BXgajR0zN6sIw4HGkW5nSC5rmd74M872WSNnp78J1IIUAqX2wC0AN4N3uUUnvw7HbCzcadgwNHZ6zfvarHq7Rrt6+2oYU7RpQvaIAMCUzZWaMWFMDz0nlm2eel468ligBevefwRueNqBEs8AcKWzgOpYMAXFyqrodMaR+FzB59lblLgVNEKv5OpNmcS12loZ7Hc5mVqJH/MkPLWSjr8VzKy5b2Qws6Jgwo+VkMVFV8TFQ2tPh+IRBw9WTQksHkABMkKWyVgnsdfQTXDyv3r6ATPnYq09lV33fxY/fuvTmHyTL2YYuO4zQZCx5kAnKyRi04gOekZKJ2Dhzl/8UW9gFTWHklaqaS1eWPZHnVcGP30sdaGzq3o2sm4uUpYHklobXzjiUNW76/NdkY2EEmLGIOpmIy6wnnNHBgxfVVnoTLIRJI2v/BLs8b2WdaDiBy0hwQAB1zly5N0DJYSYKYDTn9R2Fs8KjQzq/hkPY3yPyIIZ2XnZj9UvvjLTD8DzfgPYPPTdduNJBaDX0DhgHWqIXVKkzUwkKyRPLZmFxxoKWhC0Qtl9nS6JWlwVSZasroMfhOVBFQUnfCAe3vkU7U0/OBfhxDytvHS5tmzoHPdV27p+mlloZOm7QGYz2V7okAUlyTT/zumL95rhDmn7HPtHyizHlfiAA9/cTJDNj4Oj0KpEw5zi9x8T917+AvevfXphpEt14jPo9XRI71mlyYdYArkOUk+nKaPAVyh0O1gZQT0Y8gq/zLG6CKJZWEiVpJNVdowh7Dy1PjaTD2XSQGb62ZqPnGrfgJ2ncsux8k/utYsrjYizsKIuVxo+aKQbt3EaR/MLca6EPgh5eOtfmTliHh8ZyWPvMSVi/6dSw1sOeH2AWbl/w500pEIE3ASCs2/ImIGHanuO4vyGAfP/J57Hzerkz5OP1tSzZhw9eFAduPEda4v/P/y4CWLjhRI/mIqC1p2BrbmhSBte35r2dplMBErTTaKVQpoZnYZRjmFV4GY78FU54YTuf7Tcfxo4EAyFe7KWIfdzz2rbYeEoZp3APpcyRqAmePyuvGUhXQswUSmTeilhrY/WVoCK/hDQTReBZLVQopacmSdl2aIGeGGNJ9J9Dn7sbzvRNTgF14x/bjB7bCsedmJJccXJPHzV1BMdQGdn0q2pwQLNAkTmkxaUJ1NXEMJmrBYDydionaaSgq5wOOANr1/9n7EsAojivtquqe0egCY+MbbMDYHAJsx/HtJDhO4txO7CCb05IgtnNfm+yR5I9ybDb7b5LNbv4kDjGIS0BE4tz3YRzb8YkdA+IyYO7bgI3Ome6u/3s9GhBC0vR094xmRq9gND3ddbz6qrrq1XuvXmEAuY1YqrADRPa0cnxj2PlyfrlBIBor+aaIq0/b/XFM3UghOy7sxnxb3bgFldhZdqLbowwvFSax/iVZ1F9NGfW42SGz4munrLhe2M5cmmA4MAKZIOC6wgBDRgwavQ+w29xgC/s5R1hPGob8q7LMI9o6kbjErOysD2DLmQlNQeNqR+MIqfR2o32Wg9cIQsTh4lh7zvwe9klLETxgRq0IGjHTKuAd2uQeG5SNOQlSD4TRU6fWm6tX16fxjZUp5Rw/2wjMX3PX/tpJy5+DNOD1XiVLrmTWKJsJ2h7MlD5sRHBtYKS092No95BcinlTlo14aO2sPR4ie4rysbG/LWmxj39dycgQ3kDgCbJBFim1hCAbSndx2wEAaFclfb8GadlzWjmPJhKJ5xZvmrmmGMBRCvUKIFFzzWqkOLcjmju/h8WAe191YEatL2SK+L6j9cYIVoDZcOPZxfvJ0Ycvv221EH8oYhiLtmrgtRuUinhm1FwpgtQ1AKRfRm32lCXlkU45QpvGxZjyRmgpR2rHGoOV92hMCuMc6YWv1yJhGeNQVmiMWmvs+EcjqvTNCZu9yhRtp/ZYMVJVuhIy1xWGIRK63QYjtguLiJ1gPnZqLV8W0n4JUuTNTvzElmBSZI9EDUA0K2G9ahiRAKpPEA0bNWXk7iSRAYApZ0Uyo5YzqPOnIB2xN5GnnOwEYtUk2WO/FxfMqGUH5KzmajjW3yzRQQ4yK7wU1KUunDD7siXnLd02xz2VgiRlldKeAhfnVymtr4GwbLK05XBtunlWgEmrgOsBMubBeE59hv52sfn9FErSO0O5Ljr+0k80z49qJ664Hnl+I2GTcITD4EDglISMmDJizlwNA65wQscBqC6fgxPmZ9Ebn0F3262lfUJFKl9rvTxxYtWq6mysb/MO9vZNpccrqmwwaunfyd6Jd3eEn2MYceYxegcoo7sMYkZwFUfkJS/eu/eDk3+axcpoCUPS10+7pmnoqjXVtLOJQyEhoGL74H/2BUxnb/DCPFHVELcsUhpZCF9sBob26wwpzsahT8KkgR7bv5LDfbdBH5dkz5hpoJwgESaJWuBw3zU/xC5PDSkgztrxPSEFJoMzyCEC6HbwFwELLNfpN7z4a+d5sBR/U5Z8/Oxo/IlvNs9p7ZOcrLpZ7rPUAXmwSlTbtWK5FxF3n/RFjJjo1G2eFnt9ZsIPXASYURukHcFyOg9iJXl+NjYUEKSwNpoytNO6Dpd/GqQQF2y1FzRXH62palyLVnyD10qAgTLBlr2LGh5OOYUNo+rsBGL/ZChOb632yo+DiZySHTo519wjgOWC6waDpGRJezLYWcLDvngF3fIQePHdUup1YMxeRLx/NKyf3qsbjNzTPbAlkklCqR07x5L2ecAJc4Ie7zi0c19f7I7kPslzbVcdMQrJN/nMgpN1IcCM2uDtCi9hsDo/afsfPgiGNGOYrGfiZf8zXnaMlRwKCQHoJP8ONyvzQHOJV7pzYYgPCQjJ1AJL1GonrRiJ7Xmfx2JFpeR9XuvJ8fIDgaTKEj2V3GFAKBp32tCkzjrI8190bOxsV2KtcJzDltJHhoiSA9/fUO35vMv8qGF2qJg9bsloI2JcLR15pVR6grblBTixZjjmgvOwc/UcOg0Bx7qRvzcQ4H/opvcKI/+l2anF4MqVGbXB1d4na4uXaCsGuluED/XTyUz6uSCJCgbQe+dNWfXlh9aKl/uJyo/yEAFHtj+mdawNK2zPjFruqiHPCloWlF/LlDKH5YK5DEorpycESEbW9Q2pGQWozrfb2nnMEfHHHEv8rfVEZM+w88dax8Zsd6pWkRf/+vD9D7klF86fOVVLLsGi+Y1Q+N4EGePNYLvID6HCCSQKJ5EYuO+CmWLHksxZ5iYJvSMC+BUzar1jk9ldZtQyw6toYkOatpUMaQMsmDxgIYVtJX6CiOS5nkMBIdCwvm43jnXaielxWP5JnLRZU9VwwaLm2gN+IK2rWvERU8XeCMNxP8k5TVYQOJ0Roz4H6Ri5wCDffLAb08cdKTbCvOwfGLueanHMJ1c1zzjTkeoexIaDjKQX/6wQmleZuq5lKluGGLaocGxniK3tSYaUV0KWdR2YrxtLjNIoMV9k4uKauUAiTYEYsyS76/7Myh9SfWKX7KVZyXyQZcqM2iBr8FR1IVHYImHxnc1A0gpDRV8Hv1yfb1g/49+zWRbnnQUEtGjC2cpX6azZm2VOc3LlLw2torCfERkzajWTl02GTuffmUnLHPswUxBb5nrwx2KR1Ja2k4BdYxxsltyCNn4JI9M2TPO7sTv9ZTti7FnyYvXeMMsv1LxqJjReDnHYWEeosYDu0hZ9bAT8/o+Bm/FRhoycC7ch6N7ElIE5w3fcbhuwqhJjCCneqAEjoIgKZkatiBozk6pETWMb7X/Kdkgebq3/qa6q8e8Lm2c+ku3yOP/wENCOXGEY5tfzUD1owr7mItQ0I+ei2OVZZnWqr0DaMDTLouTwGqFIckoyZmTkT/ZkitxgtEHi8hS2Xz4JwdnfhVYbZGmkVbaVdJgVBzrmr7k/USRV912NB65cfHHcitwA7eQNkCTeAAxHgXktxXaaGEbuGJhYI5k57uKCxtrkeOu7yFATkkQNdI4KNdNBmhkzaoO04eMJ+4Q02mGMAEtc9zXPHhAYnGFTpL9XN27FWxZung7XDxwKAYFFm6bvqJ3UeBy2jGclp4J8oNqVqZmYpIhRyyhYnUNuR13eR9IGDtlAILnwo7+QpkDHJkk16X7Qai/DpuwpuH15NqYif21YN3PQS8jIPUx7ojRaGomZiU57CI6cmqK0vBG43UQf24mVKJlSWxKm1PeTGFPruapMusjT4ErUpJHxe5qn1RlQsphRG1D4B65wR9mdShuHsEq7MNtU0AtrqpIJltmxFMf/3Bvm8T/Zpn2w549F8a9gjDw7n1bqaBMTbhZI9ZlRwAr/ftg3ZZSGI/eOQPfzLSkG3P10QM21C8zEXshRdmNc2Qi8N5qOsfFHm+7Z0nsug+tuTVXTBdgCMVIJ5xJgM9rqEONNIcclrMSEqFF2DrFhcK6bVF3CrsxyCt8JsykjAs6vK1Y1847bIL2dGbUg6BVwWuz36YCneDBq4kJXRpHlumAgh8oj8mbYovz23kkr3794/T3bslwkZx8GAkr8Cv7R8oxRA5smtJ8FBnwHcvCOACksEcDcwpLMtSmjK9iSkeuGZkvYz2O30PPQZK6FJOgY1HNHzbLI8fns5FrUXb3iIieurwFeV+Mc26thVD9CiEQl0MTmHDkMO44jyXZw2TO4FkkxZbkYjZMl5+IvSQFLpTUGZcEvIwe/CDCj5he5Ak/ntKkOEXOdQOasJklbJzUZK8rf1Ixf8XZSreWscC7IFwJQMT7lYJWfVLnk0yQizybVUWa2THoXHESRzoiDNwSS+/a0Pgw5z2OwgoLLFudvo5pnrK0XMrl90Fs+xRgLPCx1JKnvG/PDofHSyhvB1t6Me3B5JG4UcVmCnuaqJ8GkddU/9Q25muujrOt2EX8Ro2ZINRpVZEYtQDszoxYAvEJOGi+JdkSERapPVCOXMxdMYaU5zjGsJ3Hc0LSFzTMeL2Qci512pVtbbV22Hf1kTC57SXpc9dkQTpQhnucjytDzdnXJiNJnX8QxXAzAsNI3/YNam5iuoxgJDqONj4H52IFd4TgwyfpHVIj18zfO3n86HDNP/1n0v7SsvbphuN1eNiyKo9Fs5YyG6nKSlMunaL38GmGUXgicMIqS2jL5yXf7sZw1GbH6wh6Vs/KKtCBm1Iq0YdNVCzYD8dqqFYcwTueWT0NxJFmDM9wLMKj9rq5q2b8sbJ71vXT08vOBQcCI2R3QyqyH3msM9vsPDBG9lIpue7bVYpfjkWdGDR2dbKd6ya2Yb0H5BqaMvPfTjksK2HF5GNKxDTgzdb3Saj3s9vahaQ9acIPRfoU4MFgOHu+r1edNWn4+HHZXCWFMRH+ZoMXyi2U8dqEy9AUw7b8A9rZRcn1BLAgxZOzqpS8kaWrBmKHlqL5j8BMvCDCj5gWlIo2DV+ggJl+afXM+e3WJ/isg5fif2gmNwxo2zvxakcJc0NU6tmZYZ8UkC36t6OzEMEOKZcK3a+Cf7ILJfpGuJHf4P1srhxg1zwHe2I9ZsK8q3tCFKfAkWzJCFIsinKZkPePY1uNQwT0Bd/TPtJjma+UtrdaoUaOs+tW3Wqfh8eJpv4r+B51zGbFLrtOOdTNOE8NuS/16WwtIak3iak30RMyRymU4Um8A2dty8IoALPKwccJrbI7XOwLMqPWOy6C4i4EHDkPdLfQDeUyQEY2Uf7Vm4opS0dbx1UU7alNWtYOiDfK9kqtEtT1XL9+eqSonxYa5awBwDLQewL84Lql98dHtMN2B13m9AY+apeOsg+AHqni1EmlGuKxYf+BIebZSilSfnoM24P3TUXTeY4XnRHkXMYUskEziSlxtO97lNpzO2IZpEe+0flpo6yktzacXN8/oe9POjryrXOgETZvWZERfiJeXxlRpQqgKw7ZHa0NeDynPdcDpelOXnA8+DD+JGYOUzF23pnpfasGQ+g6dvKLP0EVSylFFX9EsV5AZtSwDnN/ZE6Pm+jkaSEbN9Z4dNWL/ligXVXOrmuoWNFcfzW/cBhd1mPz3YKoiF+deGaMEJj3YNcm9EO7sweS3D3nsx1S435FyP7RG+xzT2rF07RwcDXQqkHQD7hx2QfKFHXL9T46GMMtsaWUkUTOcaDt8VR1HiQXDqCXdYEBtSepL/MPuwE4gsx07LF8GvmCg9cv4vdPUcrttWlt6YnoK3cFxVXt107kqnhiN2o5xtBytmxOXiBJ1Gby6XaqkMzZiltFx4/iX9NzP0rEs9wuX8RV+dmhnmbDCyp4ZtcJqr1Cphc3KAUyoeaELSsAQCrKCO2Ab8jNM2O8c7BNOqA0dMDNLOAfAKhBTlZZRg/2OsKyOT0Rsucoo0faRY2bHqj3VJEXrn/NCBOM12xblkd2uzi5NbPf4ITuekS+1hCnacSbicYhP0jKCASHznfwUY0aaN03+yXbjSKAnHUM8rRzrGcOI7e0UZmulbbV9v3ka2gSeSgZpgH+uaJnQ12IXOaRj4npIFafouFWJg4uon5YBy5irVSeEXJg0GF0+3zX33UWa913zq7L5a95Diz0OPhBgRs0HaMWSBCvMAzjCJQ5pB6o08OM9ickNZb4RdjRPgVm7gZm1/OhpphJHIAXzPMhC+NM+f+OMI5lS37qjPAF7uD1kX5W+N0IqIiVJTjyHiCUgUaNdjfkQTr5z5PuEPglUuh0Lp3XkCgMs2iO2Sjy7tPl0qWM+UJ4rGupFvdp3zYXGsegwM3o4HomVG5cJS98IBSWYMvlmJUlFTgH9xTXuP50yYJkPw9rpRA3GX5AIxFtbzkPVdwzG6odRZ2bUwkCxQPN4aP2Mg7VVjQksN/OmBrQjFIcLTzJs5+m6yY3vXbhu5va8IW6wEhLvOCzMUs+iCDBQ5Ngz40D2cHV6+R7tQUhEtkSZGim/NkS0V7wmcCRWbuZvsiYjCZlr2I9vG8JrLEYOoniohcV+0AGVMjz4K2cz/NWta2ievjtj0IooAcwezgZrdQHcglyAg8cv3gnVpegUVRWd1gSoL8dHdFnEVjh+vMsFRp6dllFELRFeVZLCTLhXV9b5yHVHeDkPrpyYURtc7X1GbTGVvIKbl6SXYJyRNGs3aABWwqjSjvPLuRMa37Vg48ydWSuMM06LwMLNc0+AoYf60gtDj328WuJsV3+BNrhA1UfqeHJN1Wcg6asjBXk89xxWPVndXjdpBVSfnpNkFJEYMtcNBlxhkEuMuNPWDknPC5COvQCpDzz4623YgnnE1vbRTlXyCrnIyaiAIopMasty4VwJWdhVaI6r0ZpXwH5wOKoI/3j0iZQb0FuSVIyYcvrXaZ9m0lhEaBR3VbBpyNDCJIkaB58IMKPmE7iiSSblVkzAV2M0zKsq0QCNia8KO/UeqRv3iysXbr4DOwQ5DBQC6B2tJCFKJ4tyu5F0Yn7phHj3IKyzSM2ahlFzwBbJUYiXUYDvsFe8sJteM01ikkQFLMUWrRNPCSexWjvyEZy8sbNefFnWiy8BPg9iQq+FFmA8LLgutZW4FW12K8C4UdCxQiQUhcwR6OHP6a2SPMWkACvKJPdAAK1NhxMIQRI1Dj4RYEbNJ3DFkgyr1S20+sfrlHeBmDUlIqMds3XNrGt++qZla+4ilRGHAUCgS/LqqWTstqPTc3wFw1UNSmLU+pfKuVIWkZFEjQgCZ3AInQpb/rq8v/ZDJTEPpLpMShLRG7VNmyKwI1lj0SDhNFZugHnZWq2N5xo2TH/6zKymi3qXh8PfIg908HapKYbKhHWWaehzLEdNBsP9ejTTFKnk6yKqFJJWbEuho5PIngyfZMjHkafIGyvL1Usy3WDN3P8kFdVRx9EZbfzJMokFlz0zagXXZGET7Lzk+nQMO9uQ8us6xeDySHvHr2dNWPruZWccZxNSQZxN/whoccSVffQfK/WUtiz6CkpED0AFllbHRaqwqFFmkkuPDDedHEBSMt4/jcYkU0YqS3zwiHYhgzXbprUNZkxtxJyzDeeE7pM6sTth6P0o85CvChZBIlJbVorOCUIa48CIjceEPAp+2y4CqheDEx6hRMlZUYUJmhgyHAkKVTarLYug3btXIbWISdlfpr7JDtPSiWNo/X2Ivw8dYC82rO3ThvNI9/R8nRkCzKhlhlfxxbaNl6SJaSiPA63CIdl4XUTKxTiI+12ZHcSdxxUrJNKU7ATn4ilAPnsaE+QpUVck8qGHM2Cx+9FbMBNyHGI+7y02FvmGOgDbR+x3ICN/+peUmOHEgmNK24/BPcyTCUM+YRuJzaUtsc5j58PP4JMiThsdvJZRbPFqJi8fL2x5k5QaKktxAzFlsESMoD9EUNco/N4pt726Gs3KD48/xdYMOaoPvROuGNj9Js108k7yO3mKCLZ76M7jkJJtwUmxWxBnMyK9pOz4lrgp91ZoI/Fau7bLhw61jnW0W2KDsFeJ6YP2/Qmj4ZhRCwPFAs4jgpeNrMHyPZAEJaJib7U69HzQWpvv9BYdfRpm8C5Tk75mUFjD1Mx/gFIMZ3KKKelyIEmNNs3xiOeZUYM2HSt9vRPSnh1Y7T/pSHjwj8SfXvSPWnKEe2Yo+j3HWn5qxKrYwWGJWNSJl0TMknOshLgOkrEbMCnfAMHjFDgXFtiZijcQ/1yVJXFkpNKi4N51r/hPISCQZLtOUUrt6Kqh6Z3F5hYNZ9VwFYMPvlthGrMNDPoW2Fxuhb+6rbaytixeX7PtVHq+ygUCzKjlAuU8LmP+lhlH6qpW5DGFp0hLOJ0ati41dRMbjy7cMPMzp57wVbYRgNG35YWdJ/Uo3GaQjZnvABkX1I3yXcQC9BeIaUBZJFHzHC6ZtmldfX09MXeDMtSMaoipIealjmNcAnu9S4VcMeZVR44twUeKksuVLquIGKSuJDO+5LdFdmUcCgaBpLS4S2LsSsSSUmMcHm+DLTuEt4p8HB5GAx/BjszDeGVxdJs+YAt1ABKy/YlOsf/yrRcfqBc9zoEtGASKj1Bm1IqvTTOuEYbjl2GbMzq5Ws44eQ4TaEm2QxC1f6J24oqdMOD+3xwWPsiLkqTm8hQw+Hv2udZbhpDkbAJjiMV9GkYNjATmoYyYLjBpKSv23oouunv3TVp5GQ4ZvxZHJl2HFwduMMRFkI6Ug8ElX3eVsMeDCzegjUYjxjiO41A55D8CriLSVd+DIev2bes4/PUldiftK8V2PNoKM8FthlQv49NiWbpdGEZHNCbaS16t6Pju1nfyCfP539yQaXMY9AhgStwEW53RXSLwAsBDGnCK+tV5k5avhtPetQVAcOGTqJ2zYEzvoR7EYIm0mwH6ywic1CaSB/TPplExJPHJjFHrr9wCfAbXH+Cwpq5W+05skU6i/HxLmzeCCbsFn5vBmF0DKYlr0A9uDHi57O9pDLC7C7MAKz54SIbcE70c4zO6urtyoUa0sajei1+bYC+4CQ82YUvtppKE2vwQNCSDB5vBU1Nm1AZPW/dZU7z5m7Eqe0fambHPHHL9gBzzmENsx2q875qmW+avqX411xQMtvKwgh+WjnFKYSKlQ06UfYeYdDbGPexHcFWfQo71XVCBJZwmmozKq+3zdYd1gTQiw7F59bIdzooJcBRSpUXl60uM8iGwI8I/qC0lDqIi9SVcYnDIDwRc67BejPMxjtGig6TQJxAHtpL6ON61FjDax8Fw74XIbDtMRPc7SuyxHb2dd77nR3vmkgpm1HKJdr6WpZ3N8Knu+izIVxJ70uUeNaUikxIdiVV49raez/l3yAhIMYxkWOkCTUa2jgRyXfGDdTOPwW6SOAwP45Muq5naEFu0upZ8nBVVgOuR0RE7MhnS48mAvkqKxHk6Ic8XyjgfTOpwQ5WQoAWPSNbiQG0ZSJBZVNgNXGXQJCdVkfQ2JFWTJAtL4KQKNNROXO4EfVBP6l1QOeOjYDcmW7BVugVuLF6VTvtxM2af4N3tA9eK+Vayh4Ew30hmekJHQBmk+gw927AzdFekGPqS/0mV45obXVYzaeWdi9bf83DY5XF+SQRIkoMN+RXe8EBPUonA6hdMYs1SGlfCj1m6YrV5xBiNSBvTRczn57VXLzxXdJbcBP8h+NhvxDbLKcTxAgfq6Oj0UG7RVzdemXxWcRg4BNzx6KSEjIYlRT7EOiDJ3AR15WaINMltxSbblJvMyrKtLcfNzmGxY3pL5X49dfWXMHh9WdSL+kFlMzlwrVXYJTOjVtjtFwr1Tjz+koiVhpJX5pkk2S+yCk8xYsSAQUJAsxDE/9giLkQ72MhXsFUcthjOBhhsbDAsu5nPAM0cbT8pyqtazxWipMxLWvKz1BlRwU+QkGIdpLxX2mnlvLBl07FLQVteM2rw/xexO4ZVguOtgEuQsyAlG2c78lr0+WsB2XURu7QM0hRXXUkzd9cixAvkHCcEBLpGIXBbqXEomSkk92gOnJQhJUnDyPCeVJQkuiSJ2Hb0vm221NuseGTb2AuHb6tf7W2n5GqwaBwYAa8IMKPmFakijherLG1JkGNCIdEfui3ZQ65z991J5P2dJnXsMktgJIT4X+9CybvAou2GOuAQjp05BAeke7SS+1uc44dWNX+EmDYOA4CA4ZQOd5TjiZMnZ6cr1oRh0CxfRH+Zlb47guXR9qgBgKXfIudULbkE/sfGQshyuXDUGMhZRmqRuAT7VEegf19qyhj6P6ktyY6M1Ja827JfQEN46LJgZ6glcQqFDR5MOHBRIQ5gMYhFht6PdoKrCgkVvjwqlTokHfsV2xHHop2RQ/O392ETuzkEIjkLRqAXBJhR6wWUwXbLajnhiEgZGCSBnZ9+A2lnMKy5f1Kr0uQ3MWikwoLX990YBDfCwHl9QtjPwYH9WlvbR5Uuj5vaiJfbkTi2i5MkzT8ZVD6HUBFISGskDlYidw79BlL9QAIRyD7tZAHaWUf9Jn2Q8DbhjEofL3sxPoxzLttk5+ulMG6GFf/roPa6FppKHEyvYxAOxyB1gWuT5LtAHRuSGPeIquxRNJhyTo47VOOTV65ULOlHLCUhI/Qtp7MNTPEGMGUbsVNyB5iyl7EYfNGOlhzUOp6w4VH/LCeSMDoPJM7ZejTBasnB1I/yu67MqOV3++SEOrPCshMdei8mxtHgqDyUeYopIyUlfsGTte7yZk1bzRQOrHaaMXTCcSkGRttYv2DjPes9ZMxR8hABJc3RYDYqicHoL5CEFNJRMOPBQyLmrI0mvDBqmoodFbzEvnMgtWV7ojRqqMqI1dlSahpinLKNa9Hx4cFf3JpQ6hwTPBnhQ2dbJs3KTuWXDrdTMfmqbwROjTkUp2vcgRaAtrVqOGOWFnqCBSasBRLLLYixDe2zw7F0M9pjw6JN03f0nTc/YQTyGwFm1PK7fXJC3bGOYValsHBsD6bjrhJJOkIzYPI7uTqFs1n4zhSHIDfZB37uEAbGQ4j0MlapOzGl7lSGveOhtXN2IItUNjmhnwvJHgJTp9ab8pA9TiocI5TWsB/9RcudYVBTJtqOxB0DOwlwSnqa7oSlwvlhlJnK474rlg/vMOVIpZ0LlSEvi3eI8TgO9wpht4+PGbERBo65dOD+glSWtPuYz7ZMIef3m8YZ/Ds53hBTlvzYTicxYoeh4D6CbvAqBpajeEhqyn1QHe/Hjsm9jmHsjScS+9lthV/8OV2+I8CMWr63UC7omwhn1hvUwZgqxVgIL0zw62OL+F6oB17CInWtdNR6bestSsnXbO20RCP2q7CmbV26dg4Z1XIoYgTG7B9Z6kTkVV6kQsTUQ7ARnqWO1lsh5R0HFVW/CGPSroAri3I//XHaiKbSimHWddJWU9D3SUJ2OUTDQ8EdkoPfIVBnlsF3P94LogEWZRAc2zYJjzlkisDJRZ9rJ0asWdJ1RcK1z3P2AOHd2DH5EgafLTjmfbcy4E1fGCcSTqJVOapVmkaH3dratmhH8bliyRRLjj+4EGBGbXC1d6+1XbWq2p47ccWSDt3yKCQiaxrWTw9FfdVrYXyzoBBwzEocN2TdmE6qRZVyJSKOhtopeNhSeYUe03FgK6bzcf2zaW5ZFSVCwc9bXyciaHjwF7L5xlUlFSfsqyEKuwX1eQNu3QRl7dkQj+GyZynJ3yQx4+AHgRSg4LJJUA+zPLC52yGF3CzITsyRmyPwpt/aefbmxq3TX/NTAqdhBAYLAsyoDZaWTlPPBRumv4Ao9OHACJxCQFk3RGVZxMuuRJLGSsfcfiqx/6upqx91dk4at42U7h5ChZWQ7q7UOeMfPqdExM+xI845cH9xrtK6SqoVV+3UYtLQE5GJBqTG5LE/6bUf6kuyquPQJwIk9wIHjr/UDqlveNXTCbJNPYGb2I2t8S1T1zglRO5AVHjTd/YrpV7ukM625etnHuuzEH7ACDAC/SLAjFq/8PBDRmCQI2CLe21FG3HTBzhgPa5NHcqEjB13us5ZvlUYUKf2FHadQYo8G152/6Nu0nJD644LIQO7AFKyC6IqWkJqU5cZg5E/qy3PAK7rBpSQKXWk+00qSSNpf6c7j0MCST7DoJqUe7B/ezdsAvfAPvUVQzk44kgej2v7uN2pjjduncWSsb4g5vuMQAAEmFELAB4nZQSKGQHXSWun8T64VfFQTZK8iD2mDIdRQ4HgC7AxIY19WpIwXQbt2l3u/uOTXJ0mdwwe6B5MUZISMVJRU2O5/3Bt2XHypr8ReO/QTmIjnq8Xjr1Zl1jbbcdIGK/Zdmt5uVN17rmOgKST3VYMpj7Ddc0HBJhRy4dWYBoYgTxEIN5R8WnTndS9EQerpD2dwglFokYlYjPLMUck2sFWeHK260H05q0iBROLWC0KLpPsMl60ExXSLxKBEpeKj8QHHvW1aMPOSeySdOBJ39iEKJu1NnYv2jB9A3JJK7OkUuhQXQ6MACOQewSYUcs95lwiI1AQCEABVgeHxB5pBXsgxU4/Oy/7KsDQ8piTlNB5ZNT6yqlw7yd3RhJDRurI1LeikwzQMPogOCw4GHYOAnw4bdWHoAI+iKMaDsFxCLzpRw4ZEeuQirQe7OuA78ViRuGCw5QzAoMEAWbUBklDczUZgUwQqK368e2w6hpJG/Y8hgTs8kPdjCIj1nFhK5LQXeSRhgKJlpKEpcjFb5cJ61JJdtmLkXWdbXcewRaNjbCz2yIcZ7cwNNxXwJG0rY7jlPZ4O1zql8qKznJ7J071+DjrelOQ8jcjUEQIMKNWRI3JVWEEwkBg2rQmQ260Z8JQvJSYBY8h7jjmcx7jeor2qh09XiGs0FSpngrNSiRiwFwcaYspScKg1SVRJbzmut/iiIb3fNzeAZZtq5ZWsyHN5ofWzziYFXI4U0aAESgoBJhRK6jmYmIZgewjUL7Juhw2/O/MrCTZNvqeaS+I+sxS9Rd7VXN1S23V8rxk1FyZWJcULKWWJFsxshHD7tJ2iMiO4ge5rIAnfecofh92tHtM216waLsNpfa0J17du2LL/Uf6w4CfMQKMACPAjBr3AUaAETgNAenomYYqgR8ysklPH5KHp+vH6+vpoMuwg9yDHCGOIrdduQ9JJkx1ua8gO7Hk+aNxp60dErCdkIS9DOdxOyAhw7faobQ8AjVlC65PGLZuFypywogdO9GXjVjua8QlMgKMQKEhwIxaobUY08sIZBGBaVUPnQ0fWl+wHe/HJEFNB/O0zhXZIAsMEE4nIB8dGWw/9U1ISkVJ8jJc40gGSMheBg3rHcdah2y3wz7sJXlO27pLn9jd+iXxJXCP3nZM+iaJEzICjMCgR4AZtUHfBRgARuAUAhW6dJmCs1NbeGfUHKj7jJKWn5/KJbwrqdQ2GNGTpC4pyuo366TQzf3bxde5DBcxXRDKwVcYVaoNHzqjlj50TZ8jkJxtw0lS+7BzcrstrK2dQ0q2rHqyuh3P+gzwJ9bnM37ACDACjEBYCDCjFhaSnA8jUOAI3Fu19L1gWN7hzcFtsrIK0jQwNr9dsOZ+75xdBjjBbe120HTGjoakSpLYsKQ6MvVNZ3PC0e1xMFy7wKvBZYXYDyZtF57v0lK9guujJj62kMcslTgapjuRDKrFURkBRoAR8IwAM2qeoeKIjEDxIlBzVcNZMmH8G9R8GVXSVFG4kLAezChRBpGj0dZtiY5KRQwhsWVJr/o4a9KJHwITtkVKOuRb4qM3O0pvMRzzkI50OmWJcqukUth7XhN2VfMGi73pZwA6R2UEGIG8QoAZtbxqDiaGERgYBGQiVovzHq+nw8q9BmKc4Hj1FduIPe01TabxYITfVlu14j8gKdsJ4dlLtkpsXfLivXszyYc96meCFsdlBBiBfEMgadSRb1QxPYwAI5AzBGomNF4OW7B/YDAoy0SiRgd3a8deVhE/Mi+LzlaTBmY5Q4MLYgQYAUYgvxDwYKCbXwQzNYwAIxAyAkr+DNK0jJg0okBru1NL53dZZNLcYkKuLWfHCDACjEBBIcCMWkE1FxPLCISLQG1VYyOYtKpMVJ5JCuhwKb3PNpw/h0sR58YIMAKMACPQHQFm1LqjwdeMwCBCoHbSio/DWdjd5E0/09B1NuUvsWsSh4JzYAQYAUaAEcgWAsyoZQtZzpcRyE8EXLvUmqrGeyAR+wY2BBh+yITaU0Ri5pf8pOU0jAAjwAgwAt4RYEbNO1YckxEoBgR0zaQVD+A0gRXwqZ/Joesn604uOcDt/ef8NdWvnrzJF4wAI8AIMAJZQYAZtazAypkWKgKzpyw5r1BpT0f3fdf8MFI3afln4CL2B5nbpCVzJ5cc8GF21Iy1fCVdefycEWAEGAFGIDgCzKgFx5BzKCIEIrZRBYnTv2FPo6siLJaqEQOa6KhYCiex3/Rjk5bCoesA9q+Rf7PUPf5mBBgBRoARyB4CzKhlD1vOuQARuKT5pUeV0GPhZPX5eeOWjC7AKpxB8tyJy24zbPNFHKN09xkPM7wBSVxziVHamGEyjs4IMAKMACPgE4Gikhr4xICTMQKnITBjcuOYEkc9ZqrIRY4T/3chzG8vaK4+elqkAvhRO7bpXF2S+BIOWf9IEClasqoYKqS2sQGhdtH6mUsLoPpMIiPACDACRYEAM2pF0YxcibARqJvUOFdr+ZBBZ1k68b1gUL5rGPZvFqydsz7sssLOr27ciots034/7Mk+F1WllyScjsBFRFQJHXa+cmHzjOmBM+MMGAFGgBFgBDwjwIyaZ6g44mBDoK5q+fcMVfJhMGqoOhy8Smev1vpPUWl8bf76e7blGx514xZUOpHSL0pHTAO5o6DqhFPazH2k9ayXISPC1onnLMOaCr9prT2f829GgBFgBBiB7CHAjFr2sOWciwABSNaek8K8JrVLknY90hmXOCT8T5C4fXXRhnseT1YTzi4GINQLrbZNWXVpxLb/BVK/eaBO4TtUSjBIHAPDd0tD86wNoWbMmTECjAAjwAikRYAZtbQQcYTBjMC8Sb8439atT0M6dWl36ZSSpiBJU8Jp362FXI5doqshwNrRWmHuXPVkdXs2MSPVpjSdEY4U10DMNzuiYjcSIwmpV8jF0vCgO6QU9y5cP6Mp5Mw5O0aAEWAEGAEPCDCj5gEkjjK4EaiZsPIGaTi/g6DqrJ5IkHoRxvquihHM0m483wp51ouQr62Bv7LmkdJorm+uJt2p74CjnkZC5VoF9euVUjjXQWo2FszhWDCKOEjdhnTP9p13XwlPSg4da3bDhhnL+orH9xkBRoARYASyiwAzatnFl3MvEgTmVDXeGpGRv0Ll6aVGpHukiOCg6CBNuR/fz4G52oV7+8Bs7cHdPTqqTkjLKcMZTlGK7ZiqBIzfCEjuRiHeSHzG4jMZmZXhRTWgdSWO0NeRT8jHcyAmDWVqpe23Ltgw6y+eE3JERoARYAQYgdARYEYtdEg5w2JFoGZS451SyxVgZKLe7MCI5UGA7pAkb8lf+IvftDkh9fIRVwe+yP1L35Ceub+pjFPX3eN0Rc3CF9EJRvEQ2LT7Gjbc84ssFMFZMgKMACPACGSAQGquyCAJR2UEBi8CNVXL3wMv0YvBaA3zxqwVDlawdSObu2elkp9YuG7Gk4VDOVPKCDACjEDxIsCMWvG2LdcsSwjUTlj6OmGYj0EmVhbckWyWiMwwW9oY4TjWgzjH8wtLNt37SobJOTojwAgwAoxAlhBgRi1LwHK2xY3AnCuaLlYR++94gS45pbYs1Drr49g9+mlsGmgo1Bow3YwAI8AIFCsCfNZnsbYs1yurCCzZUr1XWW2TwKQtSdqbFdarZMC9CMIJqG8XGEZsMjNpWe0unDkjwAgwAr4RYImab+g4ISMgxLSqpmilsN+upXjIlNFzccxSXsOS9P9mirjTsRjbOr+7eN3MNXlNMBPHCDACjMAgR4AZtUHeAbj64SBQM+qRmCzb+x0cDDAPOWbdhYZPquk8qd/YwvrokuY5u3zmwckYAUaAEWAEcogAM2o5BJuLKn4Eaqoar1JSfgk+Lq4H03YhqUV1FhzS9o8knGxIUsXCY5u2TsAfyE6oOB/RQv3P4jw8o7T/uvBTRoARYAQGNwLMqA3u9ufaZwmBmsnLJgtH3QYbtncrYdwWMUqE7Vg4It0G4xb8oPTTyU4yZqTWRFlQa7Z2wLnuajBqq5VwnhFWxXMLN99x4vQ0/IsRYAQYAUagEBBgRq0QWolpLFAEtJw2YlUsdnZHpbLMqTgt/X1C6ZtMWYJzQ1NObalqyV/u7lHX7637p5c643V1/9NrSw5zk9+2jnfCMe7TcKT7FwjS/mRGzQ3xV1o7F+2ogcHcwBwW3wvxfIsRYAQYAUbABwI00nNgBBiBHCNQM6HxciX1WCGNMWDTLtRSXgCW6nwwa5VgrsogdisFHxbBC9oCJgwHIqhWnBlwDJsWXsHPPYYWO2xlbTd0ydoFzdVHc0w+F8cIMAKMACPACDACjAAjwAgwAowAI8AIMAKMACPACDACjAAjwAgwAowAI8AIMAKMACPACDACjAAjwAgwAowAI8AIMAKMACPACDACjAAjwAgwAowAI8AIMAKMACPACDACjAAjwAgwAowAI8AIMAKMACPACDACjAAjwAgwAowAI8AIMAKMACPACDACjAAjwAgwAowAI8AIMAKMACPACDACjAAjwAgwAowAI8AIMAKMACPACDACjAAjwAgwAowAI8AIMAKMACPACDACjAAjwAgwAowAI8AIMAKMACPACDACjAAjwAgwAowAI8AIMAKMACPACDACjAAjwAgwAowAI8AIMAKMACPACDACjAAjwAgwAowAI8AIMAKMACPACDACjAAjwAgwAowAI8AIMAKMACPACDACjAAjwAgwAowAI8AIMAKMACPACDACjAAjwAgwAowAI8AIMAKMACPACDACjAAjwAgwAowAI8AIMAKMACPACDACjAAjwAgwAowAI8AIMAKMACPACDACjAAjwAgwAowAI8AIMAKMACPACDACjAAjwAgwAowAI8AIMAKMACPACDACjAAjwAgwAowAI8AIMAKMACPACDACjAAjwAgwAowAI8AIMAKMACPACDACjAAjwAgwAowAI8AIMAKMACPACDACjAAjwAgwAowAI8AIMAKMACPACDACjAAjwAgwAowAI8AIMAKMACPACDACjAAjwAgwAowAI8AIMAKMACPACDACjAAjUKgIyEIlnOlmBBgBRoARYAQKDYH6qY+Yu/ZvL+2IxkzdKQ0zZinDjinTiJtUF8cwHJXQth0xHRUXttEu7PLzRfy/n6xuL7S6Fjq9025sKh12UETtUmEk7HYZNSNmh20rHZFGKSpnyqi2dFxadsKKGUMdqdsTnfEOy+lUiUU7ajsRRYeBgcuo1U1a8YDTlZvqkWvP+6nfqWip+D3ve32eLh7lj7xbUV1bSNkhpN1h6kjCkVaLdOzD2hpycOHmO06k8uHvvhGoHbvwXFESu0NKaabaq2f7pX6ncknFS/1OfuuIYetfLtg4c+fp97P/a27V0rGOUG/XUln9lZaqR4r+1O9UmtT91O9036n0qXQ9f6fS93U/3fOe6VK/U+n6KpfiOVrT1/ZRzVv+WC/qU1FTSbP6jfLUzklXzNBCVlBBKbozJULi5ZbaObSwecZPs0pwjjL/cFVTRbu034UBdhgVmcIjhU+KjJ73e/7uGS/1O/Wdyi+VLnW/53fPeABbK0d0IF0cyHdgeE1IYca1SLRoWx1WTsUBHld7opjZ7/uu+WFExIeNTzjxcVIY5zvCOV9qeZ6Q+iwhJD6iBJ8o5vIIfhOTRr/xKglM+AJtITHGOQk8i+N+Cz7H8PgoZv6DuD6IttupRHzjoubaA/jNwScCNVMbYsbB0rGOtC/TUl4MjM8B/sMxJA2ldtLCqcD4VEJjFJ7FgLuBC7QZWorai761Bm+ibA1OTWnR5mjRgdiv4dkxvF+H8I32snY5lrNzjFG6o765mtrUc6CCRG3V8owSec49tIgS2LiMKf7QNf6734Imaxsf+j4CHNfj2d8dKZ5YvG7mGtzj0A0BtPM8KdSP0PHw8gcJkjrpww3N0+8KkouftHWTlleDHfix1kHr4Kf0vE0T0UI/HI213DN/zf0B2zazOs6d/OM3Oo79MFINySzl6bFpEEQdDsmovHbhC9P3nf608H7VTloxEmPWbzFsjQf17uCVh7UgusAPSPD6xB/gz8lxVWNclTS2HsbktUFp/XcwGk8sap71bB7WIy9ImgpJ2agD+94rDXUrYL0Zk+tIAApGzP2AEZM0wbtzbopgLx2jewI3vkTbkOBCCHrXIbXRLVqo5xDvccMwfv7Q2uqXU/nz95kIJN9N591gh29Ca7weMYbjE8V1BLgSw4x2kqm1jZuBl3aiiN3byk2IPxjXiGEBj6LxkQncSGgp9uF1+7sSxuNKlf75ofV3EPPdZ3BFrXhKE28eh+4w0XVvcMjzAW6VEtG7TazrPzj5p8LSnZuwgvkF1io/bmvXu0vinS0QR3bkcUWzRhoNIuLw/o+40Omg7a3Rk80776tqumR+c/WurBHdS8YkCJDSwCjl5Hmf7YX4LN1SwMPRlpGl7PvN1rGdu7BiPAeDUb/x0j2k9HirzxNxG4y4+E66+Pn+3NYGWsWi8TU1xuYvyS6TRuR1H1dT1/I8ReOqNKcZmLvmTf6JsJ3EVkw6D4Nb+KmwrW3tLaVtq/YMPrVc3bhfVKqSV4c7dvSt6L/T1ZHDU1WkBO8ikMHcfOY7ceYdL53ijDcLwy/S0YeYwHK029kYFC9RQt0ptfFtLMh3g/leZojIyojs3H1kXeS1VaKaGLtBFyDVLGs/XloRKY1e5WjnDvAId0JdeYHbPhAp4x4w6UK4G9D+WupkTj1xJqYPbSWpvdzXDHQMV8qYAsHJAwrroZqq5fshgfs9+JWfm4717DFVcmJVczVJUd3gvo1o2G4kph4V/jdN6DRc0kQWt9v3AMYnUOG/2tL4y+L192wr/Bp6r0Fd1fJbIqrssbjT5j1RPzHR0TAY6R82bJjxQD/RQn80t6rxHimjK2ydU8FR6PUIM8MuRu0XkVjLtFxK1Gqqmi6QwsI7Jcf4Hdi64+D2KSFWxzvtOxq3ziK1QcGGOVjEgFH7AypAErWiChIMGxZqGAGgeHM69mNMfUJp9WcIIf6yoLkaTFxxh5qqlddCTf8WAPBOYHCLqaLChrAEi6W8qHiyfSLg1ZSAXdU2TO6/Esr4U2V75V++u/WdZDdV9KGuaumVWptvgpr5NnBGb4moWBkx0NRG0CjlXf3pXaJxHAsiYTltbY6QNK7+DfefOIHr/F/tBYBUo2EsfCig0iPAuN3tCPsDSjv7aicufwFGm99avO7uvwUoopCSfgcSxtDodSdmKd5KYuSG9dN3h5Zx2oxoIcnhTATIfiK3AUzarZikxlhOOJYT1Kfwnk41SiQxN8/ktjZhl0aC++IcXkkaAQNq1I+mF3khGLQP0LiKhfDe2qrG56Stv79w06w/ho3oQOdXN3nlO7TjfBYmZJNRZ9gwocaQRiac/FLSJNuHxnpa+sjLlFSfhHnCvJaS41vnVi3/0YLmGd8faCyzVX7txMY7wKF+HMxpFUbE8wOagssAAEAASURBVF0N5sk2yl95FDGPNt4rEkDgrSqDhPStGA4hqbWPV0qxpzhHkl56AU0CxLgh0Ew/Eo05MiLUe2snLX9UaXvegubZRbsSvHdy4zVCG9fQiiLkMBqD1tuQ54KQ8+XsCgABDHufC7tP0YrSFPGPo/qzCgCCQU6iu1wDt5IaV/TFmGQuxla4O6Clec40Rc3FL27ZWJ/jDS5hNgpoV7unjJ/o2Hoh5tJriflJ1hpSmfyd97sgSFLaNe9hs4+8CmZy34OQ4vNgMD+4aOPM34aJ1UDlNW1ak1G+0XozjFznQyo1KqXOdGtPZpcFFnrQfRaqcNZpBnMFVp+A5IJXhT26EuabpIy9hIHlR3Mnrrg6YKZ5mRyq+M/SKivsgJcCVshq+rQRTbRTOUchNSnkqLiCKSa3I9K9VT++ucQog91HuO1BK0rYmc6cPeXh8woG+l4JjfV6t9hv0iRDYw3Ghtc7trl+58QrflQ7YeXrCrHec8YvvmLHxCu+A6PzdZBKXZtUmRXexH8Ke9QAqj/YlF4UMWO/qZm0/Ne1E1dcf+p5YV3RrlrM228u35D4Q0TG/ohFApg0Go8KuY16b4NBzKglAaGOS5ODISPzsCf6j7Dl+hb5uekdrsK7WzOh8XK8mbdko/PSygU2gLeVDrGLzg6n8Fo6txRjO8e34Swoa4WaTvs3spY5Z5x1BGjCpLHVUJE6oZy/QIrzzfqp9QUzrtZMavyEYUT+bKrIx5J1CXdBkvUG6KcAYqbp3TWE+S4ICH8LZuc700RTQdmUzJvSNDrRUbES89rvMXffZkH9nI+2Z/00Q0aPBj2jlkKryzh9OOROn9pxeP+auRN+emnqWSF/S2Xcjp0kF2enDq5NEZg1/cXs5N9brgU1nvRWgYK/hw0d12HNelU2pLQEjvsuajl99pQlBSxVyy+7pYHqdF3j6lmQ4nxmx+Er1s2btPz8gaLFS7lgYmRt1YqfY7sE7Twe2UW/l6QFF4cYaTA6Z+PPxyuqrGfnTVk2ohAqUTtp2d22YzVDlXsnPpFkPQqBcv80MqPWAzvYh0KhZ05xVOca2inZ43FB/ZwGp5uwqLgHErWs0U0DGXbUvL/u6hUXZa0QzjivEAB7Po8GSFqZZzGUGJbx4Szmz1nnEAHqK5C+j7e12I0NB7fnsGjPRX3wypVXzJ20chukaHdkaxHimZjcRqQ572rbNp6C83vyK5aXYeb1y4bApvzBiCxbCeFDDs1tBh4OZtR6aQPi0LFDFL6hxF8xqHy0lygFcatC21VKmTdne9ChHWA67vxXbkApHhVEbvAKt5S5ExovxaR7K1bi2eP+kyRDCCPfO7eqiVb8BRgGp41afw1FKkTsQoRTUfkL2EbRhhEK2e5HyVLS/J1T1XirnbBXg7bRYe1iTlNkXj0m9yKww7sYmwxW3zuhcW5eEQdiSBAQOaF+BZvy+2mXbZYXiflWfdjtcugVga6dMnCqKr8FZu1TvUbK85s4zuKLsOzNOpVJRlC+rVjUxVkHrIALwCl3NysZGZujKlyFc44K1tg5RxgVVDHuBCtxHI8U/1M7cdm/gvjsD1BpEMLi442GkL+DK4cLi9nOKQ0MsCmkRbAsV0r9L+zWIDXPj1A3uXGMjuvn4bLijYNBzdkb6syo9YbK6feicBnw7ZoJy993+u38/kUON6GSfBetlHIUzrZV5/QclcXFDAACtA0ek9n9uZpb8d7hsBynxi13AOobrEi2UesbP2LXoApVsa/XVS37SN/xsv+kZsLKG7RhPIqSSgablKZ3dF2+uQxyzgdpR2XvcXJ3d/aElZO0LV9AiecP5vZhRs1DnyOJkVTyZ/lqW9FbFZRMfN2B/ViuAlQaCp0JqqqHClRVlSukCrec0o1WVVTGsKrNjfqZVs9Y3VdH1icKwsi5cFt2YCi3yWRCqG/jvNgBWQTfN37ZZKmcX5LT2oEKrktanCBApwgkPdNjLQQP9fSb3AkPjGaYNokpA8YNvyZGdqCwmVu1dKypnJ8Di0DnCIdJv9teaBe3fbpOPaJ2S/5OthnFCTuEtl3awDFWYdusJ9+f5EuU5KbpL367/1MvV+o7bGhO5UdlUkNoLZfUwBB2UfPMf5x6mn9XdAanpa3bcynGJ4ywU+pGxy6bDERohZqVoBU2zdORaU6alyH1OF33oHg943SltQN73MfJe5AKuS9GzzJ6Q6c3WnrG66VeNFDY2i7pGTXs36aW/4WzPsLOtt/8JNzflkjnS4hU12/EonwoYYCPo5pCHlhP8SXUKZNjapJZSXbS7n+zDSsYgii85v/ovqolz89vnrMr2+Wl8r/vol+VJYwTS1H+udkeJ1MTtzuZu5M8jgrCZE7Iw97qNRxH9QoOvgfXKo+jPeC3VZTgMb3PxKBcFFVlXa1ELk/oDFF83EZMtlSqTmF+k3ACNmulMD34Sc1VK25Z9I/pO8LMP11e9VVN0R3C+jk2oFyWq4Uh0ZRsKxqy6aqLIXO/cQ4L5gPHsV4R0mlFzHYMxZ1oBojOcQK10JVuAjp7VYtzTSMaI+fdhKP7hlEMajd8yBwp03csFEaNJgoYlH8DjlWPOFgYpGsET8/dw7fVUNSrXMMDJqCgXYWXAb7RqCZ2fKRmrFMXnvL1GSlph4VDo2GzVjduwfsWbp57wmdWWU+WEBZ2eoph1CFyGmhCMTQZCT+arXJV3FnXabR9E72sf3Gh16r3Fg+4ob+BI1GfwVtV5rcuxKTZIrFQOWo/fPT1+15g4KWRmwaI3ig6RUIvT7FV3YCLlPXH1gwL36txV8ld/vjelmsbEZK6wMVMbc2ohk8v2lGLiWwwBd1qof+gX+xO1RrjkDvwYdLvpSekYvX9LR2cGyBkhZZOKX1jnDgXsccis9H4xgHfbi+kDNxy6CKbgSYuzB/DE1r8FOXA839uQuKsEz+E/60rc+F+A/MVtRVecXuj0NZfcIThI7at1i7YMuNltEHadpwxuXFYiVRXCFvchEHibUjwJuSX9V2PXXPexdIS34UHgbtwSDidG5aTsEsk/or2qcr1eJNsK8fCDPAipAF/1479NDYwNJsxtWPBmupXM6n8h9Bu7VKPU7Ycj/wmIC3tqIXNrUzNKZ7fMTcidNFpO0t/BBo4lNZynAsXNVcf6C9eWM/gkbgs0Vl2ldQmThJwrgfxOHtNXgxAsToiqLOnmqEVLubwj+TreWk1VzWcJRMlv8QA8AbCItfBVFgMOval85urc7Y6zlYdsRX8ECCkicxXiBrl4CZfG79w7ezNvjLIo0QYI36EPjVvIPoUrWzRqb61cP2Mf8ojSPolJZRD2aU8bAj9lofWz1jbb2EhPZx2Y1NpZYu4ClKDqzGe3oDj4aog4MEZyeo8tH2XsXlIhfXIhsaNBJwcL2qeRRsMshrqJjXOhYuHh3CgPAbI8Hcvk+CCJF+YXLeAIX4BLPXPhww5+Iv/fvLT7WFVrGbCshtgF3A32uVm1GEipDfl2WJq3LYXTi00SYvCor+/fGBi9FWof7/QxSj2FzXAM4wqbjtZDjrBy9CXbQEn/ZjQ5h8aNt7zfICM0yatHdt0rhOzr1OOvhny0+uALwmhRoAxraSFS+oIrO4ZhceoGYnRuRaPpioCCVeliJSNQyWvxXs3AxW+JVnh8Bm2ZKfV7cqSYxdunr4vRUO+fNeOX3qTMIwn/NJD4togLzywhxrO+klD8/RpfmnIl3RgTg6DluF+6XEZNfu1qxY2z8bqrHADOcKEBOBx1OBSf7XAWwNpa8CBd7uImjc0vFBNbZL3IRRGTYgjMCh456Lme54diArPHLtsSKREjFM4JxjMwHTDKHHtE4OMD33Xw52K2rCr+C1L1s14su94wZ7UTWkap22L+rLv97ovCki1SeOfZcd/p6W9zDGjjy55sXpvX/HDuA+n0OURR8EFk5oG1mMevWdhqwppoQT24RhOMhi7oLn6aBh095VH3eTlN4LH/T2ek9o3K4EES65ZixQN2tG/U4ZYs3DdzO1ZKcxDprMmLL0wYhpXQL40Bc33FgyU744YpYqkvam2DEX1OQCCm9Oq36WGfA43n4OIdsFQkRgPNvlBU0VvpPM8w5QCUF6QqpU6pvUgynvvaYTkwQ9pmA8Qs+VHpN/FpP0BK43bUx0k0yp1DeLvIX9bCzbO3Jlpeo6ffwg4jnE7JuqR/inTrVit7gC7VhXgXbxUxK13gobF/unIZUqYrsC+LnjIrU1gd3obt856Db+JSaRxdeGQiH2JE7d+AGbkLfSeB2jL7sV0XZP0X5aZWnwSR/g9W7/61tArPhVHAzpH9n8OlkfDw6Wd9MRgZrRzwBGdc0Rb52NQ01MHyHpYunZOKwr5Y73Qf95dtew/tTYaMe9dZ2HewzsbSvkk9MCcNwyb0+jde08omfaSCZ3daXWKr0CaNiQbWjFqIwrgCeZbHdYXLxs58mg2+lkvVev31rKNs/cjAn3+hvfshxdHI2WvJto/gNb7mCmjU+hdC2Mk6ZeIXD/s0qOTquCmOeOXvdsw1DdxPS5MOgg4MDXvIfHzoo2zngoz7yB5kS2D0pHZZNfjJ5AoWNjG/Y7R+X3U751dTFdGWXUNgFFbyY8g4ecySsyR8w6B+66B0XXHiWkYPJWfwdNVLwj7QawS98JO49t+K4h8DCwe7sJgvmr+mvvb/ObD6XwhoLvG1a1I/dZ7J614F1RF/w325PJkbuEwBMRYwJrrXTsO74VJi8sg+iK2r0SXHTowGUacM1xz/b4iZXifJn8wMnF8ftrabM5eJarDV+N4oKketgGiWVD7XI8Nb/8M+eTnQRtUaeG0Dc0F2DD47pqJK96waMP0xzyQlHGUROeQO6Oy7C1xstUPMXS1EThX/YwwrLkNKVOUbSEWEk5WqfeMJvCH6NN1XN8X+zVw9lw2ekU+hiWbZv3athM3Y7nzLVrz0L+wgsvEKPnlelEfDoYhEBZ15Nf8rqJImoaDev+wYONdO2FE/4OAaipIcMU78/1cvxAgL/os7LbWMVDp3O63P1C6jviJb2gFh6LCecUvYF0S3vd0tleO9ptHYabLv7X04vXTfxOvcF4PJuC/MN50hDmughkox76brNgiwhrtizgkPrQjI5IMgD6AHZvzGppnzBgoJq1nv4Yt2X9CmjsN7fMSqWLDCq6WRumvZWPOIxUuuPQfJpxw12A0r2EM2gEMPrywefothWYvvKB55jMNzTPfEw6TEQ7THlZ/Oi2fJZvufWXh+umfRad9B21qDnNQQV7X755w+S2nFThAP+4b0zQUzNG9flSeRDLhgs7wPbqGKeyzWCHCySBy9B1kFfbr3eQ7OSfMCwQc5XwWljegJfOXnCYJvHcrVmy5/8iidTM2oT89EeT9IxdAhpSfygtgBjkRjU/Pem1R8wxIzOVsjBWkZwslkDYArg2qPzh+5RWhZNiVyQermq7CpP1+v+PjmbTQ2Oi0YFfg+xetn770zOcDe6eh+e4/xDtL3oz6biRmJayAjRGv2zX58jeHlV8qH8My/wNS86EYL1K3An/TjAZ17Tpp2m8HI00SqoIN4TBqeV59TA4ag8rvYet5K5i1Y2GRixdgqKP027KxwsiUxkSpdT+6eGrbb6bJYdMW3yANYs4gb10/4yB4tN9jcvb91sAHDzx16FqyO8iYmLxJkH7rfN6QmgVC7rumaSjsXeb4ndxI7WlI66sp0nTC+RoZXPsNNInj7Nq5RJffPDhduAhg09BPML7SxJ0IwoR3p4qksJbhfL77vaDXcFn032Aog2bjpk/WU3cqKW7OJ9OXnpVr3HrXHqlK3g3tT2hKPinNCog7PhDmuF43bsVFUMHcldzt2LMW/n67JhfafqqlOXJ1oUnRequx/1Gze25BBC/d88nydcO6GY9CpPYAivFnxNWDPhpQIH+6+1DVRN8MUo8sff2EAWIFOKq70Aw+W4Ic9olHHlo7a0+KALjzohWIbzk0qaogUXlPvK1iVCrPgvv2iWbB1bMPghMdia/53VRCA6WlO/72qo6dnCQWbZn1LKbgp+iZ34BNCQKGwF/3m57ThY/AwuYZjytDvgPSkFZXLh+wCPfYOylm1o37RWXArNzksyctmYBX+U3J8TpYjsSkoZ5x9OB35sptShCKF667azvS3wey4aA1+IBGdqpYvlaf6KwM7QQaJ+JMA2nn+5Ha94ZNkklzftewYeZN+aKO7o3OTO6Fw6j5lrtkQmo4cRevn9GELbnzsP01cIYkpoX/n7GtMj6gKr4KYcEXi7jSX4Xo5dWdqMuK7und7cra+U2QSZXywwAOu7kCDaQpH6RhzvjF54Dvn+aXUaN3A+gt7+kk07CNT5myxDeqNFFguKmuvbrpXN+ZcMLQEViwdvpfsFnko5BahbIIRiNDHNt6XxiEGtp086E+GTQgDzhI059/qHnGX4Pmlav0UPv9FWR/yFTBzfMIQ+QzrEQ7oXg8IGYc2yDeDbtE/6u3bkASMwrJ3GO2HZ+NwTt4g3fLeyAvw2HUBrIGPspetHHm0oTVvjC4oSWGJdoBquXHfJARSpLkQdmiGmpYX7Mf+d1Bd962uHnWEz0JQr0+FwQjUpnhEJzqOVc0Xdwzb/6d3wjATugeUAhmzV8Ag7cLo+SjPVNb7e3/iNvtT/lVgdJEgcH4LB23ZvfMm38PLAKLmqcvAgW/CY0KFdz9EZ09DBnYzaAplEUXMnmuomPYd0OrY44yamietdhy2n9KDtuDhuS4Lj8ZNB9Kb8TaL8RY8JYwmGjKD/mcsBz5YbJNp9/FEgYlo0aNp2Xn58FkvRxUHJyUOMh3D1SHKF3XfhYqU+NX8kGMGI7f/XJv9JMftITT+esgzBqpqpSZ+EJv+fO9/ETgw64qXd+Bd8P3qA4V2HPJDQSn15H8S8EZ6MKAs6YJ+6A7yCHr6bnn06/g0ot8qo1XWkqM2ANoW9gBB2xhFOhoPdI9usxr4b3Ec2T5eNCCTwhB4hAnIT7z3a3v7Awht5xnYUv1zzir99WgbUNzTUSVTrxv0srLglbCsnQ1OaANQ/hF2h+MWR9fuvGe9UHpyrf04TBqwd/JnOOyqLn2ALjvB+FTh16+AAEyenS0ukkr3xYgE99JI4b5oYgqgTQtcykv2ZPYTuf+BetmruqLABwt+O9BVjtkwAup3bvIYLSvMvh+fiHQ7jhXgKI3+Wt3WvrApajj/KCvWikl/wL1xI6+nqe7T3RBAXVLrARHx3HIKwQeXHvnIbTtP0VDMC1BTxoJT5+XB6ggZibnSiw0A9u60Y5jhMVkjxeAngFNumj93duxqF8YBhFkR2hpPSN4Xvp+v5uVupeNTU/YEGf/FC44FnW/XyzX4TBqmfMIeYGftNp/gI2NR2hqCRJI/Ymp4+4gefhNCzboC5B6+UpOnRuHhcPnTt8hkbA24GDxvwU0Er4YFieh2DT0TWl+PsEqr/DeDqlrMbm5M1OmqNJuX3hNfnnhxpl/7ist2T9Cgbm6r+de7sMflkLfv89L3IGJkxPH9ANTtTSlLtowsyFut60Lat8KNZ0JdxDX+d1VjxMOcFSqfGvw3Z60gcCGiUvbZ9NUPa8fY57TcLfTiEX98aCE0sYMDGx3Bcnng1cuviKiYiOCbvKg+dty4q3CllnxvxekjmGlDYdRC4uaHOeTPHpK/hBe1wOV7HY0rW8LlImPxLVVKz+KwdCXNI3E3wmno1UlOvqUphFJdIwMjD1/StZ4Pkh0k8AGQWml75xW9b0Kv3lwutwgUDO1IQZx2IfdnXc+iiSfTWDCvpwuqTTkdzHAWuni9fWcVuGQcszBjufQdp/1VRbfzxQBSc7/vxaUUXMlp1q+4ZWx1/ly8dO89XAEg9ZtQRkBsuuClPD/LWiedzRTJPIt/uJ1M9eA7cQnmHAiqcFxRsy5YrFv++OEFb3br8nOabjCzhq1+WHrJmP3afeL6Ec4jFrQNh9AQGMn9HdC6ixlNeNXjMpVVbBaNLG/5YN+aXc3EUjxs3L7wvRGl0r9DAPeAb91Izs1SOTeWuGcc4XfPAo1HdqnoN4OdST6L9jVhXEhc748ubLtfKWhecvSdO3VsPae5yHN/XvQybxc5qurjsFpo5Zqdzj8eRonnewMYg9FDBZeninHy474spWsGGJPKTHKhxDDFyRgUWA7wl4ZJI+8SqvENyCRDkSSy0TjbFYjEr3Rb0ZSOu8jbVTQgH7yKgyYflksrjh6wyMcRi3Ye9AbXTm794NdM2H4qlcEMZh3idU6JkwdxJ4iozrvOLjvbYD9sowSdYuMzg3djPNrL4axDeun78ZY9zv/6k9sKCDv9obzz91I4Ms8Q6BePGLCI8mncGixL8rIVhPpsSOunhwMpg2YfT8WxGWAu/tMi3vnjH/Y9+7UtERyBF8IYCMS7fqFyYT/QMwAjNaH64T0t2lE6vfAM71/AlIptX4xItXW1M9C/4bpwZ+hKjweVKqGtoWPK+3LTnQqBA0YK8YGZaJpIYB+trlh04xHC71d+qM/HEatvxIK4BlUc4tCOGajFD0mJ4waeYWG6ui9kEaUB4B3X6QtitMHvAXbNOFV3v+wS5NqRMaqH5iy5DxvJeZDrMF1MsGuSQfmAXU4T/a38oIEpVVJ+XOvLUcOQ+N26+MBpWox0+z8mNcycxdv8NqodWGsMbk8DpOJQJwS9URlmDf4aTf48bvZr8bhtPKU8ax7WstpNwv+x/ygUjVi9KArGT1NNGEVnlkYfXTPFMwmwcR6KNJlNh29PLPSCy92OIya//k7LxBzWtqfSTjt7UHE9JA2QRUpx+aiQh0nhp0HFsL3kRvkwwqT8a/mb6/GVm1vYena6pdtx/55EMkjMWudtvl/vZWYB7EKvF9ngiBsvaJQUdMuLowJfhg1d8h87IR45eRJBF7KV0p8K8h7lyxD3/WhyY3DvJTHcXKHABjwx9C2gcZVMuLHjoCb/VCNMfJG2Jb5Sdo9TRzvxd+63yiGazDQP8FxUKhKsEEOrNolkcmJjCWe2jGvQuFEQLAA8i3hNAXLJP9Th8Oo5X89+6Uwes5wnB8unggiMaICwPxc+LGxv/XleLZfAns8NCKJ90NlNNzfhEqvphLRmI8TAwzxr/C10YMa7z+7Vrd3zLmSHeB6Ry03MctE/FqUdLX/0sjYRP56VfNHWjLJw3bMp2D/A79H/vsVVCjj2xz1hkzK5bjZR+Ch9fdsRKse89+y5EsNuwsdTZN6RgE+9kYknYD7WXR0L0ri2NHoE93vFMN1NBbdkrDbXgvSNoSslvIS08nc/Qn2n05B8kASNZLEY859ftnG2fuLoU36q0M4jFrQd6E/CnPw7KLKijhavNmVCfguj0CQZx8VR7POqKGcetgY+KKUJGLasZrmr5lxJNMMWh1zO/yu/S6gqmqIYVs1mZY9IPELvF97xYxUF1BZvg8TW5BduW1mzFjmtcxUvEXN1Qdg2PZb/PaNNlyCmBiyp4d5UHSKPv4OjMBzJMH3G8i1BqSuYzJNXxIzrqW0wQLNCPrwgo137QyWT/6lPhZ1z7t+OsjCm15ZbBq5RGqrMtMaok/Ar2YQNhGif1ciaP8k07ILMb7/N6gQa9sHzfWrb7WwMtjUx2PPt/FSnx2tjGaVUaudtHwWzhc9x+8gRIOmYzhf81ypbhHp3EYMXQuC2X3QqC3fnTxLslvmeXk5OM76jI6Nl8Ohwlw6R9NPIMYd/WLV/DXeVendy7EMaykG/RN+B27qj3Cxc4+TGH5+93wH9npw7/o8hb36u/9NSOgV2DEOiemoU/l5u4IUbrx/1j9ZBvkEBKv3pLcSCyvW4ZINON9PQ+IZjFnCmdmGIUVGZgdYUJWhXc8KihiNO7aWfwmaTyGkD4dRC9bW+YGT1nsx4Pu2AO4SBwwz7HhWGTUMPv/md1cedWz4TnuidXx0g1/QcXTP42jujX7Tu4ITrW+IqGjG6gz/ZXLK/hCAa9sZGHCHYUrsL1qfz6hfdRp2fZ8R0jxYunbOeszG2FTgfzgiGhyr4/NpiuLHOUYA9kPPBDMpoUPASyTtEsyIdKlHumNNRolOj0wMJhiZZ06/Wxy/Vq+ut3DqDHayBpy8XddLekQmqCScYdgEJ8Go+RtvkmW5fkDFOUMi6zIpu1Dj+h8Zu9c4CN7d8xnAawABNx2izT8J7jR3dsLxdzi6l3Jrqpa/HfFG+51Q3ZdSqoWrVlX7E52gcNr9BDkTVFX+d0SSyNqR4gEvdS70OGAg8v7tgJT1PxI+1yikSoca/leNa2ftCdJWShv/HGSjimsKINUDM6/Pl/M/fa/5gsCYd2mV6AzMDJA/tRGHD4/KrHIyI+aht7zJEToO2StKRo3qi6Pc9sCPWcBdudDtaJER1pbdAROLYBI1Yv6hAdjcGj9m9dZ2xXYvs1VKsdW+W32kYR3HTpT2IEw+1iblSiWyhinWdzPApEGn4m/ux0u5U1l2YMNYZevvOkp8DCvOqB8VLDk5xCr5A7MmLL1wMBiCdutmeXd5b1XjHDDOZ/lzPAl5A6RgSjv9HkPmpdILcJAy1PqPgpY3+aMFpWDwjraYJFX7Zy9lcpzsI0BnKn9wclAzIvhT0zb5ygPT5zFofTHMWTxG7j0aydOOt0ex0aU4g7TVK0LZLZhNMlJddkeDmGhws5Beeg/RhCi3lRgapHVIZQt3yLsuqrzC32Tondw+Y06dWm+ee+7EnJQfDlMRBPE+YcjtA8eJvAoWPegyOApH9Bn7lPFS07rJjWNgd3Grl7h9x5FPLdw8e3Pfz709gTPLnbVVy38JadEHbJ/b3+kFN5X5TZQ401uphRkL6vS8fjvAZn3Ur20aDZaW3flCpKM1nMlMii8hz9U+1yF4fV3j8ek1V/3sPxb94/3HB7bHkI3aoFjsp4XZ0vFX0a5D/WsCiAd3ytIW1BXB9eslLXLG6jVJr/GwG1msysCFUa+Z5PNN6cAuVASa86hNoUK9JJNqWqZRgoN6Pbdn73mjR2mxp3n14WCN3Hvmae/WTVk6zjlsPCCPJPp9yWm7BWUG+Z87D6T73bPgVPxwGLUBgapnlYL9jsR1eyIiAomB3V0oNmRNWQhosLdCNTSCfJH5C9RhnAZ/ac9MZRgln8IZoB8484m3OyQ1Qeed9sCVTZ978MXqvd5ScawwEZg3acVUS+tx/vPEiRNSPjx/+/2v+s/jVEoZL3/eMlufAfN4nR9JbVdOF4p46524XngqZ74aUAQ0zEqkHApO2hcZlEo63hm14fDr1eHQGUn+yiMi3UWIEw+lX/uqdC4SSesElssdGIcDlIaZSYrzMsnAdHBGTUAfatQ+kJjuqRIbdL+HVWdCWAZxtWV8IWKUzAq2sc57gVlhKrwXnz8x42WdxBn7tt2impBBszSyw6jBEOBTtMLzE6hTo1vvbWie+Qc/6XtL89Dau/Zgpfywy5z2FiHNva7VdaTTTnwyTVR+nAUE6kW9ApN2Bwz4M3ZWmSIHJ28fxjrx96nfQb8Xbr7jBAakFcEmWDielsb7P1zVBDuYgQyBBBXdCO93wd4tXl5fthLrEyTYpvIsgUloSSYZgTQbpNIHB7I7CM35nhbvCb1vYXRUz21DmDhwp4PuEMiHGuUDBvG1evGlIFwmZZNxgMT+LNB/uw0XWSRwyMWHGbWuZrIdI4GhxB8n1JUH7VqzbXTCkENt1ZI3R42KcV2qnYxzhz2Y0Ib4QsYJ0yWw9f/6pelk1lq8Z3ZBHSt1kvKCvtgz6Ypzwb7f6VfKQaw/jEQ2LVw//bkwgXAc/Rts3d/nN0+SxGER8K4WaY3xmwenCxsB3RaMTcMi2KFzJb0FW3RE0T+Dz22O0+KtxMKMZZmlnVhsBVoJdC24Sc/vOTjwco32CcRIE5cmtR3o1AvPBPeIqBJt70PpQ7rq3uNpdn4G78xEV9C3MDt1yyhX47WRNljzYNw5xAtK2aEzatig/t844iqj+qQio0OJuNNxrGWcuSx1L6xvnMGHrdHOk1SG/yAvh2frW/2nz2JK6X9naxapCiVrR+vbwcBf4newIemxVuo7oRDTLZNFG2e+hO70aJA+BdcvUjn6Q92yLeDL0IeTnGOBtgzEDNCw7EphPFIuZQlJawLOba5qLQxpk0eqcx+tLAH7qgA2Bt0o9sxEUxpD0f9g/ZpmHKkNmhSDzdlEUAbBPWpPiLcjSXbdcPWgKWBn7sotp1D1qEFIP8vKD1PPCYQHVickkvN3ZEAf9aiZuOIN6JST/Uqu6OBdpP9uEJccfZAmFjRXHwViv8S77lpx9xWvv/uY8Ong0RkfG/u/Oe34/dF08lkR9OuTdelxgap9xdb+uioxUba2Dy9af8/DPbIN6af5NXKN4DeQqw5DmQ/U3fyLjD2m+y2T0/WNAPpaRhKXM3PCAlg6nWfe7+OOjGDQCy5RU1r7Wx33QVa+3W5rbYWhsE8v16nK0BgpM9wYABu1EJpHOMrnAJai3cd3pUqMAJvwplxPDYEYEx/1zNskbZFIcEbNsbHyg4l9iAEN9DFkRwsIXwGTFlaFzo99JfaQyHKs5YhGPuh8BTLGNKT53s7YeXgB8i0kd+rkG1VB6ampWvr2iCq71C/zT6p0sGpfDkpHX+kbmqs3OMIiVx19RUl7n5yV6uOtX00bkSPkAoFSv5LbFHFOQnhmmmTCieBoo0BzW3LAld6ZwxShBfQdPSduwyI/4HwFlkV7V0u78MBCyO9O8+7wwsgh54t7bOK/KaJiF+RYkBdMgnQSNN9sxMkcBvxCtmDPJ6SyQQghY/+IbQXs+KcooC3AkNLdeOpOZleu+kjrRyKxoTsyS+k99pLmObvAR/6GVGH+A7xMa/sr/tNzykwQkML4quX40+pQn8LpFieE1bkkkzIzjqvUp4P0KdcXmxQ1MyY3+vYRlTHNnKAvBDJSjfWWiVLepVu26VjYixhoHCaJCcbenDMCvdU9W/fir0Sx+y245BGbeTPCmky5ncySnAEBtQ848Si+csp9wBrm0341EWdUIoMbqGsIIddywBBI7plFiaJG1/6X8MgQ0iEtjWigDQnd6ZK2vA2TlW9JE1axCfTmX81f854AJy50p6j3a5zV+Nkg0g/q+JCAzJhzRdPFvZfAd8NCoK6q6RasgCf5lXBQO8OOd9Elm+uwky974eWzN621nE5I1fwtANz6aV1ZYqu52aMyFzkHNO/KBYlpy9AVfjetpLJ2lGuPlPrZ77eKy9cwlvv1Y9QtbxlQZdstqzy8LCsvN9EuAXkALN1khjtHaaLU/s1lXChdTlqhfXLHfNw7cXmVoWJX58olR/cuE7CRumdV2NcdJRbsWWTQFVTCUdifFEKgg2sdreb4nVBdaZoQx0VHZ1C34Glrg7MaD8FVR1OQI4BoYWdGrH9LWxhHCIQArChngyv2PQHZ2uqER/CH6wNKLNJVwj2LUOgH08Xr/zk6ldTvnTk2X46V6p/aYn2qZOQcv+MYYUIiE+kkPKs+O22bdmuCUQsibAEDIHVgSSDRn6+hLdIKwQT8AQQJgBgStYwEARCnQZghAzLSbvuU1YsvB2nkjGqOgv51IJg0IjIcRi1nUGWEa2aRHUWGx74nMCoMXadD2p2hSNTiiaFTIkbser92RMT4YKXz64atdYczA8JfbOzy/npSAu6vMzjwKg/87mRXHf7w95JqTtWSSxDvzV7i9hUHE+6L0RLjhb6eh3nfNGKPY0zfHDDP66Ol6uqAefhIHmgo6VZeICF/t3wG5vK+a35VBhvUgIVj2WnGPJ800bh1Jjzuk0QNI0qAgFIH2BdfAOI9JI05Q6FFCto4rkTNMxNNZCnDgJg4mFuQZNvqjBzteoCkzyi02MN8Os01qegzVvYehMOoBXsfsle7DHLW2iLHnwEkaq4M61hChLQTxXL+E9KLDGpwelRSUVnarD/9bvZ+mbG2l0DvH/2bPLid6NyIHZmWPSoHd86mjr4BqsSxAVCg3RW/mb+mOice28mpMgyF/kSiDb80Q8obFbac4zc9pwuGgNXSPjKINI1KpwO4E6Jjj3dK0F90sN338OVHvMBF3sssvJjtTrwSQAVaUdCyHJ+MJGp4p0maFmijBg0IKPfC5mkTiYSsh2jUqEEhQVccvukMh1HzXXz+JMQERkbHGXlY7k499RZ0nldhJ+nP50G3zOZNWjnBVJE3+uXeXSbNif96SXP1rm7ZZvVy/pr723D0zwrs5vEtUQSra2AT0vvyR1Xln0HIKtg+M9fS/kRyJZp5Bu4yBA6hDdn6w8xT+0+hE/p7oNm3moQWO0oZddPGNA31T4WflP42a/gpKZ/TOCpxmcv0BCCStAowr8jIJhLj8StdfdZXyaQdUCp6tq/EBZLI0KICGAUQTiQrClufjBg1x7EpPuwIgwSwmFpdUHUYfruzHKZOfQSGufp9KGbA+KUB4xCzjG3m2UtxEaykTL/MERWITn8spqKBVgqUj6Xt/xOkR7gnJDj2/6W80oWaquW/ixkVbz+16k0JL3r2/573e/6mzRQJQT6s/AbKUWr1lmhEktTneb/5hJcuVcfwchyonO4d33gNTre4Nm5nNN+dJJeYfzA9v3xo/QcPnrzZx0XNhOVvrSwZ/se466Q5hWGqP7mtjJS93acMT49H2/ixy7SPkrzcpvNIlagst+oR+1NeUnCc8BAA9K/DyOA7Q2K20O9eyTQDmMhvwTLrtkzTdY9PKls4OK1Y1VxdlCcUYLyGOs8IKFGjFsrsJBHlqFb4QHst9aZ3x9zrdZL515fsO7ElSDaeiht99OAURJzsKXKWIoXDqGUdqizVvivbenDMOw/vH3NyjvBdnH61RQaTqM2b0jTatq3bMtzxfJJi8h+FM8heKJNmWjuiWVVNY6Wwru10J+/UxHkyqwG4oEk1KizV+RkUPnMACOhZZIH37FPVUYb8jl+XHJQLqbS17fzLqRz7vkLUr7dZx2gXdN+RcvgkuXiQH4Krjq8sXzfzWA6L5qKkfN2pRWDmcLj9TtsZawbgnmMjqUyD7DYlSV65iE8A1c9mTnn+p8BcQRLDgHZ4JFKQOzOprVPa0SYTJYHMJ2h+NFT00vZEKbno8C1xT083rD2cFbdHjfLhJIjwE2gcDDoWhsOo5cMc7wfBrjTNnYcj2D9+WZABpUsScOyys0cGkqjZVuIuzIrDfVfHHZxE0/c9rAKj0roDphhQ+eZPA5KrjogqmVF79cJPNryQm40QvrEukIR1VSuvxMB2s9/BglxkwFXGX93jndLUuaaq6SrIhF/vt6w02Qd5XFLqyE8igy8FyYTTZozAlX43RFFJJK/B+JQxo6ZsvVEakPVkTO6pBLTBCWzIdbhTnIyaUhfCp2I0kBYJ8w0w3nMKtfRXUSPeGk+UQKLmtm36BH3EIIlnSUKRpOupPqIEvj1NrFKg81CnfeK/oPnstvJMOUNPmcekfqeKTN4Hl4c06naMoYHGxHAYtRRtBfpd3t4KV+uxqwVeTP+BdOZ6f/3qW33vAKi56mdniUTbHVjpoJX90QJV0SHH1n9KVw/XDkzrd6AsFYxBTVdS5s9pgBTx2NeR8oOZp+YUPRGA3d8nMJrSqOgrEKOGw9L/10tinEjzIf8leSnBbxx6o+S0mdcv+1bj07MC2sf4pWFwpaupargguRD0X2/3KDFtZWwGYdmRjREYYQUJdCAg+szrg+SRr2mnTWsy9Eb7Mt+DQlfFiNmSjsqIkYY9c6Jm4vLjQccJWgzapnEjSMkao7ZKVNtivVgQpB1rJ62MBWXUSG4ZPARt7eAUBMuhM3puRJZcHIRhQdoEJGHbgxCi7PYJWOHc4pdJo7JBx7rFm2auSUeHEVOjtJRTg9Q5XRl+n///9q4FPqri6s/cu5vdECKKRYWKIOVXhSBasfWztv2ptLVa6wsJJOGRBMVXtbXW1vqppf5s1bbWVu1DPknCIwkmarXWR6WttGp9YlvIBrFBwaqoVBCSwO7ee2e+/7lLyhKT7N2Zu6+Q4bG7986cOXNm5syZM2fO2bPDq5g79cFDVGEMlUtQYMGkxnFc8lPU6UGRCOKvcUem1CpcOKXpUHju1qhLHUtvJeWEULepZbfkrZ6hXEQBzoMnYBmHsbq6wESbBCxSL6ZL0WWvlb+NDZ96xaiQNIFY2kgQGHSp5KXuILrlaJ2+IaLQ+mFwZ0vaBOISa6WWZgTHidCJOPK8tOvOcgFsVjS3DH7dYtCaDlmmWh/VgRd8sY/H6T6KCiHeSLdQcn4h5VXEmFQTlYXi5Ndeygckmx/gCCGSv6k4IKOX5C96hYEZYs+eBkyP1MEWgt6TdRsq3kkFw5Lsc8gzIVW+XL3H/Ahh8Z0FA3GyaxlKGaaAFHwaFnI9p7FY5XC6ltLetq+m4FDueR1+mtjE8o8PRt+ORkgEoRD4jN6NXFg4i1i3NINp25sZkrehz5RPn6i/XfMKzj4P5/AU/nFQJ380agVOIvCCKkfRUDCp6bFAgClr1K6Y2EJavZmqeJAKGgN3x9JI5QNJOA309UoHkY7zOBk4dzhz3tFLD85jHPMatZmHtxRjWMxhsO5XT7LLNFjKMUXCD87Qz8VRVd6aU7gaEm7OGmHGhzS16gPCU8nq8fVhjL1prtttTyU+mol4Gm4Ob9shA0pXlR1DPEG3lfUSD8L/4KDTqvGS0kNDRskhPpyobGYw4EqXxpZhrINGTUtQozrpskk8WvqVdOsvtPw6HHxvWwv46JN2SzBeVza03ksEtrtuXaWyRq0rbN+qY3QbMGBmx/j/JuHT79fayc2XmEYISrW8V4V+OhAITeu3IUMvBqTAAaXiEyYvOo1cXKglTGzO3ri3rWJ1qvIlrHskzkBm6IzhVHXovqfxTmHOHNu8RhdW6vLh1FkGcQ45vPjjENJO0OIxdDGK8VdLuruVFnSEZX9cX1CTcJjskKZ4UCURi5/vRnLSWAPc3mHsTbhRS1tQW942ez36Vl9TAC0LrP1n5XfnCG0JyR9BLb+pNCB2pmNe7BqvD5hr4Je084MDMOwQem6ADJy/91vXFktKhKdQW1Cpfrhe6Aozc2lv2H39BvP8Llx49PUqr55hUTUQu3dBXiFVQMgIQ9ykY4MCp8tU/HYvTTZ4qAoa4WKthdlLRZp5XFcdXH699qglpZqghooPRAEpjoP7hNEDZUn1jlwNYfy9vGn8ZiVB7aAdRW3wGwimqrNOQlrk/MSF07LtMDkVdTTfS+NS1dOb5JpxMP1m3YYFaQtqBAOEfdXt42SAaX4nfgNZ7eQ5k5ZrjbU0q816dn8EtbxXzAxEV6NGXeOQgOveTOLm7waqZaB3ATtKwkiJ6iJHu0aYzdYfEmknj88DppqyxtMxQ8ao1jUgcJ9fEiMxzaJyMlL3GbRHcGqCt0fgGc124dQHDsf19fNUmTEJ/7hE0F0fqfQo/LMbYK+S0Tb5A5x24DjMDYSu8wdef1B0nPQmw1SSUZIB5OQ7xs+lqhvPvQiDS3H2wurVi5SI0H3odpSTL5LDY/XkLm7HObudCeow8qtkbdnyY00jOF5X+y1xxRvW/BtVWwcbxkd0bAj31stHB03+hb2/8+0bjEI0k84I1qw698VrypovgMHpaF2hhRhBfLf9qEqLrkCwV2bIs7G/UO4LLMZxqH9bFrFFIhUO2MFUIU/hGFNjiDuCk6uOHCTt+ZUDnBNVCjt6g864hjYEa5w3uldPaTwfF1NG6NSXTUKRAAFxrQZmDyXZrHd/qaumbMXkkFk8XVdQQ/kPsFVSFgTGrNlC2rQndLU2MCsplYY8bbD0n2CByxPHnjotgpZSst24j/iyKhQurPv9ENSw/obgLWHGFRPv1A6HpdqWTJdTFg72QUxHs7wPoOz9oE4FEyjHzk/LmISYAI5T3m3smPOWCvadYfN4LIh6dlhSvhKLibWp6r9w6rIjkaegDGPJAS4c9VTnyFVHAY5sxlz/VZyfrXqkn9CmxXaLoLejdNwKvTrPL6b0NTVGBpxARV8v/HmmxVaSUNA1hk8ClaWv4Il3+6Jd5WwLC5nKF7Ro44oF/GnayOo0ncY2jteuHQy3Cy+cuuJwKCfg6Dzlnt4LybrlqNF/85Kxrzx1G+ZuQHi493UFaeJz6J+ZnaGDKYrEoEz+CGoFqHjoDB0yFWr1C3S1AAljVX6/2uggb8ZiDo6odK4Xw9mP8SgExZROPIUd+DSOaSeq4ZrLUoYRdKLfzSUGhVS3ZOEZwHcUbXlVEt2kwsnngyO63/1PqvLzj2mchkE8SXceparH7/cQRoOYfedehliOfsPen+HNn9L8VYy6L+hq01waSv56/d/Lt+rQ0zAD/0L5Dh0Y5NcSWrWPWdHhX9eBkw9lhXA3J+ANemlPeK41DatP1Tvj52y5aehuRlxzBmJ3P9VrVf6W9kdQy9/29YsZdhU/h8pUU2OCvQAWtaDhLO63ogFeXHHi46WGNBY4ipcIEqBl1LHi9QNU476ayVpM+NRaQA0mjUm2/qTCy9t7Vwz42sJPNqmH1vJWUcHnIiN5OMc7GyNT2UceFlnLFPLhuzquTGl0Bq/k52BEHZSt8dRTj25H0YiCRv30Lm5P0IXVd3m99atvmPn99KqTWooNKW8Alspjb28L0TtStu79rfbt3rUz3oLguF6t9N5SroYQpgCFLNgjvBsiRYgqzCHNdY8csFIXqyookujK7JXQhmkncn5bhOP2+WVNGdSSa6OpDEBXlE1UrN3tyvgrFawua/pW0Ah/1hI4YtdItKuA6nadbQol9Xxn54ffC5ohchqohAWd70Pt+8Sy1+a/nQrAYRPfDXTyj+2ypZ3SJ1YqWF7fw0u9jWPdz4IxjPVB43JkPMi/jLqbvNa/P+azzWETMSq+qOfLWm4ybf5UKvrNpIV5p2UhwsVvwWx9OUtJVSdYDbH1EdBCf8nRdMMUMIpwC8e6CPCuSFXv0PvUFPiw06rG4v3p1Dm95JDRcTzQ4iVnqjxg0w9h1MCDPamK1aUC8PtwlFm/RH3zU9WZj++5jNcEzOJjVdeb5DaRYBSPC+21pEiGX3dY/J9YIxCPWL1vCDesxXRP+O6FZS3PLo6Uv5mMb6F/90dQ06NvVmlYfUzjmfCvc7OukEZI09k6BtfDn1j7etoSHy1yfKf9DdddgCIFyHeaFNHveCl+cMc2q3N8acV7gc4Be2sigHk5J/CS7/GOK+Lzp6w4M2yU/j7upLyQOmAzIJQGIJTOumLiYw/c1XGmmmQ7YA2D4yWixF4KH3mGqvsV0ljhSPCxxa9Vpjz2bH1uZnRmWettXdF399mqeRkbqtQeOyIk2K5hH7MM9iJwPVyHuduuw2d5ObSQ16m6GFBtx2Art/CYpqPjcOUC32nasYPJ152Q8fsXRcq1bMt6aFzfVrmipqzpFxC0Rup44k+MNT6jdlLj8rr1VX/sgV8InwsmrZwiuLhZlS8kt9HtH2Y95MXcJrlcX9+XRMq3oW/+gNX0WB0hOgn2SIvZP68e/1RlwybNY9kkoLn+6o+glutWeKx/XtmyI7jgdI6tF9ZkT33YVXRxLp72ctuyN4rDO63LIegp+50i27iY3f3XhvYqT7eiXBw3sSyfx1zJlraxR2umNLVB0JqiY7dCZaFFObu7ePvHQUslDWbvPhhsv2HsPEzEghfpMmPTsn/hjTZctkaYL4upt/oSuTCW39tc9sk62NLdqOdax3WAy+0Ao+M6TxuedPDcX/KSkb0VZasNl5/pK1Zdu1/L8tXeSEp+O/jHD6G90eoW8OwSaYp7Ko9pPKFpXdV2LWBZKkxH0h/udFZhvuBk2qf+ceyf+YU+dnmPCCYuwudBfsCEk+/znOK3rwSsH/sBLx9gQFO4fySKQGAyswG7Af9uhkj5WlgWpX3rBVohxBzkc3W0Aa42jxu3F0LvwdTz+4SvfoIGU/Lr9eEMTgjW7gN+oNMy1x8fE0/eu2HeGzpwMl2WNh2IFfgQNKxahuaEJx3hYIG4bOGYe4b5i7dftz79xcpvaDWfahllRUtfgBBwqB+n32TOYcldr9y7oTLlLfa02rIr+jPcILfpHEQnuRcLeGhCyGGNheDehUK7bd9pL4e2iuzTdJruliU+bju723bwbUrxV/tCoC5S+Qx6ZT1p8/1I5CkgGCi+rWZyU40f8PRh5EtkAn/oq0+PfiDMK2s5IiCCD5s8dKqqA9DeoGnAGgZr/lWkvKv3u1S/dxTtPA0HTHRCpJRoQDsytiHI5QtKALJcqCgu/iqktVZ3IrquOiSryZ0D3CwTLo3q6BIBbAJxMUU9Kgt8oTFTGtemUW3Osi5pr/g7zv3T3iT1Rpg2S7AFGGaNPOCy3u+Gfg9MgYXTcLknbj+Aef0pP4QAqo34KuDdNnDN6b9t2FQTRT/fAbvE9Av3KkE2XvAzeEbAMVsXTsjviAUlzL4byzPdAvcn0VrPWWNr5LJufwAmoEju/K/ru9EnoHDWTXjW1ZY13+QTyJyC8UPN4dPRcmboUDO5+USTO3+DKuZ/3IXel2ogZjHRuaStKm31PB0TmIY4B9oLrR087qw9fm9b5Xu+NCfDQBL2Tvx+HQ1iD4q044a70u/3/M7wJ3h7YSRpDqsBsgeoYutqMsSuF3eWmf5qMlQR8lTOuMUPTS3WHkxoeV4VOZ/2LWXZysA3vL0BqiabtBhrB+k+78e8TtRKG1D7nwEn9LQ3LNLLZZjOEkvEfDmuTGyIjDPixU4LtFbD08MkO7lrpzTdh3lNl2V8SxDI37a4/TD63Vfe2NA2dzUE4KfcY29fsE2gh7F5Q/Xk5l/7AlIZyFBkgn5JR0y3ekrzXIyn1dihkV2Tb4l2ZYLLq1QAxqMHHYxys9V3oAkhkXEHk6VwksM53dZ8Xxdjl25wVLygrGWkLqzBUp5sULghaNes7BaBtJ1gbf/X2loOb+6FkerbK6BRls+SkOlDOj5QZPp0Y9EHbPIUBLmnWDC5uRYXstphSjLKz106FlXsP3nr4vUztmSi+Z1rQx0w0rqP5HJ/koRrpuCXS5mzhqIx+ANTH8qCSY3jqssan4HjqHI9G859cSEegb9PLm+bp+3uZF/IiV8WCyxM4OtX/yTgFpmhS6CwWVN71PKjMF79Bd5XQzLwzB+NWp41vXZS83lFIePhIh5ahsEVVheKPkpxkvgh+b+8tK2q7qNvUz/BnrEiyIuVw+0QqdGmDtqBpK4tf3IsbZu9EYg/qruoJnbvfAR23lVZaF2ejey+W7yjyz5OSuOEvt96ewp6/lsK+RdvufMpF7/cj104bFfDuDE7G+OrIPo8Fz2AY6SzdzNoUwxzCbgQ17kc1Bt/EgJA+LeGR+27er/z63crK3cQExlG8PJDv2DSrX3Y530Se6SXcHvxB/OOXkob8ZylmkmNlwqD/RkXJ07WMYP4aAPcjdwux7au+eg7f56siMzExTj5M/JN6mdy3XYYxvEyYL5UXdZ8W82U5rF+ws8GLH8o4qsSVL3Z1WUrKmFAuA5x2Zow7U+hDkos7Oowe5eE8bEjhXMdnqu2+iYbeKkmWpSw78wYM1PFy0s5ozTwbX+OqngAi+o5+W4f4oUm+nkkF4KVgzFrHaXDdcHzDeur/qWPT3Yh1EVmrcVi+biusJbwycYvrDqm6cDstiD/a6uevHImhJB/gJc2QSg5jS5gqLO/vtsLv5aMm/zrd3mIsNI3BG9PaYzjStKtuBnorYCHXAmBVdL8u9E0g3+vntR0mYdivmaZP7l5OvURPLDfCR47wU8hmhAtModBkBaXL3t1/ge+Ir4PMASjE6E7HSbe2OexDz8S9OCl2AxcwxFysXpy0+01E1ugES6M5Jt7Dgx8VcElbUotYtLYNL6hqLukJDCCi7G42nsp/OMsMHhwmGDERIiNZAodfn/3lNCfVXxdYyJdiAV1uOpOh/acKNtd315ZnzbR8qDAkufgM2dK0z0YKxfr2AtS34IZTY+VWHQhY00eNC1nKMw8vDUM5nNpYvFo0lycAAAR6ElEQVRUQYMUSNKSQjSqlM59GbKVafwFNi9n6OEiESaoCGFl498DnDxy1ZHgZ3pt81a6h68OA1+NCTFeGmIBiHuRyc0SBwR2uaoPNwd7YwOeyOIiel99pOJ3vd9l4veSSNVtcHo+E+2a5rdAA3zHmmbgl+D1t2Jm3RgIsxXxD2JdDZuq4fvRP7uuRNzRMUE71v05KA5ugYB4fI9bHr/XPjoFiTtdT9VHqhoy0R/JMJesn7G5evKKH0NN+Us47YYiicadXykBC/9/zDCMb7GQ8y2sRytwz/gnRmhkB2PvWIvXXGz5VVsPHOgioV3p+aX26ZOgBizizuEI+Ao5wh+DETTNRBBLbHtE0JBmCDs57FickY7kIzfLlUdyWTRtOLOnmXzYIQzCGW4Vulft1ciQuhRpgnCB4D3YAl3X2lqhZMeDifutxM49dX195SAHt9DG3dzXu0J5FpSBH1ksfiGETlOHoUAox6W/OPnKmV8obc8EnqUH2l8P8HCItMcqiaJrwDRgS317VUHZPCa3FbY4L2GDBns1fqIOY084wGXf+PbUP/zgp2tP706uI0ffsVKZo8nmyK/6ia9CKgqyAAs7jhEwgnw4FGQHmSbx1eYJXIY+hePNacFA+FBsgJmAU2DVjaUXnImvIoTem7Zp0VzOXnL4BcIUL2JdGeWnaQw1IOHyhZeCX99hR2N3sJKiP0EwXGWy+9odxv8ds+y3mj04lE4mxlWHtxRvO3DXGFMGjwDOR1pR+QXGOr8WNIpHOkac9QhpyWX8+g67se0IdXi1X/BSwWlon/MbCFCfCfJQjSpfS1VHT5+bLDjHNErmWNHOtyQvXVVTtvJvYIlvSmm/JYMl7zT847y0jslrj3q4lIV2jmGOMQa+n6HZFJ8CTzpHfSOdaIkvghohgUV3BZCzGBwcfZRItJPo63nvnEn5EJgSS0gQUjUt6EEMlhDUKMMDLGBKyoZzbCJ2XOzqDSQjv00jyGweq6xbW/W6SgWJYMVyPJ1bqiU3XFUM+/4GtfL5UWrMqFHvbH5/yzJumDWYDMpIkUYOO715l0x98JrfrD3/fWVAAxWEvwv1/hoIsH/vMJyut6V6oAbyMm4JkfbtZf9aoA+JvJvjuOkBiP4ngBFp3CwgW3ajaJv9H7LDWaSPmSYEzkbgpOBuabAUHZzEN/9bJT2j1MN39/wWoE/AJBoFEQ0W0cZY2DB4CWcmzAnw1B3ywg3HQ6UznbD5jcG+8tvL187LzBzupwENr1ZsWjCl+WospLC3Y1hn/E20CU0IGaAsD0wHYadjnURADfafcBH/oGZyYxdCr30I/rIJjp62QV7FxkDGoIiImpwPE8IpwQpYDKzInmrMDmYPN2TRQYA7CsJtqeFusBzUkXZQnDQbikHB5S1LInCHk8Uku2KXWSVsDLTcp+tE70mFMm1CHMeCaMEPx6aoBl9qoGWFUGF8wKzd26EZ7cJE2glybwYhtuFfN46Ao7B13O1yCykPQD/B5lyMx2/4Euw+kDnmQejLkejXUmht0cXwU6AZYc8XQY0GJdL4BFFotveV+nveO29yvuTvyIdqMDR7F8j4b9JkWU7syob2yj+rVEYB0eEmcAZO4DUiEZBgarfAaRsGS+GmRatPtWvK7rsPbZmJVmhda6ej4KiI/QBwLs0IRfYsdRmB7QPQ2rKVCzEpDtgz/9KGSPTDxRgbtyfvbmCVaZfPpwJFwzp/GY+WXg+OcYAOXu5Om7PZ8Et3e87DSiWETizUvfhgnw3sL09/z/cCofGjo+nfCym9bzT+sIQtX9o+Wzv4eno1J3IvaatYDk3X54EHXFhkarJjicZCvScFUctoMPLR2BEkepUELqo7oX2gcxuYUJEIsG+/7cUOYsJeeD1wM/JJR54QMp6oa6v8SUYqGAAo+b2DJhnnkPEnQSlc1thLgQGKKb+iPkhSHOD0jg1DD5CQnOgnt3r6z+0teoYdEH4DuZ4n+/aYv/3kz2UCas0gTTSdbCdWN/6Q0cq+WEqPscahT0/XGWqYnHChbvy21af4d7nsruGx91aDFut0caDFhUuxoPq4+gwZgPdoI3Qx9b88mAP4grgowSTU4JODSTCb211eowYib0rBtmQXXKX+whcjcc6PEGb4K3qN2z8iE6jSyL0UxeQjSyOVEJJylxoilQvBRB7TvYyi3wKaz/nDb0hIw5rzN0QN0LT9VKfMkvVVm6H0rQWP2gJNtzqgzJQkuWxf2Swz9bhQ8671GWxrmqC5dP2lgZlwZ/c3SROUJoD/ZscG6XRo5cZo7Qo467Dt+F//C7SAv9zVcSUd5dzjz+QjS+SibxQwOZRQX1DWdAqENPgFUk/QpsW56axQh5BfJUV39EeI2LGLNlc6CUcgxThaOp9CvenAGSrbNwXo8gAOBlu7dgRm9Z0ju09xzDZDCquVzACGEqQPCEWw+XzeNu3zck2PJZFZzwphnI8j6i37c/8MCWr9jEQIaRyatIdxE+kc7SMQwb+rbZAr+eOZvRrdDyEy9Lg+UrkUx0xv6y6qQA+nBPyseUc/mFP/RRkiU59gF53yFEwW+NnQApT2mcHDQzLihjzzx5AT3uQhe0FkoeMSnF/cbMJUQSfR8Sc0vrO65Lu4qKSa1C53qNZWKOXcywPMXtUZ6rqo9a3yTBtYeSILjZswD9bC7vVhH/iRpzrzNRNp0nBLa4PJ+LnZthvsjyYN62c/75iBk21pbXTx6y/jIH4+JKh9pHMTu3FoG5biJty5usdC8+EkMmgWj3NtXz5Sl9cHcJ7gXlf2mr8w8sES4zt+xHdDHx0XMHZ9pjBarY/lxm3/pqgMs3TGFCxnyOPCoyqxavVbkDkIux1zqSOi23UWXDpOhgacs1AouzcRM0eWnEPe0x8YcuIP9W2VX25dc/GOnCOVhADNA7ifOBci+qP0WGf8JIEtoK+Jkzwcd74cCHcen2/hCZevLX8jLuR02JGtSfSNnta8gDrGRXVIUEvqsYS0Dp9STF47LvJabdIr5a8wDsVxDALEKqY9thN/cj37K8LI12INkYomCMQbdY9AQaOA5MZc9Nt+MXtNETwrYBSPJoFCI/3HsPlDGuXzsui7oze8jw3ASl3k3JtmnF81d+qyEjVYQzZqPXSj+Q0BDSpGfiM06Zq2fz1QM/MJm7WzgOx1wHeXLl/KDIb+Q00IPpg1TP5q3KjRJ5G9p/+16ENsgs0as6OnwqYQDt+l2J+0a0OC2p7xQzc7sZvYiOvRJzbAIeIitkjoDq35k1fgWjY7GufryqAIL1zX/rYygHwvKNkPyWZFJ9GxMiZtRcVRK0frwCmUsrgW9iMIuMro0vEThLwn6zZUvKMMJE8Lrl69yMYVxvvQPk2NDa5c8oBZJALfy9OmFgRaZFcEze9WCANfghnJzYWANByK3wKcv4Lbl+/m/pJBZilG7cNcwdInZ3RGAlfq2GJnFtMEdDJDOqKt4puCG2cAafQPeZoZ/GlIUEv0ccx2ovWyOzZlWbt//mLg/RjuE8ivk5rmgwahJbpfhhp67WAdilLwp6C90A5dRMJHcVDeOFjp1NOu2slNCBcVhL8edeGfxhV2z7f2wBxsn/WvVv4FbWpPaArUW0e3ihGe6+LqU+oV1GNDNmqk3sYmahlOJw7D7cFn1Hsi+yUb2uc+XReZPUZKa6XuOMo+9l5rdF1IrA6GAyMbXq16kGKhei2Zy3yLED8EJ0xPdrHAOClscu2itsDmshFp1r3fCmp7dkqIqMtWCS7Ohj1arWuMnCYB+8teO3X5URg+J/X33stzV/Mh2K+85C3UPOR4EoYrTwB/rcnmXtaQ/OLq436bIVcd+UFhHO5ei52kMjIkpIFWz9VH5rQrAymAgkLyG3zRhsDprLE1PLcAmpwXKLracXKPxtgqHFFAi1Y534/TiVw0DgKarItUVQghvor6IfyDIxe4Bofwd9vA5Suciwuh5Tx18ZpyTe1zLnqHMXJVVddeVQ4fzp9H3/weWMBZMN3cHVwWMLRR2O8ENepICgAML9H3G1Kc2SUDZy1tm/Okv0MNsWUdczomxFgduLBte9PgztM6MAqhLIKE3Y3BCEM+vQlGA5rbsesLoc0qONaWNZ4KefYoHds0Oko3hLxWpf5CKrO0veJPEEhf0F1YMaLISel5l5W1aDlnLiTaqeBKfJX+2cx+CAE9vkKuHerWV/1RBVa+lUEg98fiMYFb1uwsbJL+QuuHL5uALDaU7O0C7rrnROBVvxI69TPr2qqWZBGFjFW1FC48hse2XuAY7DRH2HW05yc+p7ueZAxhj4BJPCsyh6E1cquecZDHCvMhGy3iaLCFmKANUSf6/RXr574LvLS0OP21a2ZZaxDuii9ynU33l8nDcyD3zJLI3A4PWQs6y7J/zn6ttqzp92B+M3RiornHgZKdu/CTTbcuTjOWXiEQUEo+C85I4DVbbdjSxI/b3ZEuI/hKIbRXF0db8m8MM0PPxykijGLaIxRPt5g1ESD+oQhm0BZzDe6hEneEVY8QXjc3rFMLsZfvBGrsmLMTOD6K8fDYwrLWY+Fn7Cbwq68lwgOpzcfstNkNYQUVp91m2bu/27C+8nEIMPmMsBJZ9vjmfA7983ztxNZrrVD8aqz438RGLaRzAqGEjGYhklXA52Hc4rwRc3ZfXxo78IFBJaj1NJAWJLdzOAyKJfsAo/I1LG4rg+HOJtxoyXgMquHcOaHILDku7iB8m3qKY9ezUr14YZU0TPsaKcwZPmB9hFPEyZv2ch9g5Q2IminNY2GV/SUdhCgsDeILNra0zUS8usGfiot3vmJF2bNg1ifrMGv4VCyCHWU1KPZN71QjszZlH9neq8lCzr18FePH9TEnSWjZikVxI/7d1x0xlxaKfZMuuUALySKuwH52dVnLYbiWcw3Wly9ifTkM70ZhrLkhoEAXVJVNeYh6CX9ogSfTCM634jIExU99nlnWnfUbeuycq3RJkNflQQHJOthWIEmnBtfWlDVfgM956ItJ+DyUc7OU6ERhurLfR8AgKREeJJDRH/QZuYbYCvTfA5NeFZP2ssYk8xRXUCuEa8huo6hhSInv1EYEjYFQRoOTbsHhduXbuMDShtA6ETT9VQT73RjlLNLcVvmeWzBL/2Gm3ukImL8BP5W0p+PeWRKpfESlfCGWuXftvDeqJzc2FpnFVbaOOxNmBkH72QunPfLA4jVfU1elgIgYbZCV1fqQ+gBBefG/P97OESprOlxyTEjQRk3MAjPYhrmyCuMrmysIkSIniTZlOC5eDJ58supcJMQTQp68AqHKFjX8o+ZDL40hMQ07QpOOXhMLgpdS2c8zMF9FhGLwVRwhb0G+NixubeC367mQbwgj2NYQKadTif027Wn/1Qun3ROMxYdPxQJ7LMbKSZhcJ2KGHo1jqyCNHdK6Cfwh4cAf4Q29gTUPETTcNYY+EZzdhhCNNU++BFdFz2Et/OfBO4Lr7sgTp8K5GiSwwbsfdd9/ydQHD4mK6LHgo2WCs2ng7segL47CehOmfnH7ye0jcnbtL3ukObZXVsGqAJ6QkFfsDiaNCPBYCxzWwWQgMq6t49W+bDoTGjUp8vZWIUiGIYkxztmHoCc8WfNuPINGQG7DcrMJd982BrjR4UhjO+KCxeNmNBZdG47maodXfUzT0ZiXYcEsZZqiTfC2KX+Uq8Gdq3pF0LzJsqLHYVxjLqnNFrBEmhVju60dI9EOLUENGKzDMq18OSHmdJXaAe6L93VMgDMsEaWbjFDTKDOSv9e1Vbycq/7NRb0IBfUHePb9HTZP41XrJ2pzycMyHp6Nr7/xAgfb4zjKtOP4AntF9Q7zUpdqHrQLrIZD7S87MWd2CyG7Mfc+IL7qMP66wZwOhHraJhzDkkU8+u+Rr8dc9yeqFQ7ScntOadageWtmlrWsOCjMikXMDkN4Ggvd1mcx9k7CGCjD+yPxT9PWEZCYxFooN9vcaeOCPQ9HMi84prW5OBiObY+y3YMhHjQa6Wv6zdrzSbu4iv5RaLjYiK6wtYMVxYqtw0zpfBpj/zMY+9RH4zEnRoPG/vj9gNQHE6gtENZfZ9yJcMHX2YZsc+KBDjvEdh063IyOeK491pdwBlyG0hAFhigwRIEhCgxRYIgCQxQYokC+U+D/AcATgn6TZ7sNAAAAAElFTkSuQmCC;" vertex="1" parent="1">
          <mxGeometry x="500" y="270" width="112" height="112" as="geometry" />
        </mxCell>
        <mxCell id="JMNK8RQ1T5k1cOqS-6Ur-7" style="edgeStyle=orthogonalEdgeStyle;rounded=0;orthogonalLoop=1;jettySize=auto;html=1;entryX=0;entryY=0.5;entryDx=0;entryDy=0;" edge="1" parent="1" source="JMNK8RQ1T5k1cOqS-6Ur-3" target="JMNK8RQ1T5k1cOqS-6Ur-1">
          <mxGeometry relative="1" as="geometry" />
        </mxCell>
        <mxCell id="JMNK8RQ1T5k1cOqS-6Ur-3" value="User" style="shape=umlActor;verticalLabelPosition=bottom;verticalAlign=top;html=1;outlineConnect=0;" vertex="1" parent="1">
          <mxGeometry x="120" y="296" width="30" height="60" as="geometry" />
        </mxCell>
        <mxCell id="JMNK8RQ1T5k1cOqS-6Ur-12" value="" style="shape=image;verticalLabelPosition=bottom;labelBackgroundColor=default;verticalAlign=top;aspect=fixed;imageAspect=0;image=https://static.dezeen.com/uploads/2020/10/gmail-google-logo-rebrand-workspace-design_dezeen_2364_col_0.jpg;" vertex="1" parent="1">
          <mxGeometry x="730" y="289.44" width="130" height="73.13" as="geometry" />
        </mxCell>
        <mxCell id="JMNK8RQ1T5k1cOqS-6Ur-14" value="Error 발생!" style="text;html=1;align=center;verticalAlign=middle;resizable=0;points=[];autosize=1;strokeColor=none;fillColor=none;" vertex="1" parent="1">
          <mxGeometry x="612" y="285.87" width="80" height="30" as="geometry" />
        </mxCell>
      </root>
    </mxGraphModel>
  </diagram>
</mxfile>
